<svg xmlns="http://www.w3.org/2000/svg" viewBox="0 0 128 160" x="0px" y="0px"><g><path d="M54.223,98.955l.008.008v.014L54.216,99c-.044.19-.095.38-.132.563,1.412,6.884,4.024,15.882,12.378,15.882,8.785,0,11.082-7.711,11.4-15.033.088-1.961.19-3.914.322-5.86-.124-.263-.256-.526-.395-.8-.717-1.361-1.456-2.59-1.931-3.526s-.688-1.573-.541-1.661.607.388,1.272,1.185a22.385,22.385,0,0,1,1.763,2.5,93.352,93.352,0,0,1,1.507-11.068,41.182,41.182,0,0,1-3.606-8.566c-1.573-4.945-2.89-10-5.421-14.572-1.858-3.365-4.608-7.023-5.223-10.892a21.449,21.449,0,0,1-.344-3.219l-.036.007a5.963,5.963,0,0,1-.893.147c-.307.022-.6.029-.87.036s-.5-.022-.717-.044c-.856-.073-1.375-.219-1.39-.387s.519-.337,1.353-.483c.213-.029.439-.066.681-.1s.461-.095.717-.131a6.589,6.589,0,0,0,.826-.212l.227-.059.11-.029h.014l.008.022.007-.015a.369.369,0,0,1,.051-.022,3.871,3.871,0,0,1,2.173-3.211,8.873,8.873,0,0,1,3.021-.79,19.974,19.974,0,0,0,1.756-1.266c.446-.417.79-.673.943-.585s.059.505-.27,1.141a5.592,5.592,0,0,1-.6.761,7.314,7.314,0,0,1,3.533,1.383,14.323,14.323,0,0,1,4.835,6.437c.586-4.353,1.376-8.669.366-12.963-3.065-.6-6.284-.709-8.91-2.545-1.221-.849-2.45-2.7-4-2.912-2.787-.388-4.909.8-7.286,1.9a16.22,16.22,0,0,0-7.688,6.811,29.209,29.209,0,0,1-5.106,6.43.979.979,0,0,1-.308.424c-3.84,3.16-2.611,10.154-2.3,15,1.573-1.258,3.116-2.567,4.762-3.738a3.308,3.308,0,0,1-1.031-.38,2.761,2.761,0,0,1-.7-.476,1.453,1.453,0,0,1-.4-.439c-.175-.256-.248-.431-.19-.5.11-.168.717.358,1.624.607a5.374,5.374,0,0,0,1.727.2,5.268,5.268,0,0,0,.57-.074,20.008,20.008,0,0,1,2.89-1.492c2.948-1.214,7.7-3.043,9.678.622,1.807,3.358-2.231,9.151-4.024,11.653C57.142,69.233,52.168,70.9,48.3,74.617c1.609,7.542,3.826,14.967,5.3,22.531a12.94,12.94,0,0,1,2.611-3.65c.988-.951,1.675-1.39,1.8-1.28s-.373.8-1.134,1.851a18.227,18.227,0,0,0-2.458,4.316l-.117.336-.059.161-.014.037v.014Zm69.159-.8c.9,4.813.424,10.095-.081,14.959-.292,2.86-.863,6.686-4.345,7.008-1.178.11-2.568-.431-3.767-.5-1.807-.095-3.621-.169-5.428-.2-3.2-.051-6.4-.044-9.6-.095-6.942-.117-13.863-.783-20.812-.834a1.368,1.368,0,0,1-1.28-1.712c2.121-4.294,5.15-7.952,7.7-11.982.051-.081.095-.161.146-.242a17.283,17.283,0,0,1-2.209.776c-1.207.329-2.956.483-3.914,1.353a1.114,1.114,0,0,1-.5.256c-.03.117-.051.227-.081.337-1.719,6.576-6.73,10.914-13.767,10.27-7.637-.7-11.558-8.281-12.985-14.938C50.624,94.01,48.4,85.51,46.542,76.922a35.358,35.358,0,0,1-11.865,10.5c-3.2,1.756-6.81,3.08-9.451,5.7C22.936,95.393,19.871,96.629,17.7,99a.948.948,0,0,1-1.2.22,1.247,1.247,0,0,1-.5-.139c-5.3-2.927-8.932-7.316-11.821-12.561a1.043,1.043,0,0,1-.095-.848.94.94,0,0,1,.263-1.12c4.294-3.8,5.633-10.972,7.272-16.225a91.584,91.584,0,0,1,3.2-9.495c1.156-2.648,1.558-5.881,2.861-8.4,1.953-3.789,4.279-7.015,8.646-7.922,3.226-.673,6.284-.958,9.422-2.078,2.6-.929,5.157-1.938,7.762-2.853a9.039,9.039,0,0,1-.586-3.548c.139-1.784,1.222-4.315,3.131-4.974.322-2.728,2.063-6.5,5.106-6.115.074.007.139.022.212.036.439-3.262,2.393-6.854,5.911-7.008.008-.022,0-.044.008-.066.563-3.5,4.842-5.552,8.061-4.433a3.882,3.882,0,0,1,.7.344c.037-.088.051-.175.088-.271,1.046-2.831,2.97-4.886,6.159-4.74,8.142.373,10.768,12.268,9.357,18.566a1.057,1.057,0,0,1,.007.212,11.475,11.475,0,0,0,.7,4.711,1.158,1.158,0,0,1,.058.3,1.083,1.083,0,0,1,.183.308c1.514,3.95,1.31,7.871.834,11.828,5.15,2.429,8.676,6.738,13.211,10.11a25.627,25.627,0,0,1,5,5.625c1.887,2.509,4.345,4.507,6.35,6.928,3.877,4.7,6.049,10.687,8.529,16.174C118.949,86.929,122.292,92.306,123.382,98.151Zm-2.049,10.138c.264-5.025.439-9.407-1.477-14.228-2.18-5.464-4.887-10.753-7.316-16.115-2.245-4.945-4.652-9.905-8.566-13.775a43.968,43.968,0,0,1-4.894-5.537,27.305,27.305,0,0,0-6.532-6.079c-3.416-2.488-5.735-5.509-9.415-7.513-.256,1.873-.512,3.753-.614,5.662a1.141,1.141,0,0,1-.139.483A29.3,29.3,0,0,0,88.3,59.68c.117.014.234.029.358.036.885.073,1.727.11,2.356.2s1.017.242,1.017.41-.381.329-.995.461a9.267,9.267,0,0,1-2.085.175c.095.051.19.11.292.161a26.192,26.192,0,0,0,2.444,1.266c.314.139.563.241.746.322.212.073.322.153.329.234s-.117.168-.322.241a2.649,2.649,0,0,1-.973.044,7.983,7.983,0,0,1-2.831-1.046c-.146-.081-.278-.271-.409-.271-1.522,0-2.29-1.485-3.131-2.5A39.528,39.528,0,0,1,81.246,53.8c-1.566-2.736-1.909-5.991-3.592-8.624-1.192-1.88-2.86-3.826-5.2-4.214-2.4-.41-3.826.578-4.47,2.092a5.135,5.135,0,0,1,4.06-1.258c2.619.388,3.336,3.16,3.841,5.391a1.084,1.084,0,0,1,.007.147.547.547,0,0,1-.446.87c-2.195,0-3.131,1.134-4.733,1.646-.812.263-1.7-.461-2.165-1.009-.1-.118-.2-.257-.308-.388,1.127,2.97,3.022,5.7,4.492,8.485,3.643,6.869,4.616,14.755,8.178,21.617,2.875,5.538,8.6,8.376,11.844,13.562a25.039,25.039,0,0,0,.819-2.516c.2-.892.351-1.47.527-1.47.161.014.314.585.351,1.529a9.992,9.992,0,0,1-.878,3.7l-.088.176a1.2,1.2,0,0,1-.08.3c-1.961,4.5-3.607,8.975-6.4,13.057-2.129,3.117-4.4,6.13-6.218,9.43,5.552.109,11.083.621,16.635.746,5.918.139,11.858-.03,17.769.358,2.648.176,5.2.812,5.727-2.743C121.231,112.562,121.224,110.425,121.333,108.289Zm-33.708-6.81c1.3-2.546,2.355-5.194,3.489-7.835-2.407-4.111-6.6-6.283-9.51-9.934a97.975,97.975,0,0,0-1.433,13.958c-.074,2.143-.117,4.352-.388,6.518a17.735,17.735,0,0,1,2.421-.732A47.634,47.634,0,0,0,87.625,101.479Zm-7.206-70.27a.029.029,0,0,1-.007-.022,1.251,1.251,0,0,1-.176-.307,13.017,13.017,0,0,1-.768-4.9,3.513,3.513,0,0,1-.753.1,5.485,5.485,0,0,1-1.5-.183,8.51,8.51,0,0,1-1.258-.425,5.932,5.932,0,0,1-1.887-1.258,2.584,2.584,0,0,1-.761-1.4c-.044-.381.058-.549.124-.571.095-.029.176.19.344.439a3.161,3.161,0,0,0,.863.885,7.391,7.391,0,0,0,1.734.849,9.192,9.192,0,0,0,1.112.307,6.117,6.117,0,0,0,1.141.132,2.423,2.423,0,0,0,.929-.176,16.133,16.133,0,0,0-.673-8.808c-1.046-2.867-3.54-7.278-7.264-6.9-2.524.264-3.6,2.839-3.8,5.231a7.356,7.356,0,0,1,.293,1.382,20.092,20.092,0,0,1,.088,2.473c.263,1.031.607,2.019.907,3.014a7.531,7.531,0,0,0,1.338,1.4,2.223,2.223,0,0,0,.673.351,1.661,1.661,0,0,0,.242.066c.073.014.117.044.124.088s0,.087-.044.146a.47.47,0,0,1-.249.175,1.637,1.637,0,0,1-1.141-.043,4.1,4.1,0,0,1-.446-.213,9.553,9.553,0,0,1,.117,3.044,1.161,1.161,0,0,1-.11.343,8.127,8.127,0,0,1,1.719,1.01c1.354,1.024,2.436,2.4,4.17,2.831C77.12,30.667,78.766,30.916,80.419,31.209ZM74.574,47.324a.514.514,0,0,1,.169-.314c-.395-1.749-1.01-4.155-3.095-4.155-1.214,0-2.9.461-3.445,1.7-.454,1.053,1.258,4.835,2.7,4.052A20.482,20.482,0,0,1,74.574,47.324ZM65.9,20.668c.043-.666.175-1.646.234-2.663a13.958,13.958,0,0,1-.512-3.6,1.912,1.912,0,0,0-.359-.439c-1.924-1.712-5.267.088-5.808,2.319a4.916,4.916,0,0,1,3.284,4,8.29,8.29,0,0,1-.46,3.343,8.88,8.88,0,0,0-.227,3.424c.314-.132.629-.271.943-.4a10.049,10.049,0,0,1,3.19-.8,14.279,14.279,0,0,1-.307-2.29c-.117.051-.227.11-.33.161a5.36,5.36,0,0,1-1.441.227c-.695.022-1.229.11-1.28-.066-.044-.146.285-.505,1.1-.79a10.838,10.838,0,0,0,1.178-.424l.242-.154a1.785,1.785,0,0,0,.212-.2.837.837,0,0,0,.19-.248l.095-.139.007-.008C65.855,21.509,65.877,21.092,65.9,20.668Zm-.666,22.209v-.066A.054.054,0,0,0,65.233,42.877ZM62.607,54.493a1.322,1.322,0,0,0-1.163-1.382c-4.587-.82-10.571,3.46-13.819,6.327a28.492,28.492,0,0,1-8.281,5.64.881.881,0,0,1-.885-.073c-.241.029-.49.051-.739.073h-.1l-.051-.007h-.1l-.2-.015-.417-.022a4.944,4.944,0,0,1-.885-.1c-.314-.065-.636-.124-.943-.19s-.586-.183-.864-.278a9.994,9.994,0,0,1-1.543-.709c-.461-.286-.878-.578-1.251-.864-.351-.314-.68-.6-.951-.892a7.092,7.092,0,0,1-1.112-1.485c-.212-.388-.278-.644-.175-.739s.358-.007.724.205.87.549,1.463.951c.3.19.636.395.987.614.366.2.754.4,1.156.593a10.767,10.767,0,0,0,1.324.49c.234.066.468.154.71.205s.468.088.709.139c.454.1,1.156.11,1.566.161h.132a8.659,8.659,0,0,1-.278-4.1,3.621,3.621,0,0,1-1.588.3,2.989,2.989,0,0,1-1.039-.242c-.226-.1-.336-.2-.322-.285.03-.19.564-.2,1.3-.344a3.844,3.844,0,0,0,1.148-.453,4.9,4.9,0,0,0,1.068-.937,1.39,1.39,0,0,1-.219.044,4.243,4.243,0,0,1-1.3-.029,6.32,6.32,0,0,1-1.954-.666c-1.038-.548-1.492-1.155-1.382-1.272.11-.139.7.168,1.712.46a8.819,8.819,0,0,0,1.763.352,2.534,2.534,0,0,0,1.821-.417,7.179,7.179,0,0,0,1.405-1.61c.161-.219.321-.431.49-.636-.264-.051-.534-.117-.8-.19a8.16,8.16,0,0,1-4.331-2.327A3.5,3.5,0,0,1,34.9,50a3.407,3.407,0,0,1-.154-.673c.015-.388.073-.578.154-.578.219-.015.256.761,1.112,1.434a10.258,10.258,0,0,0,4.009,1.733c.534.139,1.068.264,1.58.373a3,3,0,0,1,1.082-.446,4.991,4.991,0,0,1,.271-.68c.044-2.853.505-5.611,2.041-7.689a.969.969,0,0,1-.278-.76,8.87,8.87,0,0,0-.5-3.058c-5.515,1.909-10.746,4.192-16.6,4.886-6.832.812-7.6,7.411-9.707,12.656-2.466,6.13-4.236,12.428-6.416,18.654-1.221,3.489-2.516,7.256-5.23,9.883,2.6,4.637,5.786,8.5,10.409,11.177,2.107-2.048,4.806-3.387,7-5.347a30.551,30.551,0,0,1,6.884-4.477c6.327-3.146,11.682-7.22,15.413-13.255a1.077,1.077,0,0,1,.424-.673.993.993,0,0,1,.739-.432c3-2.575,6.957-3.906,9.576-6.884.307-.358,1.28-1.653,2.348-3.291a25.143,25.143,0,0,1-2.18-1.427c-.556-.358-1.427-.607-1.792-1.2-.754-1.207.724-2.618,1.411-3.5,1.061-1.353,2.327-2.64,4.185-2.443A5.647,5.647,0,0,1,62.607,54.493Zm-2.963,7.14a22.92,22.92,0,0,0,2.831-5.911,3.361,3.361,0,0,0-2.443-.651c-1.3.132-2.217,1.39-2.934,2.363a14.469,14.469,0,0,0-.951,1.339c-.4.738.571.951.922,1.17A16.97,16.97,0,0,0,59.644,61.633Zm.885-41.36a2.212,2.212,0,0,0-.826-1.405c-3.409-2.685-5.962,1.829-6.2,4.645a1.143,1.143,0,0,1-.058.285A4.381,4.381,0,0,1,55.2,26.044a24.9,24.9,0,0,1,.629,4.294,26.335,26.335,0,0,1,4.148-2.355,10.693,10.693,0,0,1-.234-2.5,5.906,5.906,0,0,1-1.77,1.609c-.9.5-1.471.52-1.544.388-.095-.161.432-.519,1.024-1.09a9.3,9.3,0,0,0,1.939-2.677A17.493,17.493,0,0,0,60.529,20.273ZM53.945,31.889c-.468-2.151-.065-6.752-2.787-6.752-1.792,0-2.677,2.2-2.9,3.936,1.909.687,2.956,3.094,3.658,5.252A16.936,16.936,0,0,1,53.945,31.889Zm-3.591,4.836c-.417-1.442-1.522-5.385-3.043-5.582a1.07,1.07,0,0,1-.271.007,1.54,1.54,0,0,0-.871.556c-2.406,2.707.147,6.474.659,9.751A25.023,25.023,0,0,0,50.354,36.725ZM43.4,60.287a.9.9,0,0,1-.022-.2c-.022-1.529-.19-3.313-.307-5.164a6.237,6.237,0,0,0-3.1,7.483A25.013,25.013,0,0,0,43.4,60.287Z"/><path d="M70.566,77.522c.117.117-.351.76-1.259,1.653a31.377,31.377,0,0,1-3.877,3.006c-1.572,1.039-2.984,1.975-4.016,2.656-1.031.7-1.7,1.112-1.821.98s.358-.761,1.251-1.646a30.884,30.884,0,0,1,3.891-3.014c1.573-1.039,2.992-1.982,4.024-2.67C69.776,77.8,70.449,77.4,70.566,77.522Z"/><path d="M66.667,74.844c.117.329-1.31,1.054-3.051,1.77-1.638.695-3.1,1.478-3.292,1.156-.087-.146.154-.49.629-.929a7.972,7.972,0,0,1,2.173-1.36C64.977,74.72,66.564,74.53,66.667,74.844Z"/></g><text x="0" y="143" fill="#000000" font-size="5px" font-weight="bold" font-family="'Helvetica Neue', Helvetica, Arial-Unicode, Arial, Sans-serif">Created by Hey Rabbit</text><text x="0" y="148" fill="#000000" font-size="5px" font-weight="bold" font-family="'Helvetica Neue', Helvetica, Arial-Unicode, Arial, Sans-serif">from the Noun Project</text></svg>