<svg xmlns="http://www.w3.org/2000/svg" viewBox="0 0 128 160" x="0px" y="0px"><g><path d="M116.657,66.617c3.274,2.377,8.382,6.456,7.157,11.18-1.195,4.6-5.6,6.547-9.937,7.261-6.413,1.06-12.734-1.671-19.013-2.53a1.016,1.016,0,0,1-.378.25C87.6,85.247,80.83,88.051,73.655,89.557a1.154,1.154,0,0,1-.1.146c-2.335,2.8-4.377,5.834-7.011,8.382a.833.833,0,0,1-.914.2.851.851,0,0,1-.342.067c-4.011.012-8.028.14-12.039.153a1.089,1.089,0,0,1-.25-.031,3.937,3.937,0,0,1-.86.848c-.061.054-.116.115-.183.17-.506.4-1.182.232-1.658.549-.378.25-.4.89-.786,1.164-.415.3-1.293.086-1.738-.012-.628-.14-.591-.28-1.079.159a1.758,1.758,0,0,1-1.189.554,3.184,3.184,0,0,1-1.493-.353c-.348-.165-.7-.6-1.036-.707-.275-.092-.415,0-.726.024a4.044,4.044,0,0,1-2.3-.616c-1.366-.89-3.682-.079-5.188.037a12.21,12.21,0,0,1-5.5-.567.721.721,0,0,1-.2.067c-7.7,1.75-15.453-.268-23.208-.268a.912.912,0,0,1-.5-.147.822.822,0,0,1-.719-.871c.22-7.5-1.012-14.954-.506-22.452a.882.882,0,0,1,.39-.7.714.714,0,0,1,.531-.5,55.291,55.291,0,0,1,.4-15.5.8.8,0,0,1,.232-.829c4.291-8.211,16.075-10.29,24.311-11.7a.863.863,0,0,1,.213-.012c2.3-1.732,5.1-2.433,7.566-3.847-.47-.3-.951-.579-1.445-.835-.555.158-1.207-.11-1.11-.823.671-5.194,11.333-3.115,14.728-3.048a.842.842,0,0,1,.689.335,1.079,1.079,0,0,1,.165.134c1.792,1.841,3.554,3.115,4.987,5.158a15.333,15.333,0,0,1,6.76,2.188c.183-.219.372-.439.573-.64a27.094,27.094,0,0,1,2.829-10.04A31.635,31.635,0,0,0,68.8,29.754,4.014,4.014,0,0,1,70.241,27.5c6.292-4.182,14.2-.987,20.361,1.573,5.121,2.128,9.968,6.8,9.968,12.729a3.4,3.4,0,0,1-.89,2.3c-.311.28-2.549,1.317-2.549,1.469.226,2.756-.054,5.084-1.786,7.273.439,1.335,1.2,3.042,1.024,4.377A53.782,53.782,0,0,1,116.657,66.617Zm-5.828,16.856c3.774-.086,11.467-1.494,11.272-6.712-.2-5.346-6.7-9.047-10.766-11.455a50.417,50.417,0,0,0-15.612-6.358.857.857,0,0,1-.378-.171,3.025,3.025,0,0,1-.585.262.908.908,0,0,1-.518.147h-.78a5.421,5.421,0,0,1-1.61,2.932c8.023-.14,15.137,6.608,21.276,11.01.164.128.329.256.481.371q.21.147.4.293c.226.2.494.329.647.451s.231.22.207.287-.14.1-.335.091a1.949,1.949,0,0,1-.805-.164c-.171-.061-.36-.141-.561-.226-.177-.1-.366-.207-.567-.317a13.09,13.09,0,0,1-1.213-.823c-.78-.6-1.433-1.17-1.92-1.6-2.64-1.829-5.852-2.89-8.571-4.609-3.5-2.213-7.2-3.542-11.363-2.7a1,1,0,0,1-.378,0,8.721,8.721,0,0,1,.542,2.036c.055.774.012,1.268-.128,1.3s-.347-.427-.585-1.164a17.068,17.068,0,0,0-1.195-2.6,1.534,1.534,0,0,1-.1-.165c-3.151-2.774-5.212-6.376-8.808-8.76-4.067-2.694-8.486-4.785-13.436-4.938a.858.858,0,0,1-.592-.238c-.737-.487-1.5-.987-2.286-1.469a.941.941,0,0,1-.25-.091.857.857,0,0,1-.207-.183,15.753,15.753,0,0,0-5.114-2.054c.951,1.646,1.877,3.322,2.883,4.937.969.232,1.926.537,2.89.8a13.209,13.209,0,0,1,3.968.652,4.7,4.7,0,0,1,.5.128c1.3.433,1.774,1.281,1.39,2.366a28.388,28.388,0,0,1,3.889.414c1.975.415,3.164,1.378,2.945,3.371a4.128,4.128,0,0,1,1.993,1.031c1.536,1.621.634,2.706-.823,3.261.031.018.061.037.1.055a.822.822,0,0,1,.426.884.744.744,0,0,1,.025.207,4.445,4.445,0,0,1-.238,1.262,1.013,1.013,0,0,1-.2.353.977.977,0,0,1-.317.4c-2.176,1.585-4.609.89-6.919-.1-1.732-.738-3.627-.957-5.316-1.78-1.317-.646-2.554-1.475-3.938-2-.342-.129-3.383-1.2-3.6-.72-1.14,2.493-.506,5.31-2.249,7.626a.932.932,0,0,1-.58.366.862.862,0,0,1-.414.086c-5.566-.116-3.335-6.712-3.249-10.157l-.019-.036a10.347,10.347,0,0,1-1.914,1.829c-.6.439-1.024.646-1.115.542s.152-.506.615-1.067,1.146-1.3,1.774-2.145c.073-.092.128-.189.2-.281a12.313,12.313,0,0,1,.189-6.907c-1.182-2.481-4.45-2.694-6.486-4.151-1.353-.969-2.633-2.012-3.968-2.981-2.555,1.7-5.706,2.243-8.133,4.157a.956.956,0,0,1-.457.2.954.954,0,0,1-.353.134c-7.566,1.3-18.612,3.06-22.91,10.3,2.725,2.054,6.078,3.085,9.364,4.121.183-.14.372-.274.567-.409.274-.17.567-.365.841-.518a8.21,8.21,0,0,0,1.494-1.018,4.72,4.72,0,0,0,.53-.585c.092-.116.189-.3.287-.445l.256-.421c.213-.335.426-.676.64-1.018a7.115,7.115,0,0,1,.707-.993c.323-.4.646-.793.969-1.177.335-.36.683-.7,1.024-1.042s.671-.665,1-.951.652-.586.969-.866c1.22-1.116,2.378-2.176,3.433-2.963a11.409,11.409,0,0,1,2.761-1.585c.7-.213,1.116-.237,1.177-.115s-.256.414-.836.841c-.512.445-1.274,1.061-2.152,1.957s-1.871,1.993-3.078,3.237c-.3.3-.61.6-.921.92s-.64.628-.932.951-.61.652-.921.982l-.865,1.066a6.177,6.177,0,0,0-.628.878c-.2.293-.384.586-.573.878-.116.171-.226.342-.336.506s-.183.3-.311.463a6.005,6.005,0,0,1-.926.958,8.829,8.829,0,0,1-1.89,1.146c-.03.018-.055.03-.079.042.335.11.67.226.993.348a111.077,111.077,0,0,0,13.089,3.59,31.454,31.454,0,0,1,3.359.982,22.946,22.946,0,0,0,2.682-1.335,31.118,31.118,0,0,0,4.883-3.438l.78-.677c.22-.22.409-.409.573-.561.323-.3.531-.439.586-.4s-.049.274-.275.652c-.116.189-.262.415-.439.671-.2.244-.439.518-.707.817A20.294,20.294,0,0,1,39.767,68.2a15.553,15.553,0,0,1-1.884.951,21.684,21.684,0,0,1,4.1,2.219c1.682-.628,4.481-2.408,6.047-.787,1.664,1.732.122,4.219-1.451,5.469A15.066,15.066,0,0,1,47.7,78.09c1.061,2.3,7.468,14.033,6.547,18.581,3.682-.031,7.358-.134,11.04-.147a1.166,1.166,0,0,1,.208.019,103.866,103.866,0,0,0,6.675-8.023.765.765,0,0,1,.646-.652c7.285-1.475,14.149-4.328,21.117-6.834a.131.131,0,0,0,.018-.03c-.475-.134-.969-.281-1.469-.445-3.743-1.177-6.852-2.073-6.773-2.372.067-.25,3.243.189,7.072,1.39.457.147.9.287,1.335.427a.379.379,0,0,0-.061-.043,17.473,17.473,0,0,1-3.292-3.048c-.719-.878-1.091-1.475-.988-1.573s.671.33,1.512,1.073c.854.72,1.988,1.744,3.353,2.7a22.248,22.248,0,0,0,3.749,2.018c.518.195.939.366,1.225.506C103.337,82.516,107.08,83.558,110.829,83.473ZM98.68,42.165c.939-6.016-5.828-10.314-10.467-12.094-3.134-1.207-7.072-3.164-10.5-2.78a31.181,31.181,0,0,0-4.261.847c-1.878.494-2.463,1.262-3.152,3.079-.8,2.133-2.28,3.846-3.182,5.925a30.429,30.429,0,0,0-2.2,8.541c3-1.6,5.786-4.005,9.242-4.158.854-2.725,3.664-5.553,6.675-4.09,2.75,1.341,3.9,4.755,3.463,7.711,1.914-.749,4.03-1.8,4.895-3.243.555-.926,1.207-2.066,2.317-2.408a6.008,6.008,0,0,1,1.859-.268,2.95,2.95,0,0,1-.658-.536,2.989,2.989,0,0,1-.293-.36,3.19,3.19,0,0,1-.219-.354c-.482-.932-.5-1.554-.391-1.6.147-.067.433.5,1,1.2a2.122,2.122,0,0,0,.226.256,1.636,1.636,0,0,0,.268.244,2.715,2.715,0,0,0,.671.421l.054.03.006.006.122.049.244.1c.153.073.311.146.47.219.311.146.628.293.951.451a1.473,1.473,0,0,1,.176.073,7.057,7.057,0,0,0-.6-2.194c-.3-.726-.451-1.2-.341-1.262s.457.28.926.945a6.429,6.429,0,0,1,.707,1.3A3.506,3.506,0,0,1,96.979,40l-.049.287h-.4c-.128,0-.268.14-.4.122l-.262-.006c-.11-.037-.208-.061-.305-.092.652.927.792,2.055,1.469,2.981C97.8,43.135,98.552,43,98.68,42.165Zm-3.2,2.085.019-.036c-.457-.787-.628-1.628-1.11-2.427-1.536-2.566-3.511.951-4.279,2.012A5.65,5.65,0,0,1,87.14,45.78a14.789,14.789,0,0,0-3.975,1.841c-.2.153-.378.4-.628.409a10.22,10.22,0,0,1-.055-2.951,7.1,7.1,0,0,0,.013-2.267,4.712,4.712,0,0,0-2.238-3.628c-1.56-.755-2.883.177-3.694,1.47a6.188,6.188,0,0,0-.439,2.944,11.176,11.176,0,0,0,.646,3.146c.049.091.1.176.141.268a3.311,3.311,0,0,0,.213.292,2.536,2.536,0,0,0,.427.427,3.865,3.865,0,0,0,1.012.573,1.429,1.429,0,0,0,.829.116.56.56,0,0,0,.384-.372c.024-.091.049-.171.073-.244s.024-.158.03-.219c.025-.116.055-.183.086-.183s.079.055.122.165c.018.061.042.128.067.213.006.1.012.207.018.341a1.235,1.235,0,0,1-.134.439.906.906,0,0,1-.427.4,1.983,1.983,0,0,1-1.262.048,4.291,4.291,0,0,1-1.292-.579,2.891,2.891,0,0,1-.628-.549,2.53,2.53,0,0,1-.25-.3c-.085-.134-.165-.268-.25-.4a10.184,10.184,0,0,1-.829-3.468c-.018-.153-.024-.311-.03-.47a.308.308,0,0,1-.074.006.941.941,0,0,1-.414.092c-3.463-.037-6.456,2.682-9.516,4.279.238.153.475.311.707.464a25.15,25.15,0,0,1,10.741,3.145c-.317-.4-.664-.841-1.036-1.286-.847-.841-1.53-1.689-2.164-2.243-.585-.58-.9-.994-.817-1.11s.567.1,1.268.543a11.438,11.438,0,0,1,4.267,4.883,1.243,1.243,0,0,1,.049.122c.3.182.6.371.884.567.152.1.3.2.457.3a4.851,4.851,0,0,1-.17-1.926c.128-.671.329-1.049.463-1.036s.2.451.262,1.091a8.466,8.466,0,0,0,.677,2.237,8.906,8.906,0,0,0,.53.86,18.382,18.382,0,0,1,3.213,2.9,53.509,53.509,0,0,0,4.389,5c1.475-.866,2.835-1.829,2.944-3.7a.858.858,0,0,1,.244-.579,2.025,2.025,0,0,1-.683-.909,1.908,1.908,0,0,1-.073-1.146A1.393,1.393,0,0,1,91.791,55a.843.843,0,0,1,.592-.159c.128.019.207.055.231.122s-.012.153-.1.25a1.174,1.174,0,0,0-.238.323,1.124,1.124,0,0,0-.134.439,1.708,1.708,0,0,0,.109.592,1.912,1.912,0,0,0,.586.8.9.9,0,0,1,.183-.018H94c.951-.3.591-1.25.317-2.036-.28-.817-.646-1.61-.884-2.445a.812.812,0,0,1,.317-.938.579.579,0,0,1,.067-.1C96.1,49.17,94.614,47.03,95.485,44.25ZM75.3,64.276a.828.828,0,0,1,.019-.1c-5.109-2.81-10.614-3.712-14.363-8.626a79.185,79.185,0,0,1-5.224-8.235c-.336-.573-.665-1.207-1.024-1.835a.911.911,0,0,1-.256-.445A9.277,9.277,0,0,0,52.721,42.8c-1.06-.92-2.188-1.731-3.17-2.731-2.426-.152-10.363-1.146-12.155.567,3.017,1.646,5.395,4.322,8.522,5.718,2.079.921,4.493,1.75,5.529,3.939.018.048.031.091.049.14a.851.851,0,0,1,.244.872c-.628,2.426-1.146,4.754.012,7.114a1.068,1.068,0,0,1,.1.384.934.934,0,0,1,.128.487c-.049,2.1-2.037,7.931,1.152,8.309,1.274-2.139.884-4.791,1.9-7.077,0-3.3,9.778,1.951,10.649,2.219,2.549.786,7.011,3.273,9.553,1.81C75.252,64.459,75.283,64.367,75.3,64.276Zm-.122-2.225c.707-1.561.488-2.359-.67-2.384l-1.1-.146c-.554-.073-1.109-.183-1.658-.274a31.289,31.289,0,0,1-4.73-1.049q-.421-.146-.823-.311a19.522,19.522,0,0,0,3.816,1.994C71.759,60.57,73.5,61.228,75.179,62.051Zm-.81-3.755c.152-2.561-5.773-2.073-7.279-2.366-.829-.158-1.64-.371-2.439-.6l-.378-.11c-.42-.128-.841-.268-1.255-.414a11.345,11.345,0,0,0,1.639,1.121,42.471,42.471,0,0,0,8.352,2.189C73.411,58.162,73.881,58.216,74.369,58.3Zm-7.157-3.664a1.525,1.525,0,0,0-.945-1.372c-.683-.134-1.469-.152-1.89-.207-.28-.036-.555-.085-.835-.146-.384,0-.738,0-1.03-.025a6.8,6.8,0,0,1-.97-.158,6.821,6.821,0,0,0,1.5.957c.628.232,1.268.445,1.908.634A18.3,18.3,0,0,0,67.212,54.632Zm-14.759,42a3.083,3.083,0,0,1,.1-.744c-.2-3.5-6.913-18.611-8.608-20.452-5.45-5.926-13.094-5.724-20.2-8.138-5.371-1.829-11.882-3.231-16.679-6.542A51.9,51.9,0,0,0,6.836,74.6c6.578.811,13.064,2.146,19.6,3.231-.153-.128-.293-.256-.421-.36-.378-.335-.67-.579-.609-.713.061-.116.414-.14.981.091a9.7,9.7,0,0,1,1.872,1.116,6.766,6.766,0,0,0,1.694.945c.464.152.811.189.842.341.03.122-.3.36-.939.378a2.809,2.809,0,0,1-1.073-.207,2.476,2.476,0,0,1-.256-.122c.262,4.926,3.8,8.321,6.669,12.021,1.7,2.183,3.865,8.407,7.327,7.432-.109-.36-.213-.714-.317-1.061-.566-1.591-1.121-3.012-1.633-4.206-.994-2.39-1.555-3.9-1.4-3.975s.987,1.3,2.188,3.615a39.9,39.9,0,0,1,1.908,4.182q.413,1.216.854,2.554a1.268,1.268,0,0,0,.6.677.86.86,0,0,0,.811-.122,1.7,1.7,0,0,0,.213-.165l.165-.164.207-.293a1.158,1.158,0,0,1,.092-.2,2.475,2.475,0,0,0,.1-1.116,9.825,9.825,0,0,0-.713-2.414c-.152-.4-.311-.792-.451-1.195-.122-.39-.244-.768-.36-1.133-.231-.72-.445-1.4-.64-2.012-.792-2.445-1.439-3.908-1.268-4,.128-.073,1.061,1.274,2.085,3.694.25.6.524,1.268.793,1.981.134.354.268.72.414,1.1.14.353.3.731.482,1.127a10.223,10.223,0,0,1,.859,2.713,3.857,3.857,0,0,1-.018,1.122c.006.03.012.055.018.079a1.735,1.735,0,0,0,.122.275.842.842,0,0,0,.854.536.687.687,0,0,0,.231-.1,1.171,1.171,0,0,0,.238-.225c.055-.079.122-.189.177-.287a1.957,1.957,0,0,0,.109-.347,3.713,3.713,0,0,0,.037-.884c-.018-.317-.055-.756-.061-1.079a10,10,0,0,0-1.036-3.688c-.525-1.11-1.073-2.122-1.451-3.024a9.67,9.67,0,0,1-.683-2.225c-.073-.543-.049-.847.031-.866s.219.256.432.744c.214.469.543,1.146,1.006,1.963s1.073,1.762,1.683,2.9a10.861,10.861,0,0,1,1.146,3.212c.012.031.018.055.03.092.055.2.11.469.159.67.079.36.171.738.262,1.079a.8.8,0,0,0,.11.269c.2.3,1.256-.8,1.341-.964A2.393,2.393,0,0,0,52.453,96.628ZM45.5,74.585c.61-.531,2.378-2.994.726-2.792a9.488,9.488,0,0,0-2.591.859A16.875,16.875,0,0,1,45.5,74.585ZM37.505,98.164c-1.249-1.627-2.237-3.682-3.249-5.06-3.133-4.248-7.071-7.912-7.529-13.38-3.84-.622-7.662-1.348-11.491-2.012,6.273,5.139,9.815,13.545,14.265,20.026.025.042.043.085.067.128C31.866,99.006,34.908,98.53,37.505,98.164Zm-17.014.518a32.913,32.913,0,0,0,7.133-.469c-4.554-6.791-8.2-15.752-15.259-20.343-2.176-.237-4.286-.853-6.45-1.14-.378,7,.665,13.973.555,20.971,4.085.061,8.187.658,12.278.9l-.025-.024c-.225-.293-.481-.579-.676-.89-.494-.756-.823-1.445-1.268-2.128-.391-.634-.86-1.3-1.256-1.908-.817-1.219-1.506-2.347-2.14-3.219-.317-.445-.561-.871-.847-1.213s-.512-.646-.7-.9c-.378-.494-.561-.792-.506-.841s.335.158.8.573c.232.207.512.463.829.774a15.09,15.09,0,0,1,.988,1.146c.75.866,1.5,1.951,2.353,3.146.427.6.866,1.182,1.329,1.9.439.646.841,1.444,1.274,2.1.177.286.39.506.573.762l.037.049.006.006.091.079.2.165a2.572,2.572,0,0,0,.378.292Z"/><path d="M89.719,34.393c.146-.043.371.573.262,1.5a4.944,4.944,0,0,1-.451,1.621,1.84,1.84,0,0,1-.83.9l-.292.092a1.651,1.651,0,0,1-.488.006,1.423,1.423,0,0,1-.555-.293,2.336,2.336,0,0,1-.408.72,1.446,1.446,0,0,1-.847.469,1.245,1.245,0,0,1-.8-.171,1.741,1.741,0,0,1-.664-.725c-.092-.2-.11-.323-.055-.36s.17.012.329.122a2.428,2.428,0,0,0,.67.354.548.548,0,0,0,.671-.256,2.364,2.364,0,0,0,.311-1.25l.018-1.189.848.841c.225.226.4.464.536.61a.439.439,0,0,0,.159.122c-.013.006-.019.012.006.018l.115-.03.055-.018h.013a1.2,1.2,0,0,0,.377-.421,6.419,6.419,0,0,0,.567-1.311C89.536,34.929,89.584,34.429,89.719,34.393Z"/><path d="M88.134,37.508c.006,0,.012,0,.006.006Z"/><path d="M83.318,33.424c.006,0,.012,0,.018-.013a1.226,1.226,0,0,0,.183-.542,5.272,5.272,0,0,0,.073-.658c.043-.836.037-1.4.183-1.421.128-.024.4.47.542,1.384a4.178,4.178,0,0,1,.055.768,1.889,1.889,0,0,1-.262,1.018.976.976,0,0,1-.707.439,1.351,1.351,0,0,1-.4-.037,3.211,3.211,0,0,1-.317-.109,3.652,3.652,0,0,1-.768-.555,7.117,7.117,0,0,1-.957.9,2.123,2.123,0,0,1-.872.384,1.832,1.832,0,0,1-.817-.067,2.6,2.6,0,0,1-.908-.494c-.183-.158-.263-.274-.232-.335.061-.14.573.067,1.28.14a1.209,1.209,0,0,0,.975-.353c.336-.3.7-.774,1.122-1.244l.36-.4.4.384.226.219a3.586,3.586,0,0,0,.64.512.887.887,0,0,1,.122.049c.042.019.036,0,.061.019Z"/><path d="M80.648,40.751a1.141,1.141,0,0,1-.183,1.384c-.317.2-.842.006-1.183-.031-.445-.048-1.469-.225-1.469.427-.006.488.689.573.945.878a1.927,1.927,0,0,1,.365.677c.068.244.086.426.116.573a.929.929,0,0,0,.049.213l.037.116s.024.061.03.079a4.006,4.006,0,0,0,.183.366.716.716,0,0,0,.079.091l.012-.012a4.338,4.338,0,0,0,.525-1.036c.116-.274.2-.445.268-.427s.122.177.128.506a3.168,3.168,0,0,1-.055.585,2.26,2.26,0,0,1-.274.8.882.882,0,0,1-.22.244.628.628,0,0,1-.183.11.92.92,0,0,1-.256.054.988.988,0,0,1-.688-.39,2.966,2.966,0,0,1-.33-.487c-.024-.061-.03-.049-.079-.165l-.049-.122a4.035,4.035,0,0,0-.621-1.2,2.6,2.6,0,0,1-.58-1.183c-.28-1.17.226-1.694,1.329-1.786a1.269,1.269,0,0,1,.208.006c.481.067.859.567,1.31.549.11-.006.086-.524.067-.585a1.016,1.016,0,0,0-.189-.378c-.158-.2-.3-.293-.28-.366s.213-.1.524.061A1.152,1.152,0,0,1,80.648,40.751Z"/><path d="M73.832,33.283l-1.4.982c-.1.073-.207.14-.311.225a8.959,8.959,0,0,0-1.829,1.781,1.767,1.767,0,0,0-.353.841.726.726,0,0,0,.286.585l.256.25-.14.219a5.249,5.249,0,0,1-1.116,1.25c-.292.244-.475.36-.536.311s.03-.25.226-.579c.152-.268.414-.622.634-1.043a.973.973,0,0,1-.22-.249.891.891,0,0,1-.171-.336,1.04,1.04,0,0,1-.079-.378,2.461,2.461,0,0,1,.415-1.39A7.451,7.451,0,0,1,70.747,34.3a.61.61,0,0,1-.079-.024,1.105,1.105,0,0,1-.183-.116,1.092,1.092,0,0,1-.42-.963,1.985,1.985,0,0,1,.207-.774,6.749,6.749,0,0,1,1.384-1.8c.908-.859,1.512-1.28,1.6-1.2.122.092-.341.726-1.073,1.671a8.223,8.223,0,0,0-1.061,1.7.718.718,0,0,0-.054.566.02.02,0,0,1,.018.007.723.723,0,0,0,.079.012,1.9,1.9,0,0,0,.262,0c.2-.006.427-.043.713-.049Z"/><path d="M60.2,79.882c.049.6.049,1.012-.1,1.049s-.372-.281-.6-.866a8.189,8.189,0,0,1-.433-2.445c-.03-1.914.256-3.389.531-3.4.3,0,.469,1.542.5,3.359C60.14,78.48,60.177,79.291,60.2,79.882Z"/><path d="M45.942,83.058a.478.478,0,0,1,.189.768.619.619,0,0,1-.646.153c-.079-.049-.353-.342-.268-.61A.47.47,0,0,1,45.942,83.058Z"/><path d="M43.547,84.241c.475.262.768.7.658.957s-.664.219-1.219-.092c-.494-.329-.768-.792-.61-1.03S43.053,83.912,43.547,84.241Z"/><path d="M43.748,54.108c.091.091-.531.9-1.75,1.981a23.873,23.873,0,0,1-5.3,3.53,22.411,22.411,0,0,1-3.3,1.261,14.649,14.649,0,0,1-2.853.5c-1.671.116-2.646-.146-2.64-.262,0-.164,1.03-.164,2.548-.457a20.616,20.616,0,0,0,2.67-.689,29.182,29.182,0,0,0,3.127-1.28C40.6,56.589,43.534,53.87,43.748,54.108Z"/><path d="M40.627,86.185c.256.226.4.61.225.842s-.579.225-.933-.1c-.438-.451-.3-.811-.085-.963C40.072,85.8,40.468,86.057,40.627,86.185Z"/><path d="M37.225,88.2a.574.574,0,0,1,.219.707c-.1.269-.481.329-.835.116a.521.521,0,1,1,.616-.823Z"/><path d="M14.986,85.478c2.2,3.134,3.8,5.81,3.56,5.968s-2.194-2.231-4.377-5.34c-2.322-3.023-4.023-5.614-3.8-5.785S12.664,82.455,14.986,85.478Z"/></g><text x="0" y="143" fill="#000000" font-size="5px" font-weight="bold" font-family="'Helvetica Neue', Helvetica, Arial-Unicode, Arial, Sans-serif">Created by Hey Rabbit</text><text x="0" y="148" fill="#000000" font-size="5px" font-weight="bold" font-family="'Helvetica Neue', Helvetica, Arial-Unicode, Arial, Sans-serif">from the Noun Project</text></svg>