<svg xmlns="http://www.w3.org/2000/svg" viewBox="0 0 128 160" x="0px" y="0px"><g><path d="M123.892,42a1.222,1.222,0,0,1,.12.528c-.008,4.929-1.336,9.7-1.336,14.627-.008,2.28-.008,4.305-1.832,5.857-2.857,2.432-9.058,4.441-12.659,2.553-3.408,4.88-9.337,6.553-13.962,10.249-.568,2.417-.328,4.9-.928,7.322-.536,2.12-1.129,4.225-1.865,6.281a92.358,92.358,0,0,1-4.777,11.186c-2.784,5.417-6.753,11.882-13.266,12.962a1.2,1.2,0,0,1-.288.016,1.062,1.062,0,0,1-.752-.016c-7.77-2.824-15.347-5.961-22.292-10.522a101.6,101.6,0,0,1-11.57-9.177c-1.553,1.376-4.169,1.72-6.09,1.472-3.256-.424-5.209-4.721-6.777-7.129a1.182,1.182,0,0,1-.184-.5,20.517,20.517,0,0,0-4.777-1.041c-.024-.008-.048-.008-.072-.016-.016.008-.04.008-.064.016a3.257,3.257,0,0,1-3.216-1.432,3.3,3.3,0,0,1,0-3.088,3.737,3.737,0,0,1-.753-1.913c-4.8-2.752-8.945-5.449-12.138-10.17a1.259,1.259,0,0,1-.144-.3,1.168,1.168,0,0,1-.24-1.024C5.078,63.99,6.183,57.405,11.4,55.509c.08-.024.152-.04.216-.056,1.3-2.289,3.952-3.833,6.017-5.281,2.7-1.9,5.153-3.889,8.225-5.161a14.177,14.177,0,0,1,1.064-1.5v-.048c.28-2.184.657-4.352.937-6.537,0-.016.008-.024.008-.04a.818.818,0,0,1-.16-.176,1.209,1.209,0,0,1-.609-1.3c.625-3.337,2-6.481,2.585-9.818.52-2.968.936-5.929,1.688-8.85a1.055,1.055,0,0,1,.664-.776,1.2,1.2,0,0,1,.824-.44,192.032,192.032,0,0,1,27.39-.624c4.56.136,9.121.3,13.69.32,2.529.008,5.033-.472,7.337.752a1.21,1.21,0,0,1,.24,1.881c-3.576,4.192-5.088,8.921-5.905,14.186a2.824,2.824,0,0,1,.256.944v.008a5.793,5.793,0,0,1,2.049,2.033c6.145-5.185,16.347-7.217,23.74-4.721a1.169,1.169,0,0,1,.248.112c9.026-2.889,17.123,3.5,21.812,10.842A1.1,1.1,0,0,1,123.892,42Zm-2.28.528c0-.032.008-.064.008-.1-4.017-6.273-10.722-11.906-18.436-9.89a6.735,6.735,0,0,1,2.793,1.337c.688.672.96,1.2.832,1.312-.144.136-.648-.128-1.368-.52a11.751,11.751,0,0,0-3.049-.912c-1.264-.16-2.448-.184-3.312-.24-.888-.04-1.457-.136-1.473-.328-.016-.176.5-.417,1.377-.617a9.806,9.806,0,0,1,1.256-.184,24.614,24.614,0,0,0-20.012,3.865c5.593-.656,10.69,1.448,16.1,2.849a1.486,1.486,0,0,1,.36.16c4.6,1.488,9.554,2.3,11.826,7.193a17.091,17.091,0,0,1,.961,2.624,20.256,20.256,0,0,0-.656-3.432,16.021,16.021,0,0,0-.561-1.512c-.1-.232-.192-.465-.3-.673s-.224-.408-.328-.6c-.848-1.5-1.64-2.3-1.5-2.472.088-.12,1.152.44,2.3,1.952q.216.288.433.6c.144.224.264.456.4.7A13.173,13.173,0,0,1,110,45.259a17.117,17.117,0,0,1,.848,3.936,21.189,21.189,0,0,1-.08,4,19.561,19.561,0,0,1-.672,3.177c-.016.048-.024.08-.04.128-.128,1.992-.36,4.057-.448,6.3a1.218,1.218,0,0,1-.224.664c0,.008-.008.016-.008.024,1.92.944,4.744.088,6.6-.616,2.376-.9,4.289-1.728,4.289-4.633C120.276,52.94,121.6,47.811,121.612,42.53ZM107.225,62.47c.224-4.153,1.657-8.738.1-12.738-2.3-5.938-6.393-6.546-11.778-8.37-.072-.024-.136-.112-.2-.144-5.161-1.376-10.258-3.489-15.7-2.688-.1,0-.208.16-.32.152-.088,0-.168.1-.256.088a1.433,1.433,0,0,1-.472.544,2,2,0,0,1-.728.288c-.08.008-.112.016-.192.024a1.532,1.532,0,0,1,.048.552,1.511,1.511,0,0,1-.4.824,1.744,1.744,0,0,1-.24.224l-.1.088-.024.016c-.016.016-.1.072-.1.072l-.1.048a2.279,2.279,0,0,1-.753.24,4.536,4.536,0,0,1-1.16-.048,3,3,0,0,1-.92.928l-.1.048c-.032.032-.072.064-.12.1a2.109,2.109,0,0,1-.584.344,3.559,3.559,0,0,1-1.192.264h-.12a1.194,1.194,0,0,1-.312.753A6.806,6.806,0,0,1,65.7,46.2a1.693,1.693,0,0,1-.072.248c-1.409,3.481-5.505,1.952-6.722-.784a3.074,3.074,0,0,1-3.968.088c-1.721-1.456-.609-3.625.392-5.129a10.294,10.294,0,0,1-2.4-4.769c-5.385-1.12-10.25.544-15.051,2.977-3.72,1.888-8.057,4.008-10.177,7.769a1.085,1.085,0,0,1-.929.584,1.467,1.467,0,0,1-.192.1c-2.9,1.176-5.2,3.185-7.729,4.953-1.9,1.328-4.425,2.7-5.425,4.9a.964.964,0,0,1-1.168.584,1.765,1.765,0,0,1-.216.1c-3.913,1.424-4.8,7.265-5.577,11.01l.032.032a25.347,25.347,0,0,0,7.921,7.305v-.04a1.574,1.574,0,0,1,.376-.864,2.873,2.873,0,0,1,1.272-.808,9.984,9.984,0,0,1,2.433-.44c.768-.048,1.5-.048,2.2-.032.36.008.7.032,1.048.048-.232-.128-.456-.256-.688-.392a6.165,6.165,0,0,1-.552-.416,3.04,3.04,0,0,1-.512-.608,2.215,2.215,0,0,1-.416-1.48c.008-.04.016-.072.024-.112a.981.981,0,0,1,.008-.265,2.465,2.465,0,0,1,.072-.384,2.206,2.206,0,0,1,.112-.272,2.162,2.162,0,0,1,1.008-.984,2.971,2.971,0,0,1,2.017-.224c-.272-1.128-.52-2.272-.705-3.441-.056-.384-.112-.776-.16-1.16-.416-.376-.8-.768-1.176-1.112-.184-.152-.368-.3-.544-.456-.208-.136-.408-.264-.608-.392-.392-.256-.768-.512-1.152-.72-.384-.224-.744-.44-1.08-.64l-.945-.52c-1.176-.649-1.936-1.065-1.856-1.257.064-.152.9-.064,2.217.376.328.12.688.256,1.072.4.376.161.768.345,1.184.545a10.662,10.662,0,0,1,1.272.7c.216.128.432.264.656.4l.04.024.08.064.08.056.144.128.3.24c.048.048.08.08.128.12a22.8,22.8,0,0,1,.28-5.809A11.459,11.459,0,0,1,23.706,52.2a7.824,7.824,0,0,1,1.576-1.712,5.852,5.852,0,0,1,.824-.576,2.7,2.7,0,0,1-.112-.584,1.969,1.969,0,0,1,.192-.841,2.808,2.808,0,0,1,.784-.976,7.531,7.531,0,0,1,.761-.544c.456-.264.9-.536,1.344-.8a14.446,14.446,0,0,1,1.432-.776,8.911,8.911,0,0,1,3.161-.832c.52-.048,1.008-.04,1.5-.056.232.008.464.008.688.008l.376.008.336.016a64.547,64.547,0,0,1,7.386.528,20.76,20.76,0,0,1,.008-2.641,4.407,4.407,0,0,1,.784-2.256,2.293,2.293,0,0,1,1.056-.9c.28-.088.44-.056.528.056.208.24-.048.576-.3,1.424a5.781,5.781,0,0,0-.184,1.76c-.008.744.12,2.1.16,2.945.016,0,.04.008.056.008a14.44,14.44,0,0,1,4.289,1.616,12.2,12.2,0,0,1,2.568,1.28,4.958,4.958,0,0,1,1.528,1.593,3.1,3.1,0,0,1,.064,2.856,5.876,5.876,0,0,1-.9,1.184,2.269,2.269,0,0,0-.56.905c-.056.208-.112.432-.16.648-.064.264-.152.544-.24.824a4.3,4.3,0,0,1-1.056,1.616,12.637,12.637,0,0,0-1.1,1.216c-.152.216-.336.416-.472.64s-.256.465-.384.7a2,2,0,0,0-.072.2,3.954,3.954,0,0,1,.56-.536,3.75,3.75,0,0,1,3.6-.593c.168.072.288.1.5.208l.368.224c.241.153.473.313.705.473a7.159,7.159,0,0,1,1.24,1.112,2.24,2.24,0,0,1,.44,2.736,2.053,2.053,0,0,1-.224.3,1.724,1.724,0,0,1-1.968.568.93.93,0,0,1-.449-.312c-.08-.088-.1-.152-.08-.192.056-.1.3-.008.641-.008a1.205,1.205,0,0,0,1.1-.632,1.8,1.8,0,0,0,.1-.168.522.522,0,0,1,.04-.16c.056-.024.024-.456.032-.472a1.758,1.758,0,0,0-.536-.816,7.784,7.784,0,0,0-1.089-.864c-.208-.144-.424-.28-.648-.416l-.344-.2-.28-.1a2.7,2.7,0,0,0-2.416.32,2.031,2.031,0,0,0-1.016,1.624c.08,1.072,1.32,1.432,1.16,1.632-.04.08-.288.08-.7-.008a2.568,2.568,0,0,1-.76-.424,4.124,4.124,0,0,0,.248.584c.064.144.128.288.2.432l.272.424.624.985a4.635,4.635,0,0,1,.52,1.368,3.651,3.651,0,0,1-.064,1.632,4.032,4.032,0,0,1-.784,1.408,8.086,8.086,0,0,1-2.289,1.745c-.2.112-.416.216-.632.32l-.232.12-.192.112a8.8,8.8,0,0,0-.88.784,9.042,9.042,0,0,1-1.16,1.008,3.5,3.5,0,0,1-.864.448,2.834,2.834,0,0,1-1.081.136,3.744,3.744,0,0,1-1.832-.632A11.087,11.087,0,0,1,40.133,73.9a6.37,6.37,0,0,0-1.1-.856c.008.1.016.2.024.3.024.312,0,.64-.008.968l-.016.5c-.016.176-.056.368-.088.552a4.833,4.833,0,0,1-.248,1.049l-.1.256a5.574,5.574,0,0,0,.56.04c.264-.016.528-.008.832-.024.608-.048,1.3-.152,2.16-.2a8.865,8.865,0,0,1,1.384,0,5.356,5.356,0,0,1,.769.136,6.914,6.914,0,0,1,.752.184,4.038,4.038,0,0,0,.544.144c.056,0,.072.008.088-.008a.713.713,0,0,0,.08-.04,1.385,1.385,0,0,0,.176-.12,1.358,1.358,0,0,0,.232-.184l.12-.1.016-.016.072-.072.272-.281.2-.24c.832-.992,1.976-.512,3.017-.88l.32-.1a12.965,12.965,0,0,0,2.928-1.4c.48-.3.984-.656,1.392-.952l.345-.28c.064-.072.1-.12.16-.176a2.834,2.834,0,0,0,.336-.5,23.194,23.194,0,0,0,.888-3.041,4.5,4.5,0,0,1,1.024-1.72l.048-.04.016-.024a1.141,1.141,0,0,1,.112-.1l.08-.056.152-.112a2.363,2.363,0,0,1,.36-.232c.152-.088.312-.176.448-.24l.376-.152a4.041,4.041,0,0,0,1.873-1.017c.128-.16.248-.312.368-.464.088-.136.176-.272.264-.4a7.938,7.938,0,0,0,.432-.808,8.091,8.091,0,0,0,.5-1.432c.192-.824.2-1.328.376-1.368.128-.032.44.448.52,1.432a6.153,6.153,0,0,1-.176,1.776,6.323,6.323,0,0,1-.36,1.08c-.088.184-.176.392-.272.584-.1.168-.2.337-.3.513a5.915,5.915,0,0,1-.5.632,4.917,4.917,0,0,1-.64.52,11.93,11.93,0,0,1-1.321.7l-.28.144-.192.12a1.052,1.052,0,0,0-.24.184l-.136.112a.219.219,0,0,1-.032.04,2.589,2.589,0,0,0-.48.976c-.2.64-.248,1.5-.536,2.465a4.179,4.179,0,0,0,2.961.24c.048-.016.1-.024.144-.04-.016-.824.112-1.321.376-1.4.3-.1.752.457,1.2,1.353a7.827,7.827,0,0,0,.776,1.3l.24.288c.088.08.176.16.256.24.064.08.272.216.4.328l.216.176.16.12a8.175,8.175,0,0,0,.736.472c.208.1.3.12.3.144,0,.008.016.016.032.008.1-.112.208-.232.3-.344l.072-.088.016-.016.008-.008v-.008h.008a.035.035,0,0,1,.008-.024l.144-.2c.1-.136.192-.272.288-.4.152-.24.3-.464.432-.688.128-.248.256-.48.376-.712.1-.232.216-.464.312-.68.736-1.8,1.16-3.065,1.5-2.993.28.056.448,1.336.056,3.473a12.543,12.543,0,0,1-.52,1.728c-.144.312-.3.656-.456.96-.072.136-.152.28-.24.424l-.12.216-.032.056-.072.1-.072.112c-.408.617-.864,1.177-1.28,1.737a10.029,10.029,0,0,0-1.065,1.656,8.3,8.3,0,0,0-.768,3.729,4.906,4.906,0,0,0,1.032,2.744c.065.072.129.136.185.208a7.521,7.521,0,0,1,2.864,2.513,5.657,5.657,0,0,1,.3.568,4.475,4.475,0,0,1,.12.464c.056.248.04.392-.032.424s-.2-.048-.376-.216a3.662,3.662,0,0,1-.288-.3c-.12-.1-.256-.232-.416-.376a8.067,8.067,0,0,0-1.64-1.08,6.542,6.542,0,0,1-.953-.44c-.152-.064-.288-.128-.456-.192-.344-.129-.728-.273-1.152-.409l-.32-.112-.28-.088a3.581,3.581,0,0,0-.592-.16,9.357,9.357,0,0,0-2.7-.208c-.992.04-2.072.176-3.272.256a11.947,11.947,0,0,1-3.881-.32,7.91,7.91,0,0,1-1.008-.344l-.5-.216c-.168-.072-.272-.144-.408-.216l-.392-.216-.216-.128-.2-.12c-.264-.16-.528-.328-.769-.5-.984-.664-1.872-1.344-2.712-1.984a43.005,43.005,0,0,0-4.473-3.129A13.469,13.469,0,0,0,38.6,77.921,4.422,4.422,0,0,0,38,77.753a5.3,5.3,0,0,1-1.584,1.28,11.457,11.457,0,0,1-4.249,1.144l-.256.016-.064.008h-.12l-.168-.008c-.216-.016-.44-.008-.656-.04l-.64-.136c-.216-.056-.416-.144-.616-.216a7.375,7.375,0,0,1-2.088-1.368,12.689,12.689,0,0,1-2.049-2.561c-.168-.088-.344-.176-.528-.272a6.891,6.891,0,0,0-.752-.24c-.24-.048-.52-.064-.8-.1-.12-.016-.24-.024-.368-.04H22.61c-.609-.008-1.249-.008-1.921.008a15.542,15.542,0,0,0-4.177.5,1.873,1.873,0,0,0-.7.392.371.371,0,0,0-.08.16.7.7,0,0,0,.024.217,1.633,1.633,0,0,0,.1.224l.016.048c0,.008,0,.008.008.008a.028.028,0,0,0,.008.016l.048.048c.032.088.12.128.184.184a1.658,1.658,0,0,0,.729.168c.56.032,1.312-.072,1.92-.016.616.032,1.192.064,1.72.1,2.073.208,3.313.544,3.313.712-.008.088-.232.136-.632.168a6.579,6.579,0,0,1-1.329.336,13.774,13.774,0,0,0-1.576.368,2.26,2.26,0,0,0-.68.352.744.744,0,0,0-.168.2c.016-.04-.152.352-.12.368.008.032-.048.064.144.192a2.411,2.411,0,0,0,.72.288,15.752,15.752,0,0,0,1.6.28,3.62,3.62,0,0,1,1.561.384c.048.016.1.032.144.048.208.112.3.232.288.32s-.16.144-.376.2c-.2.048-.48.112-.832.2a7.591,7.591,0,0,0-2.441,1.041,2.166,2.166,0,0,0-.432.416.425.425,0,0,0-.1.232c-.008.152.288.472.568.656q.18.132.336.24h.032a.217.217,0,0,1,.072,0,.172.172,0,0,1,.064,0h.056a.2.2,0,0,0,.064.008c4.265.328,8.042,2.824,12.371,2.528a2.992,2.992,0,0,1-.761-.672c-.592-.752-.52-1.248-.392-1.336.16-.112.52.336,1.041.632a9.408,9.408,0,0,0,2.5.944,7.7,7.7,0,0,1,2.816,1.257c.665.536.841,1.072.7,1.168-.152.128-.552-.112-1.193-.352s-1.568-.464-2.7-.776q1.788,1.608,3.585,3.232a1.121,1.121,0,0,1,.832.752A85.785,85.785,0,0,0,52.5,101.733a114.567,114.567,0,0,0,20.388,9.482c6.921-1.248,10.754-9.45,13.338-15.251a77.674,77.674,0,0,0,4.1-10.986c.792-2.888.824-5.8,1.352-8.69-.024-.176-.048-.352-.08-.528-.608-4.152-.328-7.465.008-7.489.352-.032.648,2.464,1.105,5.7C97.631,70.143,104.345,68.431,107.225,62.47ZM78.676,17.606a32.211,32.211,0,0,0-4.737.016c-1.432-.016-2.864-.048-4.3-.072-.688,2.416-2.024,4.657-2.392,7.153a10.613,10.613,0,0,1,6.641,3.745A28.2,28.2,0,0,1,78.676,17.606ZM76.644,37.377c.1-.5-.969-.936-1.249-1.184-.352-.3-.688-.616-1.048-.912A10.55,10.55,0,0,0,72.8,34.017c-.2-.1-.4-.208-.592-.328-.376-.224-.728-.472-1.064-.713a8.584,8.584,0,0,1-1.569-1.5c-.808-1.016-.952-1.752-.816-1.84.176-.12.656.5,1.5,1.176a14.251,14.251,0,0,0,1.6,1.144c.32.192.648.4,1.008.584a2.411,2.411,0,0,0,.248.128c.008-.1.024-.2.04-.3-1.36-5.057-6.7-5.921-11.29-5.441A.959.959,0,0,1,60.9,26.5c-.064-.04-.12-.08-.184-.128-3.169-2.7-5.161-6.569-8.554-9.009a1.212,1.212,0,0,1-.248-.248c-3.985-.032-7.969.016-11.938.232,3.937,5.473,7.945,11.85,13.834,15.218a3.747,3.747,0,0,1-.04-.888,1.386,1.386,0,0,1,.168-.656c.08-.144.168-.232.264-.232s.184.08.264.232.144.376.257.584c.16.408.44,1.08.688,1.777.536,1.44,1,2.568.72,2.808-.112.1-.376-.008-.688-.288,1.336,4.745,9.489,9.938,13.586,7.169-.168-.048-.328-.1-.48-.152-.176-.056-.344-.112-.512-.168-.152-.064-.288-.152-.424-.224a.348.348,0,0,0-.056-.032c-2.5-.912-3.921-2.32-3.689-2.52.056-.08.272-.008.624.136.344.128.824.32,1.433.56a14.127,14.127,0,0,0,6.449,1.16c.328-.04.688-.088.688-.488,0-.424-.648-.528-.984-.712L72,40.586a12.851,12.851,0,0,1-3.785-1.76,5.2,5.2,0,0,1-1.256-1.177c-.248-.344-.256-.568-.2-.624.08-.072.272.1.584.272.28.168.768.424,1.352.7a20.6,20.6,0,0,0,2.873,1.089c.552.168,1.112.272,1.672.408a4.094,4.094,0,0,0,1.7.352c1.112-.208.352-1.016-.168-1.368-.08-.057-.16-.1-.24-.153a26.786,26.786,0,0,1-2.664-1.264,19.422,19.422,0,0,1-2.225-1.3c-1.192-.832-1.88-1.432-1.784-1.592s.952.144,2.264.76c.648.336,1.441.624,2.289,1.008a33.955,33.955,0,0,0,3.512,1.52C76.219,37.561,76.564,37.745,76.644,37.377ZM64.881,24.439c.408-2.433,1.521-4.609,2.265-6.945-3.833-.1-7.666-.24-11.5-.32h-.1C57.88,19.51,59.72,22.3,62.217,24.5A19.753,19.753,0,0,1,64.881,24.439Zm-.832,52.25a6.145,6.145,0,0,1-.936-.553l-.128-.1-.064-.048-.1-.08-.216-.184a4.837,4.837,0,0,1-.432-.408c-.16-.176-.32-.36-.464-.544-.12-.184-.224-.368-.328-.552-.008-.008-.008-.016-.016-.024-.016.008-.024.016-.04.024-1.609.632-3.225.1-4.777-.44-.088.088-.168.184-.248.264l-.352.288c-.552.424-1.04.76-1.609,1.12a13.76,13.76,0,0,1-3.552,1.625l-.52.128L50,77.265l-.208.032-.424.048-.1.008-.169.016-.224.008-.424.024h-.08l-.24.248-.3.272-.072.064-.04.032-.072.064-.008.008-.024.016-.184.136a3.327,3.327,0,0,1-.392.264,2.519,2.519,0,0,1-.488.248,2.176,2.176,0,0,1-.3.1,2.683,2.683,0,0,1-.352.056,2.448,2.448,0,0,1-.648-.032,4.545,4.545,0,0,1-.776-.264,1.142,1.142,0,0,1-.064.176c1.024.56,2.072,1.224,3.16,1.968.88.592,1.785,1.225,2.713,1.817.232.152.472.288.7.432l.176.1.168.1.384.208c.128.064.272.152.384.2l.328.12a5.06,5.06,0,0,0,.72.24c2.017.568,4.273.136,6.513.16a10.654,10.654,0,0,1,3.017.432,5.7,5.7,0,0,1-.376-1.408,8.954,8.954,0,0,1,.744-4.849A8.83,8.83,0,0,1,64.049,76.689Zm-.744-30.878a.042.042,0,0,0,.016-.032,14.672,14.672,0,0,1-2.048-.744,2.184,2.184,0,0,0,.712.744C62.385,46.035,63.057,46.435,63.305,45.811Zm-5.217-2.649c-.36-.264-.7-.544-1.04-.832-.368.528-.824,1.256-.608,1.561C56.856,44.483,57.664,43.7,58.088,43.162Zm-4.633,8.162a1.552,1.552,0,0,0-.04-.392c-.264-1.272-2.144-2.377-3.224-2.889a15.393,15.393,0,0,0-4.377-1.192,63.207,63.207,0,0,0-9.29-.32h-.336l-.32-.088c-.224.008-.456-.032-.688-.032-.448.032-.9.016-1.328.072a6.816,6.816,0,0,0-2.473.72,11.986,11.986,0,0,0-1.224.7c-.432.272-.872.544-1.312.816a3.5,3.5,0,0,0-.7.569c.016.024.04.048.048.064l.176.176,1.176,1.16-1.488.632a5.551,5.551,0,0,0-2.521,2.112,9.385,9.385,0,0,0-1.28,3.433,25.272,25.272,0,0,0,.128,8.233,42.228,42.228,0,0,0,.936,4.433,21.317,21.317,0,0,0,1.456,4.041C28,76.024,29.891,78.3,32.019,78.057a9.748,9.748,0,0,0,3.457-.824,2.891,2.891,0,0,0,1.1-.872l.08-.121.016-.032.032-.072.176-.44a2.685,2.685,0,0,0,.192-.744c.016-.112.048-.216.064-.344l.024-.408a4.613,4.613,0,0,0,.032-.816c0-.272-.008-.552-.016-.816-.032-.28-.056-.544-.08-.816a19.472,19.472,0,0,0-.616-3.057l-.248-.84.768-.2a1.957,1.957,0,0,0,1.192-1.76,9.264,9.264,0,0,0-.008-2.577,24.7,24.7,0,0,0-.984-4.249c-.736-2.312-1.432-3.448-1.336-3.536.136-.136,1.168.92,2.184,3.208a20.363,20.363,0,0,1,1.425,4.369,9.93,9.93,0,0,1,.192,2.985,4.626,4.626,0,0,1-.512,1.744,3.047,3.047,0,0,1-.913.992,18.252,18.252,0,0,1,.481,1.936,4.068,4.068,0,0,1,1.456.561,10.134,10.134,0,0,1,1.32,1.04c.744.68,1.352,1.152,1.848,1.144a.774.774,0,0,0,.32-.032,1.492,1.492,0,0,0,.369-.192,8.07,8.07,0,0,0,.9-.792,9.534,9.534,0,0,1,1.128-.976c.12-.08.248-.16.376-.232l.36-.176c.176-.088.344-.168.52-.265a5.955,5.955,0,0,0,1.728-1.256,1.577,1.577,0,0,0,.441-1.4,2.766,2.766,0,0,0-.3-.784L48.95,67l-.32-.512-.312-.512c-.1-.176-.176-.368-.256-.553a5.635,5.635,0,0,1-.424-1.128,6.3,6.3,0,0,1,.376-4.513c.176-.312.352-.616.52-.912.192-.28.416-.528.616-.784a13.8,13.8,0,0,1,1.233-1.28,2.655,2.655,0,0,0,.728-1.016,5.464,5.464,0,0,0,.216-.64c.072-.264.152-.521.224-.769a3.9,3.9,0,0,1,.952-1.424,4.336,4.336,0,0,0,.728-.824A1.879,1.879,0,0,0,53.455,51.324ZM38.581,35.841a25.294,25.294,0,0,1,11.7-2.72,35.723,35.723,0,0,1-6.457-6.458c-.481-.184-.993-.384-1.521-.608a9.127,9.127,0,0,1-3.864-2.736,4.1,4.1,0,0,1-.681-1.289c-.1-.328-.112-.52-.032-.568s.248.056.48.3c.233.264.561.561.937.921a12.22,12.22,0,0,0,3.032,1.84c-1.712-2.3-3.328-4.681-4.953-6.889-.024-.032-.032-.064-.056-.1q-1.752.132-3.5.312c0,.04-.008.064-.008.1-.016.376-.056.9-.072,1.56-.032,1.32.008,3.153.144,5.177a39.418,39.418,0,0,0,.656,5.105c.072.312.144.6.208.848.072.224.128.416.176.6.168.344.24.56.16.624s-.272-.048-.568-.3a6.662,6.662,0,0,1-.464-.624c-.128-.248-.288-.536-.424-.864a17.9,17.9,0,0,1-1.089-5.3c-.008-.1-.016-.2-.016-.3-.184,1.008-.392,2.008-.656,2.992-.688,2.569-1.536,5.089-2.1,7.69,1.648,1.008,3.633,2.208,5.585,2.024a1.154,1.154,0,0,1,.448.048C36.636,36.745,37.628,36.281,38.581,35.841ZM36.74,92.307c-1.152-1.04-2.3-2.08-3.472-3.112-.024,0-.048.008-.072.008a13.453,13.453,0,0,1-4.481-.5c.9,1.552,1.912,3.2,3.344,3.977A5.727,5.727,0,0,0,36.74,92.307ZM32.171,39.138a14.727,14.727,0,0,1-2.1-.937c-.12.881-.24,1.761-.376,2.641A28.173,28.173,0,0,1,32.171,39.138ZM24.2,73.864l.312.168c-.248-.536-.488-1.08-.7-1.64-.224-.632-.408-1.248-.584-1.873-.1-.08-.208-.16-.32-.248,0,0-.136-.056-.2-.08a1.755,1.755,0,0,0-.657-.056,1.366,1.366,0,0,0-1.032.512c-.016,0-.048.136-.072.184a.514.514,0,0,1-.008.1c-.032.08,0,.12,0,.176a1.063,1.063,0,0,0,.368.424c.192.168.432.32.712.528.145.1.249.192.361.288s.24.192.352.288C23.274,73.056,23.754,73.48,24.2,73.864Z"/><path d="M81.973,48.627c.136-.016.344.5.008,1.273a6.557,6.557,0,0,1-2.169,2.456,25.788,25.788,0,0,1-3.961,2.369c-.76.384-1.568.768-2.392,1.16-.808.384-1.712.792-2.392,1.2a9,9,0,0,0-3.361,3.441A12.517,12.517,0,0,0,66.53,64.47c-.36,2.441-.52,4.065-.864,4.065-.289,0-.7-1.536-.761-4.193a11.728,11.728,0,0,1,.889-4.729,9.338,9.338,0,0,1,1.632-2.488,11.5,11.5,0,0,1,2.408-1.976,22.082,22.082,0,0,1,2.7-1.313c.848-.36,1.656-.7,2.432-1.032,1.537-.64,2.889-1.24,3.969-1.816a9.576,9.576,0,0,0,2.288-1.56C81.676,48.987,81.789,48.627,81.973,48.627Z"/><path d="M79.2,101.341c.16.064.056.912-.376,2.225a10.156,10.156,0,0,1-.408,1.064c-.088.192-.176.392-.264.592-.1.2-.224.4-.344.608a3.375,3.375,0,0,1-.44.616,2.841,2.841,0,0,1-.568.6c-.112.1-.216.192-.336.28l-.4.224a3.355,3.355,0,0,1-.872.32,9.115,9.115,0,0,1-3.112-.1c-.88-.152-1.665-.28-2.329-.392-1.3-.224-2.168-.36-2.152-.568.008-.168.824-.368,2.216-.384.7-.008,1.513.032,2.409.1a10.386,10.386,0,0,0,2.68.024,3.21,3.21,0,0,0,1.865-1.416c.12-.168.24-.336.352-.5.1-.176.2-.352.3-.512.208-.32.376-.648.536-.945C78.6,102.013,79.012,101.269,79.2,101.341Z"/><path d="M62.841,55.5c.032,1.712-.36,2.952-.712,2.968-.392,0-.608-1.384-.64-2.9-.04-.76-.1-1.417-.136-1.857-.08-.5-.136-.9.048-.976.16-.072.48.088.808.56A4.609,4.609,0,0,1,62.841,55.5Z"/><path d="M52.239,62.51s-.008,0-.016.016a.99.99,0,0,0,0,.312,4.766,4.766,0,0,0,.224.808c.16.5.28.8.184.952-.1.168-.552.032-.992-.44a2.937,2.937,0,0,1-.616-.992,1.942,1.942,0,0,1-.1-.848,1.448,1.448,0,0,1,.2-.552,1.6,1.6,0,0,1,.216-.248l.008-.016.008-.008.008-.008.088-.064.016-.008.032-.024.072-.04a.835.835,0,0,1,.128-.064,1.8,1.8,0,0,1,.192-.064,1.272,1.272,0,0,1,.312-.04,1.607,1.607,0,0,1,.5.064,2.367,2.367,0,0,1,.7.36,2.654,2.654,0,0,1,.776.9,1.469,1.469,0,0,1,.184.816c-.032.216-.144.32-.232.312-.192-.048-.32-.256-.712-.544a4.253,4.253,0,0,0-.688-.44,1.639,1.639,0,0,0-.36-.128c-.048,0-.1-.016-.12,0l.008-.008a.061.061,0,0,0,.032-.016c.024-.016.016-.024-.016,0A.06.06,0,0,1,52.239,62.51Z"/><path d="M31.019,72.544c.776.728,1.192,1.224,1.1,1.328s-.632-.184-1.552-.752a5.55,5.55,0,0,1-1.552-1.352,3.736,3.736,0,0,1-.632-1.665,1.1,1.1,0,0,1-.752-.144,1.6,1.6,0,0,1-.585-.72,3.491,3.491,0,0,1-.208-.664,11.656,11.656,0,0,1-.208-2.52c0-.5.016-.977.04-1.449.008-.128.016-.248.024-.376a1.448,1.448,0,0,1-.184-.024,1.073,1.073,0,0,1-.456-.232,1.412,1.412,0,0,1-.248-.312,2.037,2.037,0,0,1-.2-.536,5.982,5.982,0,0,1-.08-1.656,15.263,15.263,0,0,1,.416-2.529,8.661,8.661,0,0,1,.552-1.592c.176-.36.368-.536.424-.48s.032.232,0,.608-.088.92-.16,1.608c-.056.68-.12,1.505-.112,2.417a5.675,5.675,0,0,0,.152,1.312.755.755,0,0,0,.024.072c.04-.032.088-.064.136-.1l.977-.808.1,1.216c.024.248.008.3.016.44l-.016.344c-.008.224-.016.456-.024.688-.016.464-.024.929-.024,1.4a12.22,12.22,0,0,0,.144,2.232,2.4,2.4,0,0,0,.112.432c.024.032.04.08.056.1a1.67,1.67,0,0,0,.216-.144l1.136-.9-.12,1.4a3.545,3.545,0,0,0,.336,2.033A6.316,6.316,0,0,0,31.019,72.544Z"/></g><text x="0" y="143" fill="#000000" font-size="5px" font-weight="bold" font-family="'Helvetica Neue', Helvetica, Arial-Unicode, Arial, Sans-serif">Created by Hey Rabbit</text><text x="0" y="148" fill="#000000" font-size="5px" font-weight="bold" font-family="'Helvetica Neue', Helvetica, Arial-Unicode, Arial, Sans-serif">from the Noun Project</text></svg>