<svg xmlns="http://www.w3.org/2000/svg" viewBox="0 0 128 160" x="0px" y="0px"><g><path d="M113.164,71.242a29.145,29.145,0,0,1-.14,6.157c2.46,1.055,6.38,2.976,7.966-.014A9.653,9.653,0,0,0,121.836,72a15.179,15.179,0,0,0-1.636-6.3c-1.5-2.509-5.786-5.514-7.952-2.991a5.03,5.03,0,0,1,1.125.112,8.135,8.135,0,0,1,2.914,1.355,9.2,9.2,0,0,1,1.873,1.775A4.6,4.6,0,0,1,119,67.49c.112.433.056.65-.014.671-.16.013-.447-.748-1.446-1.657a11.682,11.682,0,0,0-1.859-1.432,8.262,8.262,0,0,0-2.557-1.1,2.974,2.974,0,0,0-1.615.035c0,.014-.007.021-.014.035a10.149,10.149,0,0,1,2.872,1.383,11.363,11.363,0,0,1,1.188.916,11.713,11.713,0,0,1,.937.887c1.083,1.132,1.544,1.964,1.446,2.041-.126.1-.782-.545-1.956-1.482a16.262,16.262,0,0,0-3.369-2.131.634.634,0,0,1,.077.112c.385.608.762,1.209,1.125,1.782.4.552.783,1.09,1.153,1.6.72,1.027,1.37,1.956,1.915,2.732,1.1,1.565,1.7,2.586,1.579,2.69s-.978-.74-2.236-2.18c-.636-.706-1.355-1.6-2.138-2.6-.077-.1-.161-.21-.238-.308.147.461.3.944.455,1.44.258.992.384,1.872.559,2.669a12.885,12.885,0,0,0,.566,2.027,3.64,3.64,0,0,0,.677,1.132,2.538,2.538,0,0,0,.287.272c.07.07.105.126.084.168s-.077.056-.175.049a.765.765,0,0,1-.426-.1,2.7,2.7,0,0,1-1.188-1.146A17.492,17.492,0,0,1,113.164,71.242ZM61.355,66.183c.007,0,.021.028.021.028l.049.084a1.957,1.957,0,0,0,.231.286c.167.161.272.189.363.161.79-.14.985-1.551.315-2.928-.154-.356-.322-.7-.49-1.062s-.356-.741-.489-1.09c-.3-.734-.594-1.349-.859-1.992-.245-.636-.594-1.2-.853-1.761s-.538-1.069-.775-1.544c-.965-1.9-1.44-3.138-1.279-3.228s.964.971,2.145,2.732c.294.44.615.922.936,1.474a20.249,20.249,0,0,1,1,1.761c.286.594.615,1.251.894,1.887.245.391.5.811.783,1.272.342.58,1.188,3.025,1.768,2.879,2.872-.727-3.082-10.217-3.711-11.523-1.908-3.962-3.843-7.939-6.093-11.726-3.683-6.219-6.967-12.3-8.54-19.384-1.425,0-3.675,0-5.555-.042a11.789,11.789,0,0,0-4.235.328c.909,8.4,5.877,15.625,7.974,23.724,1.069,4.137,1.921,8.686,4.409,12.257,1.3,1.866,3.99,6.2,6.785,6.065a2.746,2.746,0,0,0-.538-1.258l-.154-.314-.076-.154-.021-.028-.049-.077c-.126-.188-.245-.377-.371-.566-.237-.377-.475-.74-.7-1.1-.448-.712-.86-1.369-1.244-1.977-1.5-2.432-2.341-3.983-2.181-4.095s1.307,1.258,3.019,3.543c.42.573.888,1.2,1.384,1.879.244.343.5.692.762,1.056.125.181.258.37.391.552l.049.07.028.041.014.014.035.063.083.147.175.308a12.476,12.476,0,0,1,.664,1.369,8.476,8.476,0,0,0,.643,1.23,2.72,2.72,0,0,1,.161.259,1.46,1.46,0,0,0,.2.209,2.806,2.806,0,0,0,.517.371,1.05,1.05,0,0,0,.783.2l.063-.1c.014-.021.049-.062.042-.076l-.014-.014c-.007-.014-.007-.014,0-.021l.007-.245-.035-.314a7.374,7.374,0,0,0-.419-1.335,23.8,23.8,0,0,0-1.293-2.558c-.971-1.649-1.733-3.144-2.411-4.409-1.314-2.537-2.047-4.151-1.873-4.242s1.2,1.342,2.747,3.746c.754,1.209,1.656,2.641,2.655,4.234a22.021,22.021,0,0,1,1.453,2.684,8.363,8.363,0,0,1,.525,1.642c.014.105.027.217.041.328a.153.153,0,0,1,.021.035l.105.21Zm62.269,3.4c.469,2.956.9,7.114-1.32,9.553-2.767,3.039-6.394,1.628-9.672.328a15.388,15.388,0,0,1-8.993,10.852c-5.632,2.586-12.487,2.7-18.546,2.25-4.961-.37-10.489-.126-15.045-2.376a1.02,1.02,0,0,1-.44.594c-3.11,2.02-6.764,1.908-10.314,1.538a1,1,0,0,1-.294-.07c-7.484,2.655-14.779,5.814-22.27,8.441-7.659,2.691-15.555,4.444-23.4,6.5a1,1,0,0,1-.475.021,1.022,1.022,0,0,1-.154.021c-2.068.028-3.046-1.16-4.612-2.215-.552-.371-1.09-.5-1.383-1.146-.412-.9.014-2.027.189-2.921a23.362,23.362,0,0,1,1.726-4.78,66.6,66.6,0,0,1,5.038-9.392,116.543,116.543,0,0,1,8.553-12.5,9.974,9.974,0,0,1-1.922-2.159c-2.243,1.23-5.877,1.146-7.435-.909-2.4.986-4.842-.105-7.211-1.083a1.061,1.061,0,0,1-.357-.23.932.932,0,0,1-1.285-.951c.461-5.325,2.159-10.328,3.438-15.478,1.013-4.074,1.984-8.386,5.709-10.866,7.323-4.878,16.834-6.981,25.554-6.869-.069-.161-.132-.322-.2-.476A42.208,42.208,0,0,1,34.836,22.39v-.049a.808.808,0,0,1,.405-1.146c3.445-1.663,8.33-.783,11.824-.783.049,0,.091.007.133.007a.944.944,0,0,1,1.4.643c1.223,6.156,3.907,11.544,6.841,16.855a1.031,1.031,0,0,1,.2.056c4.976,2.047,9.574,6.086,11.174,11.348,3.137-.175,6.268-.412,9.405-.307.007-.21.007-.427-.006-.657-.2-3.25-.028-5.821,1.886-8.553,2.16-3.082,5.779-4.759,8.477-7.275,1.656-1.551,3.927-3.389,4.919-5.464a49.4,49.4,0,0,0,1.817-5.213,1.038,1.038,0,0,1,1.111-.72,1.381,1.381,0,0,1,.245-.049,49.538,49.538,0,0,1,11.9-.231.829.829,0,0,1,.755.951,1.011,1.011,0,0,1-.021.517,33.824,33.824,0,0,1-7.568,12.858,46.9,46.9,0,0,1-5.122,5.4C93,41.9,91.019,42.7,89.789,44.416a59.8,59.8,0,0,1,3,7.994c2.55.775,5.422,2.355,6.3,4.989,2.837.329,5.751.881,8.071,2.544a13.882,13.882,0,0,1,2.725,2.711,5.9,5.9,0,0,1,7.924-2.313C121.214,62.284,123.023,65.8,123.624,69.586ZM110.55,80.264c1.076-3.942.7-9.231-.035-13.222V67c-1.614-2.153-3.326-5.081-5.905-6.206a24.072,24.072,0,0,0-9.888-1.649c-2.879.238-5.282,1.761-8.085,2.18-.37.056-.74.1-1.118.14a7.366,7.366,0,0,0,4.766,1.076c.818-.077,1.635-.188,2.369-.293.72-.126,1.391-.224,2.02-.392.614-.139,1.187-.265,1.712-.363a7.76,7.76,0,0,1,1.313-.2c.72-.042,1.125-.028,1.132.049s-.363.224-1.062.406a11.536,11.536,0,0,0-1.244.377c-.482.154-1.034.328-1.642.524a21.322,21.322,0,0,1-2.082.538c-.762.147-1.545.266-2.411.377a11.493,11.493,0,0,1-2.774-.007,6.475,6.475,0,0,1-2.111-.733,1.9,1.9,0,0,0,.161.636,1.863,1.863,0,0,1,.224.363,2.182,2.182,0,0,0,.16.2,4.723,4.723,0,0,0,2.076,1.02,19.9,19.9,0,0,0,4.318.454c2.516.014,4.1-.091,4.116.091,0,.147-1.53.538-4.095.741a17.182,17.182,0,0,1-4.591-.231,8.464,8.464,0,0,1-1.3-.405,2.139,2.139,0,0,0,.649.671,2.344,2.344,0,0,0,.266.125,17.776,17.776,0,0,0,2.579.678c.251.056.538.133.789.21s.524.154.8.258c.566.2,1.09.413,1.621.559l.4.112a3.121,3.121,0,0,0,.4.077c.279.042.58.112.831.126.266.028.524.056.783.077l.768.042c1.021.042,1.943.042,2.733.063,1.565.028,2.55.174,2.55.335s-.957.314-2.515.5c-.783.091-1.719.175-2.782.2-.265-.007-.538-.007-.817-.007-.287-.021-.58-.035-.874-.056s-.573-.077-.866-.112c-.161-.035-.259-.028-.468-.084l-.461-.133c-.238-.062-.455-.139-.671-.216a3.382,3.382,0,0,1,.88,3.515,5.606,5.606,0,0,1-.307.566c.1-.063.216-.119.321-.175a19.81,19.81,0,0,1,3.3-1.286,11.133,11.133,0,0,1,3.1-.664c.07.161-1.041.664-2.844,1.384a26.772,26.772,0,0,0-3.075,1.461,7.391,7.391,0,0,0-1.544,1.146,2.5,2.5,0,0,0-.559.8,12.178,12.178,0,0,1,1.46-.175c1.8-.139,3.536-.279,5.067-.5a19.541,19.541,0,0,0,3.962-.943,9.984,9.984,0,0,0,2.4-1.265c.531-.377.824-.643.894-.573.042.056-.112.391-.573.9a7.588,7.588,0,0,1-2.4,1.7,16.72,16.72,0,0,1-4.116,1.257c-1.593.287-3.326.455-5.164.6a7.8,7.8,0,0,0-1.782.252c.266.384.636.9.524,1.377a1.95,1.95,0,0,1-1.411,1.691c-.72.307-.664,1.516-.678,2.431.671.028,1.349.063,2.048.049a24.942,24.942,0,0,0,10.6-3.123c1.237-.713,2.264-1.279,2.949-1.733.706-.426,1.111-.629,1.16-.566s-.265.4-.887.936a25.766,25.766,0,0,1-2.8,2.083c-.642.37-1.341.782-2.11,1.2-.4.182-.811.371-1.237.56a9.612,9.612,0,0,1-1.334.545c-.469.16-.951.321-1.44.482a13.634,13.634,0,0,1-1.544.363,19.291,19.291,0,0,1-3.313.426c-.615.014-1.215-.014-1.816-.042a3.4,3.4,0,0,0,.922,1.314,4.226,4.226,0,0,0,.971.615,6.675,6.675,0,0,0,1.1.343,13.365,13.365,0,0,0,4.116.118c2.369-.251,3.809-.608,3.851-.44.035.112-1.321.734-3.746,1.2a12.321,12.321,0,0,1-4.423.119,6.02,6.02,0,0,1-1.111-.287,2.1,2.1,0,0,1,.845,2.041,3.085,3.085,0,0,1-.147.468,15.605,15.605,0,0,1,3-.943c1.649-.35,3.208-.566,4.57-.874a12.316,12.316,0,0,0,3.452-1.2,4.04,4.04,0,0,0,.622-.384,3.742,3.742,0,0,0,.538-.378,9.511,9.511,0,0,0,.79-.7c.412-.455.671-.678.734-.629s-.063.363-.364.894a5.48,5.48,0,0,1-.7.916,4.138,4.138,0,0,1-.531.5,5.321,5.321,0,0,1-.643.5,11.372,11.372,0,0,1-3.634,1.544c-1.419.385-2.991.629-4.577.972a15.228,15.228,0,0,0-3.389,1.1,30.156,30.156,0,0,0,8.8-1.538C105.246,87.587,109.313,84.764,110.55,80.264Zm-5.59-57.5a50.879,50.879,0,0,0-9.881.377c-1.132,3.306-2.055,5.828-4.619,8.5-2.7,2.816-5.961,4.759-8.791,7.407-1.852,1.733-3.592,3.864-3.508,6.583.049,1.558.2,3.1.133,4.667A4.592,4.592,0,0,1,77.218,53.3c-.692.664-2.236,1.419-2.565,2.4,1.447,1.048,3.592.161,4.563-1.146a5.543,5.543,0,0,0,1-2.313c.1-1-.448-1.971-.434-2.97.014-.734.154-1.174.343-1.2s.412.4.65,1.062.51,1.559.789,2.558c.07.217.133.426.2.636a.9.9,0,0,1,.147.468c.056.182.111.357.167.524a22.581,22.581,0,0,0,1.405,2.453c2.558-.622,5.122-.105,6.01,2.523.789-.245,1.558-.469,2.34-.657a49.516,49.516,0,0,0-4.094-12.7,1.14,1.14,0,0,1-.091-.385.945.945,0,0,1,.091-.852,10.374,10.374,0,0,1,3.382-3.256,28.418,28.418,0,0,0,5.6-5.039C100.18,31.6,103.283,27.638,104.96,22.76Zm-11.083,34.5a15.393,15.393,0,0,1,2.8-.09,7.1,7.1,0,0,0-3.256-2.32C93.59,55.645,93.751,56.449,93.877,57.259ZM91.138,73.884c3.955-4.4-2.523-5.255-4.829-6.7-1.279-.8-.852-2.7-2.208-3.641a.532.532,0,0,1-.112-.824c-.126-.377-.259-.748-.391-1.118a21.758,21.758,0,0,0-5.423.755c-5.52,1.761-9.448,6.107-13,10.509-2.747,3.4-2.97,6.576.167,9.923,1.712,1.817,3.571,3.48,5.255,5.318,4.249,2.292,9.783,2.075,14.493,2.355,1.237.077,2.495.133,3.76.161,1.362-.4,4.143-1.461,1.823-3.313a13.34,13.34,0,0,1-1.53-1.348,2.444,2.444,0,0,1-.629-2.271,3.468,3.468,0,0,0,.028-1.028l-.049-.356h.028c-.091-.7-.251-1.922.273-2.432.643-.622,2.292-.929,1.565-2.313a2.27,2.27,0,0,1-.37-.824A3.592,3.592,0,0,1,91.138,73.884ZM87.092,59.062c.132-.042.258-.084.384-.126-.971-2.746-5.506-.8-7.351,1.077A33.779,33.779,0,0,0,87.092,59.062Zm-5.64-2.571c-.167-.273-.335-.538-.5-.818-1.579,2.18-4.786,3.34-7.106,2.02-.28-.056-.566-.112-.86-.2a5.927,5.927,0,0,1-2.844-1.733c-.587-.692-.7-1.174-.587-1.272.126-.119.545.252,1.146.657a9.327,9.327,0,0,0,1.775.929,1.027,1.027,0,0,1,.007-.146A3.718,3.718,0,0,1,73.6,53.5a14.479,14.479,0,0,0,2.1-2.4c-4.318-.091-8.616.426-12.934.468,1.09,2.16,2.187,4.34,3.186,6.548.231.258.475.524.755.79.776.719,1.537,1.369,2.054,1.907s.762.937.664,1.062-.545-.042-1.188-.405c-.335-.2-.74-.447-1.167-.755.035.084.07.175.112.266.992,2.5.9,4.444-1.335,6.079a.882.882,0,0,1-1.376-.384l-.063-.021a1.456,1.456,0,0,1-.3-.133c-.041-.028-.083-.063-.125-.1a2.489,2.489,0,0,1-.462.88,2.746,2.746,0,0,1-.573.461l-.118.07c-.063.028-.14.063-.21.091a1.447,1.447,0,0,1-.447.112,1.5,1.5,0,0,1-.86-.154,1.947,1.947,0,0,1-.5-.384.394.394,0,0,0-.07.091h-.007l-.021.013-.07.063-.146.105a1.766,1.766,0,0,1-1.293.21,3.368,3.368,0,0,1-.957-.371,4.218,4.218,0,0,1-.762-.559,3.347,3.347,0,0,1-.328-.349c-.049-.07-.077-.112-.1-.161a1.05,1.05,0,0,1-.727.4,4.277,4.277,0,0,1-2.39-.476c.042.1.091.2.14.3a7.151,7.151,0,0,1,.468,3.054c-.007.1-.014.2-.028.286s-.042.161-.063.231a3.579,3.579,0,0,1-.14.37c-.09.2-.174.3-.258.294s-.147-.126-.2-.343a2.4,2.4,0,0,1-.063-.391c-.007-.07-.014-.154-.021-.238s-.042-.153-.063-.244a18.58,18.58,0,0,0-.74-2.6c-.308-.754-.615-1.446-.895-2.012a24.84,24.84,0,0,1-2.627-2.858,26.2,26.2,0,0,1-4.2-7.275c-4.591,2.159-7.47,6.268-10.978,9.776-3.529,3.522-7.288,6.89-10.426,10.776a102.341,102.341,0,0,0-9.5,13.752,74.213,74.213,0,0,0-3.711,7.428c-.65,1.53-1.614,3.026-1.866,4.7-.174,1.111.091,1.09.762,1.726,1.02.978,1.565,1.97,3.179,1.949a1.254,1.254,0,0,1,.168.014c7.8-2.047,15.7-3.745,23.305-6.477,7.148-2.572,14.157-5.521,21.306-8.1.154-.105.314-.217.482-.329a12.333,12.333,0,0,1,2.32-1.272c.643-.223,1.076-.258,1.146-.118s-.237.461-.762.859c-.209.168-.461.364-.74.573,2.97.287,6,.378,8.609-1.307-2.3-2.333-5.695-5.087-7.163-8.231-.587.167-1.16.335-1.733.517-.929.286-1.81.587-2.718.852a40.3,40.3,0,0,1-5.283,1.3c-3.375.559-6.38.839-8.944,1.509-.706.14-1.384.28-2.048.42-.678.105-1.335.133-1.977.2-.636.035-1.251.014-1.845.021s-1.167-.063-1.719-.09c-2.2-.182-4.053-.427-5.654-.553a24.835,24.835,0,0,0-4.025-.055,6.819,6.819,0,0,0-2.494.684,6.49,6.49,0,0,0-1.244.8c-.266.2-.426.273-.482.224s-.014-.2.16-.5A3.97,3.97,0,0,1,22.5,84.869a6.578,6.578,0,0,1,2.74-1.153,21.333,21.333,0,0,1,4.283-.273c1.663.035,3.564.2,5.688.3a28.253,28.253,0,0,0,2.949-.014,7.146,7.146,0,0,1,1.2-2.1A8.006,8.006,0,0,1,41.593,79.8a20.423,20.423,0,0,1,4.277-1.649,30.328,30.328,0,0,0,3.214-1.062,7.7,7.7,0,0,0,2.09-1.244,6.585,6.585,0,0,0,1.7-2.439c.258-.608.419-.894.573-.873.133.014.251.328.224,1.062a5.12,5.12,0,0,1-.3,1.412A5.724,5.724,0,0,1,52.222,76.9a8.282,8.282,0,0,1-2.4,1.768,24.661,24.661,0,0,1-3.368,1.328,20.422,20.422,0,0,0-3.829,1.586,6.367,6.367,0,0,0-1.37,1.069,4.527,4.527,0,0,1,.908.4c.014.007.014.014.021.014,2.761-.769,5.835-1.09,9.106-1.67a40.214,40.214,0,0,0,5.01-1.258c.873-.259,1.782-.573,2.7-.867.559-.174,1.146-.342,1.733-.517a6.243,6.243,0,0,1,.636-3.906c2.739-5.416,8.393-11.132,13.92-13.668a11.773,11.773,0,0,1,2.278-.762,1.087,1.087,0,0,1,.119-.643A8.237,8.237,0,0,1,81.452,56.491ZM61.719,49.468c.971.007,1.949-.007,2.921-.042a16.322,16.322,0,0,0-7.45-8.4c1.475,2.621,2.956,5.255,4.3,7.981ZM44.438,53.1c.041-.014.076-.021.118-.035-.174-.552-.342-1.1-.5-1.67L44,51.166C38.875,52.382,33,56.7,29.33,60.152c-2.593,2.446-7.289,6.038-8.288,9.783a.992.992,0,0,1,.384.28c.706.8,1.23,1.908,2.181,2.46,3.179-3.536,6.68-6.737,9.978-10.154C36.981,59.006,39.874,55.156,44.438,53.1Zm-1.007-3.963c-.342-1.2-.706-2.389-1.076-3.563a9.372,9.372,0,0,1-1.5.042c-.224-.007-.468-.007-.65,0-.091,0-.217.014-.329.021l-.3.055c-.426.091-.846.14-1.244.259a26.877,26.877,0,0,0-4.193,1.5c-2.327,1.035-3.78,1.629-3.843,1.489s1.251-.951,3.515-2.18a22.53,22.53,0,0,1,4.249-1.8,12.674,12.674,0,0,1,1.327-.322l.371-.077c.118-.014.216-.035.363-.042.28-.014.5-.014.748-.014.391-.007.775-.007,1.125-.048-.378-1.126-.762-2.251-1.174-3.376a8.9,8.9,0,0,0-1.335-.035c-1.1.021-2.166.035-3.179.049a42.425,42.425,0,0,0-5.255.559c-1.51.2-2.684.566-3.522.734-.832.189-1.314.252-1.342.175s.405-.3,1.2-.615a19.853,19.853,0,0,1,3.494-1.132,32.33,32.33,0,0,1,5.4-.853c1.006-.035,2.068-.125,3.172-.167.28-.007.559-.112.839-.112h.077c-.252-.7-.518-1.258-.79-1.936a38.823,38.823,0,0,0-13.8,1.754c-3.55,1.2-7.652,2.313-10.789,4.4-4.354,2.9-4.829,7.777-6.115,12.445a1.277,1.277,0,0,0-.049.175c.217-.371.44-.741.671-1.125a56.575,56.575,0,0,1,5.7-6.967c1.531-1.67,2.481-2.747,2.614-2.635.118.1-.573,1.328-1.971,3.173-1.377,1.838-3.459,4.213-5.346,7.071-.88,1.44-1.74,2.914-2.557,4.179-.077.119-.147.238-.224.357a51.69,51.69,0,0,0-1.509,7.526.007.007,0,0,0,.007.007c1.886.768,3.969,1.942,5.932,1.118a8.36,8.36,0,0,1-.342-3.445c.049-.776.21-1.587.294-2.3.069-.762.09-1.566.2-2.411a8.469,8.469,0,0,1,.168-1,6.631,6.631,0,0,1,.286-.986l.084-.216.042-.112.021-.056.007-.014.028-.056.014-.021.231-.419c.16-.28.314-.552.468-.825a13.928,13.928,0,0,1,1.013-1.516,14.466,14.466,0,0,1,1.076-1.37,42.292,42.292,0,0,1,4.151-4.269c2.509-2.251,4.116-3.564,4.221-3.459.126.125-1.293,1.663-3.634,4.06a56.462,56.462,0,0,0-3.9,4.353,14.868,14.868,0,0,0-1,1.335,14.722,14.722,0,0,0-.937,1.453c-.14.259-.279.51-.419.776l-.217.391-.014.014-.014.042-.042.112-.083.216a6.793,6.793,0,0,0-.238.825,8.562,8.562,0,0,0-.147.881c-.091.775-.119,1.579-.2,2.382-.105.853-.259,1.559-.322,2.285a7.633,7.633,0,0,0,.189,2.879.871.871,0,0,1,.4.014,22.3,22.3,0,0,0,1.635-2.012c.671-.95,1.251-1.782,1.74-2.467,1-1.376,1.719-2.054,1.8-1.984a12.816,12.816,0,0,1-1.293,2.313c-.419.726-.908,1.614-1.544,2.613a19.654,19.654,0,0,1-1.607,2.2.1.1,0,0,1,.021.028c.636,1.447,3.019,1.684,4.563,1.076.608-4.7,5.7-8.965,9.028-11.872C32.083,54.981,37.771,50.453,43.431,49.139Z"/><path d="M75.059,82.4c.013.084-.245.2-.727.342a16.927,16.927,0,0,0-1.943.58,3.441,3.441,0,0,0-.524.287l-.07.042-.028.028a.5.5,0,0,0-.1.1,2,2,0,0,0-.153.224,5.6,5.6,0,0,1-.462.762,1.164,1.164,0,0,1-.663.377,1.6,1.6,0,0,1-.65-.049l-.07-.021-.035-.007a1.055,1.055,0,0,1-.105-.042l-.1-.049-.1-.049-.153-.1-.154-.112-.1-.105a2.5,2.5,0,0,1-.189-.2c-.223-.265-.391-.524-.559-.684l-.028-.028-.014-.014-.069-.056c-.07-.049-.133-.091-.182-.119l-.391-.231a2.414,2.414,0,0,1-.93-.887,3.774,3.774,0,0,1-.237-2.306,6.224,6.224,0,0,1,.67-1.887,4.249,4.249,0,0,1,.573-.789,1.362,1.362,0,0,1,.175-.2l.154-.133a1.182,1.182,0,0,1,.21-.147.907.907,0,0,1,.244-.139,1.169,1.169,0,0,1,.608-.112,1.335,1.335,0,0,1,.538.181,3.192,3.192,0,0,1,.615.525c.147.16.294.328.426.5a5.068,5.068,0,0,0,.336.412,1.926,1.926,0,0,0,.622.468c.419.2.7.273.684.371-.013.062-.286.146-.824.062a2,2,0,0,1-.922-.405c-.161-.126-.3-.265-.448-.4-.132-.126-.279-.259-.454-.405a2.887,2.887,0,0,0-.468-.329c-.161-.056-.175-.049-.294.014a.274.274,0,0,0-.083.063.694.694,0,0,0-.112.091l-.147.14a.956.956,0,0,1-.084.125,3.752,3.752,0,0,0-.391.615,4.159,4.159,0,0,0-.364,3.11,1.332,1.332,0,0,0,.511.454c.132.084.265.154.44.273.1.056.161.111.223.153l.091.077.049.035.049.049.056.056c.314.342.489,1.23,1.034,1.216.392-.014.818-.936,1.139-1.167l.035-.028.056-.042.028-.014.091-.042a3.569,3.569,0,0,1,.727-.293,7.943,7.943,0,0,1,2.152-.252C74.765,82.283,75.052,82.318,75.059,82.4Z"/><path d="M60.74,67.588c-.014.006-.007.006-.007,0Z"/><path d="M25.4,52.172c.112.119-.426.839-1.439,1.873s-2.474,2.355-4,3.871c-.762.762-1.447,1.51-2.041,2.215A20.383,20.383,0,0,0,16.5,62.1c-.734,1.174-1.055,2-1.23,1.957-.14-.035-.1-.972.5-2.341a12.484,12.484,0,0,1,1.3-2.25,22.232,22.232,0,0,1,2.061-2.383,42.1,42.1,0,0,1,4.284-3.669C24.55,52.564,25.291,52.053,25.4,52.172Z"/><path d="M21.734,101.178c.035.154-.538.476-1.524.916a18.849,18.849,0,0,1-4.066,1.258,9.659,9.659,0,0,1-2.425.146,3.883,3.883,0,0,1-1.992-.671,1.944,1.944,0,0,1-.8-1.215c-.056-.329,0-.5.062-.518.084-.034.2.133.364.357a2.114,2.114,0,0,0,.817.671,6.906,6.906,0,0,0,3.767.07c1.558-.28,2.97-.671,4.018-.888C20.993,101.067,21.7,101.011,21.734,101.178Z"/></g><text x="0" y="143" fill="#000000" font-size="5px" font-weight="bold" font-family="'Helvetica Neue', Helvetica, Arial-Unicode, Arial, Sans-serif">Created by Hey Rabbit</text><text x="0" y="148" fill="#000000" font-size="5px" font-weight="bold" font-family="'Helvetica Neue', Helvetica, Arial-Unicode, Arial, Sans-serif">from the Noun Project</text></svg>