<svg xmlns="http://www.w3.org/2000/svg" viewBox="0 0 128 160" x="0px" y="0px"><g><path d="M7.3,112.126c0,.007.006.013.006.02a1.2,1.2,0,0,0,.137.13c.028.014.178.11.178.11a2.158,2.158,0,0,0,.4.13,1.025,1.025,0,0,1,.39.185c.007,0,.007.006.014.006a.893.893,0,0,1,.383.452c1.478,3.5,9.915,1.465,13.754.089-4.947-1.444-9.99-2.573-14.911-4.147a1.166,1.166,0,0,1-.862.178.593.593,0,0,0-.534.123c0,.007-.1.1-.109.117-.021.034-.055.075-.075.109-.007.014-.035.034-.048.055s-.069.048-.069.061v.014c0,.021.055.034.055.048.021.062.089.137.062.075a.18.18,0,0,1,.027.041c0-.02.075.035.075.048a1.251,1.251,0,0,0,.123.082h.007a2.886,2.886,0,0,1,.349.069,1.025,1.025,0,0,1,.719,1.259.674.674,0,0,1-.062.123,1.077,1.077,0,0,1-.02.137,1.4,1.4,0,0,1-.048.226c.007.055.013.13.013.15A.445.445,0,0,1,7.3,112.126Zm116.3-.678a2.223,2.223,0,0,1,.274,1.985,1.077,1.077,0,0,1-.937.753c-.041.013-.076.034-.124.054-2.477.849-4.653.739-7.212.979a32.108,32.108,0,0,1-4.366.294c-1.492-.061-2.888-.465-4.393-.39-.076.267-.151.534-.247.794a1.038,1.038,0,0,1-1.033.7.962.962,0,0,1-.643.226c-8.3.1-17.005,1.977-25.244.732-2.436-.37-4.968-.281-6.693-2.293-1.553-1.813-.78-4.762-.575-6.884-.013-.034-.027-.061-.041-.095-.807-2.656-.164-5.051.308-7.726.527-2.984,1.006-5.974,1.629-8.937a22.8,22.8,0,0,1-3.422.171,10.47,10.47,0,0,1-1.423-.171c.089,2.374.082,5.926-1.355,7.787,1.068,2.224,1.389,5.1-1.362,6.186-2.361.931-5.255.137-7.342-1.163a13.2,13.2,0,0,1-1.855.219,10.365,10.365,0,0,1-1.977,4.626c.13,3.51-3.251,5.289-6.317,5.714a1.617,1.617,0,0,1-.184.007,1.164,1.164,0,0,1-.336.321c-6.022,3.62-11.592,1.3-18.059.65a1.133,1.133,0,0,1-.232-.048,1.2,1.2,0,0,1-.294-.075c-1.609-.664-3.237-1.245-4.886-1.779a.84.84,0,0,1-.479.479c-3.757,1.649-15.178,4.968-17.656-.185a2.685,2.685,0,0,1-1.916-2.614,2.238,2.238,0,0,1-1.108-2.628,2.609,2.609,0,0,1,1.67-1.731c-1.8-3.168.369-7.233,3.5-8.923-.664-4.264-2.19-9.259,2.211-11.9,2.237-1.348,5.378-.924,7.753-.254,3.51.993,7.069,1.745,10.572,2.724a22.832,22.832,0,0,1,.589-3.319,77.151,77.151,0,0,0,1.478-9.525c.575-4.291,1.957-9.375,5.283-12.393-.069-.192-.13-.383-.185-.582a4.884,4.884,0,0,1-2.984-.308,3.279,3.279,0,0,1-1.676-2.874.944.944,0,0,0-.075-.137.106.106,0,0,0-.021-.027.531.531,0,0,1-.048-.055,1.874,1.874,0,0,0-.157-.164.973.973,0,0,0-.082-.069,1.424,1.424,0,0,1-.288-.287.981.981,0,0,1-.369-.808v-.41a9.866,9.866,0,0,1-1.773-.7.9.9,0,0,1-.287-.24.976.976,0,0,1-.452-.821c-.034-1.355.691-2.306,1.054-3.558.37-1.273-.061-2.566.13-3.86-.007-.006-.014-.02-.027-.027-.028-.027-.055-.048-.082-.075a.18.18,0,0,1-.041-.028c-.185-.13-.377-.253-.555-.39A2.616,2.616,0,0,1,28.2,46.98a1.051,1.051,0,0,1,.13-1.177c1.889-2.3,5.557-4.236,8.39-5.1,2.5-.76,5.817-1.389,8.136.3,3.9,2.833,4.749,8.116,3.743,12.618.007-.006.014-.006.021-.013a6.23,6.23,0,0,0,.972-2.642c.15-.561.232-1.505.67-1.923a1.472,1.472,0,0,1,2.286.65A14.013,14.013,0,0,0,54.661,52.7a48.13,48.13,0,0,1,7.576-4.667c.013,0,.02-.007.034-.007.595-2.525,2.217-4.619,3.729-6.665a19.593,19.593,0,0,1,2.409-3.23c.91-.815,1.93-1.348,2.792-2.252.411-.424.671-.793.335-1.375-1.751,1.943-5.187-1.882-6.733-2.6a1.008,1.008,0,0,1-.315-.232,1.052,1.052,0,0,1-.383-.493c-.137-.356-.8-.376-1.122-.5a2.532,2.532,0,0,1-1.328-1.054c-.616-1.1-.342-2.224-.328-3.415-1.431-1.341-2.7-2.778-2.649-4.811-2.682-1.361-3.134-3.859-1.266-6.576A10.963,10.963,0,0,1,65.747,9.76c3.586-.41,7.514-.075,10.484,2.17,3.2,2.422,3.216,7.4,3.12,11.024A20.124,20.124,0,0,0,82.7,26.868a.264.264,0,0,1,.041.041c5.44,2.936,6.747,9.211,8.492,14.658,1.259,3.935,2.874,7.9,3.572,12,.616,3.661.835,7.349,1.15,11.045.171,2.039.123,4.393.9,6.309A37.177,37.177,0,0,1,98.82,75.31a13.162,13.162,0,0,1,.082,7.842c-.684,1.937-1.41,3.36-3.394,4.188-.63.267-1.218.527-1.793.787-.1,5.755-1.738,11.065-3.641,16.437,2.423.171,4.859.117,7.254.445,2.949.4,5.871,1.068,8.814,1.519a.992.992,0,0,1,.424.164,1.159,1.159,0,0,1,.226-.082c3.025-.711,4.646-4.023,8.068-3.278a4.8,4.8,0,0,1,2.949,2.854c.78,1.916,1.472,3.045,3.559,3.846a10.2,10.2,0,0,1,1.7.876,1.172,1.172,0,0,1,.328.3A1.357,1.357,0,0,1,123.605,111.448Zm-1.964,1c-2.62-1.546-4.194-1.765-5.5-4.933-.636-1.561-1.443-2.115-2.34-2.115-1.978,0-4.414,2.71-6.467,3.2a20.713,20.713,0,0,1-.054,4.461c2.422-.068,4.769.445,7.233.213S119.274,113.118,121.641,112.447Zm-16.84,2.341a16.357,16.357,0,0,0,.472-6.337,92.715,92.715,0,0,0-9.409-1.533c-2.354-.123-4.7-.15-7.049-.417a15.993,15.993,0,0,1-.575,2.121,8.664,8.664,0,0,1-2.9,4.092,6.1,6.1,0,0,1-1.307.767c-.329.13-.534.178-.575.109s.075-.232.322-.486c.267-.239.609-.588,1.019-1a10.739,10.739,0,0,0,1.91-2.778,13.05,13.05,0,0,1-4.859,3.579c-1.478.6-2.457.732-2.5.595-.061-.164.821-.568,2.135-1.327a16.339,16.339,0,0,0,4.455-3.73c.246-.308.472-.616.691-.924-.116.11-.226.219-.349.322A12.013,12.013,0,0,1,81.9,110.2c-1.218.281-1.991.281-2.033.144-.047-.164.685-.459,1.8-.924a18.307,18.307,0,0,0,3.873-2.45,20.183,20.183,0,0,0,2.43-2.58c1.793-5.036,3.414-10,3.668-15.356a17.452,17.452,0,0,1-4.387,1.232,1.049,1.049,0,0,1-1.3-.992,16.78,16.78,0,0,0-1.6-6.255c-.377,3.894-.315,8.671-5.016,8.335a17.7,17.7,0,0,0-2.888.062c-.52,2.388-.938,4.8-1.348,7.206-.5,2.922-1.615,6.131-.76,9.06a.9.9,0,0,1,.137.609,27,27,0,0,0-.342,3.777c.178,2.984,2.176,3.059,4.338,3.3a49.34,49.34,0,0,0,7.843.492c3.859-.184,7.691-.527,11.53-.773.329-.116.664-.24.992-.39a8.282,8.282,0,0,0,3.2-2.546c.616-.835.931-1.546,1.095-1.464.075.027.089.219.041.541a4.465,4.465,0,0,1-.438,1.348,6.4,6.4,0,0,1-1.266,1.71,7.527,7.527,0,0,1-.78.644C102.057,114.856,103.425,114.808,104.8,114.788ZM93.318,86.026c3.148-1.231,4.51-4.044,4.072-7.411-.315-2.443-1.643-4.407-2.375-6.617-.465-.746-.972-1.594-1.574-2.443-.007-.007-.027-.034-.027-.034a8.162,8.162,0,0,0-1.2-1.417c-.4-.376-.821-.746-1.225-1.122-.2-.2-.424-.4-.595-.582l-.26-.287c-.109-.116-.178-.219-.267-.322A20.536,20.536,0,0,1,88.439,63.5a17.021,17.021,0,0,0-.91-1.444c-.274-.322-.418-.52-.363-.588s.281.02.643.239a6.347,6.347,0,0,1,1.307,1.334c.479.6.965,1.376,1.567,2.067a17.042,17.042,0,0,0,1.663,1.567c-.1-.226-.212-.458-.315-.691a29.9,29.9,0,0,1-1.95-6.816c-.226-1.806-.212-2.929-.068-2.942.171-.021.445,1.06.869,2.778A53.021,53.021,0,0,0,93.1,65.524c.376.883.773,1.718,1.156,2.5-.191-1.505-.335-3.024-.444-4.544A67.388,67.388,0,0,0,92.579,52.92c-.78-3.258-1.923-6.412-2.943-9.6-1.6-5-2.614-11.271-7.329-14.289-1.656,2-2.928,4.325-4.694,6.234a15.782,15.782,0,0,1-5.673,3.771.437.437,0,0,0-.082.027,3.63,3.63,0,0,0,.445,2.655,19.126,19.126,0,0,1,1.471-1.765,14.259,14.259,0,0,1,5.871-3.969,5.267,5.267,0,0,1,1.239-.267,3.2,3.2,0,0,1,.944-.027c.493.061.767.137.774.232s-.267.2-.753.3a5.913,5.913,0,0,0-.828.254c-.151.061-.315.089-.486.171s-.349.164-.541.253a17.9,17.9,0,0,0-5.214,4,31.122,31.122,0,0,0-2.7,3.346A42.769,42.769,0,0,1,69.867,49.4c-1.061,2.347-2.135,4.681-3.388,6.932,3.046,1.478,6.241,3.2,8.055,6.125.007-.014.02-.028.027-.041.069-.123.144-.24.219-.356a9.5,9.5,0,0,0,.678-1.574c.212-.609.4-1.266.615-1.95.124-.356.247-.712.363-1.075.144-.349.274-.663.438-1.026a39.474,39.474,0,0,1,3.244-4.961c.109-.178.225-.356.335-.527l.308-.575a7.073,7.073,0,0,0,.445-1.033,9.7,9.7,0,0,0,.4-2.053,21.892,21.892,0,0,0,.013-3.141c-.041-.76-.054-1.191.041-1.211s.281.369.486,1.115a12.62,12.62,0,0,1,.438,3.278,9.349,9.349,0,0,1-.274,2.333,8.543,8.543,0,0,1-.458,1.273c-.1.192-.192.383-.287.582-.11.2-.233.41-.356.616a55.505,55.505,0,0,0-3.059,4.858c.4-.369.842-.732,1.3-1.095.089-.116.185-.232.281-.349.164-.171.321-.342.485-.513.322-.335.644-.677.952-.958.609-.575,1.19-1.122,1.738-1.635a13.816,13.816,0,0,0,1.307-1.52,5.647,5.647,0,0,0,.5-.718c.137-.24.26-.465.377-.684a5.931,5.931,0,0,0,.328-.6c.075-.2.151-.383.212-.54.274-.65.473-1.013.568-.992s.076.417-.048,1.149a5.237,5.237,0,0,1-.349,1.3c-.095.247-.2.514-.314.794a5.343,5.343,0,0,1-.459.835,7.42,7.42,0,0,1-.677,1.006c.451-.329.869-.636,1.225-.931,1.2-.958,1.916-1.724,2.08-1.587.123.109-.26,1.04-1.41,2.3A17.589,17.589,0,0,1,84.1,54.206c-.855.664-1.82,1.348-2.819,2.046-.315.226-.616.452-.917.671-.137.178-.281.362-.424.547l-.11.137a.1.1,0,0,1-.013.027l-.041.069-.178.287c-.226.4-.452.808-.678,1.239l-.123.246a12.876,12.876,0,0,1,1.567-.308,20.839,20.839,0,0,1,3.326-.157c1.875.082,3.018.253,3.018.4,0,.171-1.157.28-3,.417-.917.075-2,.171-3.175.383a11.677,11.677,0,0,0-2.525.732c-.287.514-.582,1.013-.91,1.492-.034.048-.069.089-.1.13a9.665,9.665,0,0,1,1.136.356,12.17,12.17,0,0,1,2.217,1.191c1.15.787,1.745,1.348,1.684,1.457-.076.124-.828-.246-2.04-.841a16.279,16.279,0,0,0-2.189-.9,9.593,9.593,0,0,0-1.554-.342c-.1.11-.2.233-.314.335A6.31,6.31,0,0,1,74.5,64.861l-.131.061a6.977,6.977,0,0,1-5.091,2.7A40.705,40.705,0,0,1,68.861,77.9a14.116,14.116,0,0,1-.151,1.751c-.061.329-.137.685-.232,1.041-.035.239-.062.479-.1.711-.294,2.265-.753,5.112-2.4,6.816a10.863,10.863,0,0,0,5.974,1.5,36.781,36.781,0,0,1,5.748-.541,14.626,14.626,0,0,0,2.381.13c1.739-.171,2.2-4.3,2.594-5.776a23,23,0,0,0,.287-8.731c-.349-4.346.035-7.836.322-7.829.349,0,.486,3.5.828,7.719.178,1.67.39,3.2.623,4.428.02.034.041.054.061.089a26.7,26.7,0,0,1,3.114,8.841A39.462,39.462,0,0,0,93.318,86.026ZM80.686,27.792a25.686,25.686,0,0,1-3.128-3.839c-.075.048-.143.1-.225.15-.719.459-2.656.425-2.943-.622a5.773,5.773,0,0,1,.144.643,2.015,2.015,0,0,1,.013.356.933.933,0,0,1-.041.246l-.013.062c-.007.013-.035.089-.035.089l-.047.075a1.465,1.465,0,0,1-.274.315,1.529,1.529,0,0,1-.281.178,2.73,2.73,0,0,1-1,.26c-1.191.089-1.875-.418-1.759-.561.048-.069.206-.055.48-.069.526-.027,1.368,0,1.765-.41.561-.575-.041-1.027-.308-1.533-.527-.979-.02-2.676-1.752-2.149-.048.014-.054-.027-.143.014s-.151.061-.219.089a.754.754,0,0,0-.315.349,5.768,5.768,0,0,0-.2,1.142,4.309,4.309,0,0,1,.034.787,2.473,2.473,0,0,1-.507,1.328L69.689,25l-.383-.2c-.794-.432-1.6-.986-2.457-1.438a7.639,7.639,0,0,0-1.334-.561c-.226-.082-.514-.137-.774-.212l-.369-.075c-.076-.014-.117-.014-.226-.041L64,22.434a1.289,1.289,0,0,1-.226-.1A.9.9,0,0,1,63.455,22a1.725,1.725,0,0,1-.089-.308,2.775,2.775,0,0,1-.028-.37,5.7,5.7,0,0,1,.534-2.025c.171-.438.342-1.574-.15-1.841-.007,0-.021.007-.035,0a1.238,1.238,0,0,0-.574.246,4.758,4.758,0,0,0-1.068,1.068l-.02.027c-.254.37-.534.828-.8,1.163a4,4,0,0,1-.438.466c-.021.02-.048.034-.068.055a1.024,1.024,0,0,1,.041.444c-.226,1.889,1.047,2.943,2.326,4.127a.9.9,0,0,1,.3.9c0,.014.006.034.006.055.014.855-.581,2.539.541,2.84a2.809,2.809,0,0,1,1.916,1.293c1.485.7,4.024,4.01,5.714,2.614a.652.652,0,0,1,.178-.116,6.907,6.907,0,0,0,.424-1.211,14.828,14.828,0,0,0,.329-2.218c.061-.568.075-.985.232-1.019.3-.144,1.054,1.5.555,3.517-.213.835-.705,2.149-.452,3a3.211,3.211,0,0,1,.034,1.513c-.048.253.924-.445.938-.459.253-.2.527-.335.787-.513a9.622,9.622,0,0,0,2.039-1.971C78.037,31.487,79.249,29.557,80.686,27.792Zm-3.388-4.7c.082-3.011.336-7.952-2.634-9.786a10.734,10.734,0,0,0-3.189-1.314.578.578,0,0,1-.014.158,1.746,1.746,0,0,1-.568.985.183.183,0,0,1-.055.048,10.234,10.234,0,0,1,1.287.363,4.194,4.194,0,0,1,1.882,1.17,2.387,2.387,0,0,1,.561,1.389c-.007.349-.068.527-.137.527-.178.034-.2-.746-.965-1.389a3.99,3.99,0,0,0-1.635-.739c-.7-.185-1.519-.288-2.443-.479l-1.3-.274,1.108-.76a6.949,6.949,0,0,0,.89-.677.933.933,0,0,0,.232-.3l-.054-.055c-.035-.021-.1-.055-.158-.082l-.075-.048-.007.027a1.122,1.122,0,0,0-.253-.082,4.446,4.446,0,0,0-.609-.055,11.987,11.987,0,0,0-2.293.206,8.673,8.673,0,0,0-1.491.4c-.308.1-.507.266-.568.205s-.028-.274.321-.582a.647.647,0,0,1,.1-.075,7.707,7.707,0,0,0-3.442,1.218,8.849,8.849,0,0,0-3.032,3.552,2.178,2.178,0,0,0,1.068,2.969,1.143,1.143,0,0,0,.527.11c.4-.041.52-.465.8-.985a5.161,5.161,0,0,1,1.382-1.8,2.037,2.037,0,0,1,1.115-.493.686.686,0,0,1,.206.007l.109.014.055.013.027.007.11.041c.075.041.136.062.232.123a1.316,1.316,0,0,1,.349.39,1.36,1.36,0,0,1,.062.356,6.316,6.316,0,0,1-.171,2.943,2.373,2.373,0,0,0-.11.479,2.472,2.472,0,0,0-.034.486c0,.027.007.041.007.061l.089.021.445.089c.267.082.52.13.8.226a7.974,7.974,0,0,1,1.547.691c.78.438,1.423.9,2.039,1.314a2.841,2.841,0,0,0,.137-1.376,4.161,4.161,0,0,1,.027-1.006,1.171,1.171,0,0,1,.541-.835.626.626,0,0,1,.178-.095l.055-.048.061-.055.034-.027.021-.014c0-.007.048-.027.048-.027.075-.042.144-.076.219-.117a1.275,1.275,0,0,1,.335-.109,1.368,1.368,0,0,1,.363-.048,1.527,1.527,0,0,1,.349.027,2.22,2.22,0,0,1,1.266.678c.055.061.089.123.137.178a.145.145,0,0,0,.041.027c1.4.89,1.621,3.2,3.75,2.518.109-.041.219-.075.335-.109A1.315,1.315,0,0,1,77.3,23.091ZM72.816,63.6c-1.7-2.744-4.811-4.257-7.644-5.625A16.79,16.79,0,0,1,54.9,57.5a1.022,1.022,0,0,1-.4-.254.8.8,0,0,1-.527-.91c.171-1.587-1.3-2.3-1.7-3.668-.041-.13-.164-.581-.342-1.053-.308-.835-.773-1.732-1.211-1.1-.7.992.308,2.552-.171,3.647a3.3,3.3,0,0,1-2.587,1.93c-1.444.246-5.57-.089-6.159,1.581,2.854.068,5.153.082,5.181.4.006.062-.1.137-.274.206,0,.164-.719.335-1.862.677-.574.171-1.259.377-1.97.664-.315.116-1.67.547-1.465,1.013.151.342.91.15,1.164.13.766-.076,1.478-.185,2.08-.267a8.256,8.256,0,0,1,1.8-.13c.246.007.383.048.39.1.02.158-.78.438-2.053.938a20.363,20.363,0,0,0-2.156.965c-.383.205-1.765.876-.855,1.334.431.212,1.211-.2,1.635-.308.869-.219,1.649-.451,2.313-.636.746-.212,1.335-.376,1.718-.445.486-.164.794-.233.855-.137.076.137-.362.582-1.225,1.116-.41.26-.9.561-1.444.9a5.339,5.339,0,0,0-1.409,1.2.106.106,0,0,1-.014.02c.13-.02.26-.034.39-.061a8.064,8.064,0,0,0,1.923-.685c.547-.253,1.17-.321,1.7-.609.322-.178.65-.39.958-.581.623-.384,1.362-.432,2-.76.541-.274.787-.616,1.437-.684a11.377,11.377,0,0,1,4.428.677c1,.315,2.2.767,3.476,1.225a1.187,1.187,0,0,1,.493.171C65.2,65.559,70.2,66.859,72.816,63.6Zm-2.422-21.07a4.764,4.764,0,0,1-.657-2.621c-1.136.616-2.368,3.011-2.991,3.887a14.433,14.433,0,0,0-2.45,4.6,16.951,16.951,0,0,1,2.834,2.094c.191-.41.383-.821.567-1.238C68.683,47.055,69.956,44.906,70.394,42.525ZM66.9,96.962c.4-1.273,1.218-4.948.4-6.146-.637-.937-3.312-.376-3.278-2.025.02-.855.746-1.41,1.088-2.128a15.878,15.878,0,0,0,.78-2.265l-.034-.589a5.084,5.084,0,0,1-.548.363,8.192,8.192,0,0,1-1.5.684c-1.889.609-3.107.637-3.134.507-.048-.178,1.081-.5,2.771-1.266a6.5,6.5,0,0,0,2.2-1.636l-.151-.062a3.1,3.1,0,0,1-1.7-.143,4.3,4.3,0,0,1-1.287-.842c-.752-.616-1.259-1.143-1.649-1.464-.369-.329-.622-.5-.581-.575s.321-.041.828.2a19.777,19.777,0,0,1,1.875,1.177,4.8,4.8,0,0,0,1.252.6,2.46,2.46,0,0,0,.924.075,18.443,18.443,0,0,1-3.032-5.659c-.568-1.622-.889-2.656-.739-2.724s.719.842,1.492,2.4A28.336,28.336,0,0,0,65.6,80.141c-.219-1.149-.548-2.224-.637-3.113-.027-.3-.041-.555-.054-.787a4.077,4.077,0,0,1,.054-.568c.048-.308.11-.486.192-.486s.164.157.253.458c.055.151.082.343.144.548s.143.424.212.67c.2.692.568,1.568.848,2.628.042-.7.069-1.327.1-1.806.267-3.347,1-6.748.493-10.094a19.435,19.435,0,0,1-2.7-.479,36.546,36.546,0,0,1-3.518-1.074c-2.47,4.461-1.6,9.1-1.752,14.055-.15,4.852-1.457,9.458-1.786,14.254,0,.007-.006.014-.006.028.02.253.041.513.054.773a1.529,1.529,0,0,1,.212.1,17.528,17.528,0,0,0,4.654,2.484c.39.109,1.485.5,2.436.684a11.68,11.68,0,0,1-1.526-2.764c-.383-.924-.671-1.759-.9-2.471a7.271,7.271,0,0,1-.568-2.347c.158-.1.705.712,1.328,2.046.315.664.691,1.458,1.1,2.334A13.362,13.362,0,0,0,65.775,97.8l.1.1a7.912,7.912,0,0,0-.191-1.711c-.171-.787-.377-1.5-.527-2.114-.308-1.225-.315-2.033-.178-2.046s.4.67.9,1.813a19.057,19.057,0,0,1,.78,2.1A10.113,10.113,0,0,1,66.9,96.962ZM65.275,103.9c1.971-.39,1.8-1.875,1.088-3.387a9.59,9.59,0,0,1-3.613-.554,15.187,15.187,0,0,1-3.189-1.239,2.838,2.838,0,0,1-1.882.808c.021.855.048,1.7.055,2.566,0,.178-.007.342-.014.513a10.14,10.14,0,0,0,1.43-.185,1.147,1.147,0,0,1,.213-.007.881.881,0,0,1,.834.11A7.3,7.3,0,0,0,65.275,103.9Zm-1-47.812c.691-1.2,1.328-2.429,1.937-3.675a16.5,16.5,0,0,0-3.271-2.429,41.86,41.86,0,0,0-7.179,4.448,4.242,4.242,0,0,1,.281,1.28A14.994,14.994,0,0,0,64.276,56.088ZM56.865,85.116a66.877,66.877,0,0,0,.294-8.595c-.123-4.044-.014-7.63,1.848-11.154a26.939,26.939,0,0,0-3.723-.992,7.672,7.672,0,0,0-2.395-.055c1.718,3.216,2.963,6.159,2.949,10.046a106.448,106.448,0,0,0,.911,11.688C56.8,85.739,56.838,85.424,56.865,85.116Zm-3.209,23.335c2.3-3.025,2.093-6.09,1.984-9.731-.034-1.348-.116-2.689-.2-4.03a1.107,1.107,0,0,1-.035-.343c0-.027.007-.047.007-.075-.178-2.566-.417-5.125-.643-7.691-.322-3.627-1-7.309-.985-10.956a21,21,0,0,0-2.943-10.764,19.129,19.129,0,0,1-3.373,1.293,9.433,9.433,0,0,0-2.669.568c-1.088.513-2.053,1.02-2.737,1.389-.705.383-1.184.616-1.28.486s.178-.561.78-1.136A10.065,10.065,0,0,1,43,66.387a.792.792,0,0,1-.137-.076,2.64,2.64,0,0,1-.267-.2,2.2,2.2,0,0,1-.212-.281,1.288,1.288,0,0,1-.11-.349,1.139,1.139,0,0,1,.165-.745c-.069.013-.13.034-.2.041-.445.082-.889.02-1.327.075-.493.055-.951.267-1.451.315-2.58.246-4.017,4.612-4.605,6.678A47.158,47.158,0,0,0,33.5,80.49a56.134,56.134,0,0,1-1.4,6.871,60.216,60.216,0,0,0-.7,7.507,10.377,10.377,0,0,0,1.266-.466c.13-.52.246-1.067.417-1.608.206-.616.425-1.259.643-1.923.1-.321.226-.643.322-.978.075-.356.158-.712.233-1.082.164-.663.274-1.464.424-2.217.349-2.046.773-3.976,1.163-5.734s.849-3.319,1.205-4.633c.814-2.593,1.409-4.167,1.56-4.119s-.164,1.69-.773,4.331c-.274,1.328-.6,2.9-.951,4.647-.336,1.751-.719,3.674-1.068,5.714-.151.773-.246,1.485-.445,2.265-.082.362-.171.718-.253,1.074-.048.157-.1.315-.157.479,0,.1.006.2,0,.328-.014.329-.028.719-.048,1.15a2.854,2.854,0,0,0,.082,1.129.357.357,0,0,0,.144.178,23.1,23.1,0,0,1,9.1,1.8A14.107,14.107,0,0,0,46.238,92.4c.349-.65.7-1.314,1.074-1.991a15.111,15.111,0,0,0,.91-2.094,23.108,23.108,0,0,0,1.122-6.453,38.346,38.346,0,0,0-.164-5.42c-.308-3.086-.794-4.968-.623-5.016.13-.048.9,1.773,1.431,4.907a31.007,31.007,0,0,1,.417,5.563,22.071,22.071,0,0,1-1.088,6.8,15.691,15.691,0,0,1-1,2.258c-.376.685-.739,1.355-1.116,2.006a14.71,14.71,0,0,1-2.018,2.778,1.209,1.209,0,0,1,.1.185,1.236,1.236,0,0,0,.41-.1,3.9,3.9,0,0,0,1.157-.89,15.447,15.447,0,0,0,1.574-2.08c.793-1.232,1.231-1.978,1.334-1.923a6.081,6.081,0,0,1-.835,2.217,12.871,12.871,0,0,1-1.464,2.327,4.608,4.608,0,0,1-1.383,1.177,2.077,2.077,0,0,1-.855.219,5.044,5.044,0,0,1-.431,2.237,12.185,12.185,0,0,0,1.9,2.074,14.294,14.294,0,0,0,2.012,1.4c1.2.684,1.964,1.054,1.916,1.184-.041.1-.869-.048-2.217-.582a11.242,11.242,0,0,1-2.279-1.273,11.4,11.4,0,0,1-1.929-1.827,7.447,7.447,0,0,1-2.69,2.019,19.563,19.563,0,0,1,2.683,1.41c1.129.732,2.08,1.443,2.867,2.046,1.553,1.19,2.539,1.916,2.45,2.053-.075.116-1.184-.363-2.895-1.41a31.348,31.348,0,0,0-6.644-3.47c-.219.069-.438.144-.657.206,3.483,3.1,4.927,8.444,9.614,9.929a1.038,1.038,0,0,1,.233.1c2.039-.356,4.455-1.287,4.373-3.682A.811.811,0,0,1,53.656,108.451Zm-6.85-56.674c.369-3.367-.137-8.6-4.154-9.546-3.757-.876-9.471,1.5-12.325,4.413a.906.906,0,0,1,.076.069,1.249,1.249,0,0,0,.15.109,4.576,4.576,0,0,1,1.054.863,1.464,1.464,0,0,1,.185.314.872.872,0,0,1,.274.822q.061.236.123.492a2.648,2.648,0,0,0,.164.411,2.374,2.374,0,0,0,.684.7,6.5,6.5,0,0,1,.541.5c.144.171.287.343.445.52.308.4.581.835.841,1.2a3.756,3.756,0,0,0,.767.869c.15.082.287.178.445.26a4.432,4.432,0,0,1,.547-1.225,2.5,2.5,0,0,1,1.252-1.04.493.493,0,0,1,.048-.014,3.256,3.256,0,0,1,.281-.205,1.515,1.515,0,0,1,1.314-.089,1.853,1.853,0,0,1,.951,1c.8,1.937-.568,4.044,2.539,2.847.4-.151.752-.39,1.17-.507.486-.137,1.553.048,1.923-.184C46.689,53.98,46.73,52.468,46.806,51.777Zm-.1,62.32c-3.134-1.78-4.681-5.174-6.932-7.863.068.226.123.452.178.671.321,1.361.479,2.579.629,3.592s.274,1.827.39,2.375.219.841.144.889c-.055.041-.315-.2-.568-.746a13.449,13.449,0,0,1-.766-2.36c-.253-1-.5-2.2-.856-3.484a11.548,11.548,0,0,0-.691-1.909,2.91,2.91,0,0,0-1-1.252c.089.376.2.766.322,1.191.109.362.15.684.226,1.012a6.7,6.7,0,0,1,.089,1.075,4.266,4.266,0,0,1-.432,1.964,4.585,4.585,0,0,1-1.074,1.334,12.3,12.3,0,0,1-1.9,1.307c-.466.267-.739.39-.787.329s.137-.3.527-.671.992-.869,1.608-1.533a3.446,3.446,0,0,0,1.019-2.71,5.914,5.914,0,0,0-.109-.869c-.082-.315-.144-.677-.253-.978a12.6,12.6,0,0,1-.527-2.074c-2.847-.164-5.653.007-8.451-.67-2.512-.609-4.948-1.444-7.439-2.081-2.881-.732-6.425-1.608-9.368-.684-2.47.78-4.77,4.879-2.628,7.1.014.014.021.028.028.034,7.507,2.416,15.314,3.771,22.616,6.8l.123.062C36.356,114.535,41.516,116.615,46.7,114.1Zm-4.77-55.272c-.109,0-.219,0-.328-.007-2.108-.041-.739-1.047-.808-2.251-.027,0-1.368.89-1.546.91a1.1,1.1,0,0,1-1.129-1.109c.013-.089.048-.13.089-.13.089-.013.164.144.328.274a.617.617,0,0,0,.691.082c.035-.048.062-.02.178-.15l.055-.048c-.007-.007.007-.041.007-.041.02-.041.034-.082.055-.123a2.668,2.668,0,0,0,.157-.726,9.867,9.867,0,0,0-.041-1.943c-.082-.678-.288-1.273-.554-1.382-.233-.178-.7.02-.917.294a.984.984,0,0,0-.254.773c.035.24.117.424.035.465-.062.035-.219,0-.425-.246a.971.971,0,0,1-.171-.335,4.586,4.586,0,0,0-.369,1.423l-.062.63-.595-.178c-.226-.069-.452-.144-.684-.212a6.581,6.581,0,0,1-.678-.363,4.553,4.553,0,0,1-1.054-1.122c-.26-.4-.52-.781-.766-1.15-.144-.185-.281-.363-.418-.534-.095-.109-.26-.28-.4-.41-.11-.1-.24-.226-.363-.363a5.347,5.347,0,0,1-.055,2.06,29.188,29.188,0,0,0-1.047,2.86,7,7,0,0,0,1.116.383,1.015,1.015,0,0,1,1.348.979v.972a3.534,3.534,0,0,1,.828,1.019,1.016,1.016,0,0,1,.068.206,1.064,1.064,0,0,1,.13.485c.048,1.793,1.759,1.547,3.093,1.232a.969.969,0,0,1,1.109.472,1,1,0,0,1,.212.418,6.881,6.881,0,0,0,.4,1.355c.308.048.609.1.91.137a1.873,1.873,0,0,1,.123-.411,2.391,2.391,0,0,1,.616-.773,4.1,4.1,0,0,1,.458-.342,1.713,1.713,0,0,1-.862-.267,1.006,1.006,0,0,1-.424-.63,1.1,1.1,0,0,1-.014-.356l.007-.041v-.02L40,60.5l.047-.13a2.512,2.512,0,0,1,1.212-1.232C41.489,59.017,41.714,58.914,41.933,58.825ZM37,101.43c2.553-.568,6.139-1.485,6.159-4.482a20.952,20.952,0,0,0-8.116-1.492h-.034a13.347,13.347,0,0,1-5.885,1.978,25.883,25.883,0,0,0-6.35,1.847,54.557,54.557,0,0,0,6.33,1.677c2.436.41,4.858.226,7.308.4a1.094,1.094,0,0,1,.226.041A1.1,1.1,0,0,1,37,101.43Zm-7.691-6.145c.13-1.136.2-2.245.274-3.346-2.026.787-3.2,2.723-5.468,3.223-2.491.547-4.975.828-6.624,2.785.828.151,1.656.335,2.463.541a.915.915,0,0,1,.459-.411,26.669,26.669,0,0,1,6.617-2.388c.767-.117,1.526-.226,2.279-.349A.145.145,0,0,0,29.308,95.285Zm-2.676-3.873a10.548,10.548,0,0,1,1.047-.78c-2-.459-4.037-.808-6.008-1.43-2.1-.657-4.516-1.636-6.754-1.417-5.96.582-4.352,5.906-3.682,10.005.014-.007.035-.007.048-.014a15.877,15.877,0,0,1,3.908-.137,7.789,7.789,0,0,1,3.127-2.929,2.763,2.763,0,0,0-.411-1.074,10.72,10.72,0,0,0-1.108-1.41c-.719-.787-1.123-1.368-1.006-1.478s.677.24,1.553.89a7.032,7.032,0,0,1,1.43,1.409,3.378,3.378,0,0,1,.6,1.184c.273-.109.561-.2.848-.287a2.354,2.354,0,0,0-.075-.267c-.055-.144-.123-.281-.185-.424-.137-.274-.28-.534-.417-.774-.548-.951-.842-1.649-.671-1.731.123-.055.6.4,1.348,1.266.178.226.376.472.568.766a5.218,5.218,0,0,1,.281.479,3.056,3.056,0,0,1,.171.418c.082-.014.164-.041.253-.062A10.282,10.282,0,0,0,26.632,91.412Z"/><path d="M86.3,38.693a13.983,13.983,0,0,1,.1,2.853,11.783,11.783,0,0,1-.418,2.279c-.369,1.28-.848,1.964-.978,1.9-.158-.061.027-.828.178-2.066a18,18,0,0,0-.021-4.8,16.1,16.1,0,0,0-.6-2.552,11.7,11.7,0,0,0-.89-1.937c-.6-1.026-1.19-1.629-1.06-1.752.089-.1.835.219,1.724,1.287a8.4,8.4,0,0,1,1.218,2.018A12.528,12.528,0,0,1,86.3,38.693Z"/><path d="M44.876,69.37c.308.082-.274,3.326-1.307,7.24-1.006,3.935-2.06,7.049-2.368,6.953s.253-3.34,1.252-7.254C43.487,72.388,44.575,69.281,44.876,69.37Z"/></g><text x="0" y="143" fill="#000000" font-size="5px" font-weight="bold" font-family="'Helvetica Neue', Helvetica, Arial-Unicode, Arial, Sans-serif">Created by Hey Rabbit</text><text x="0" y="148" fill="#000000" font-size="5px" font-weight="bold" font-family="'Helvetica Neue', Helvetica, Arial-Unicode, Arial, Sans-serif">from the Noun Project</text></svg>