<svg xmlns="http://www.w3.org/2000/svg" viewBox="0 0 128 160" x="0px" y="0px"><g><path d="M78.141,103.3a12.222,12.222,0,0,1,4.118-1.425,5.117,5.117,0,0,1,1.1-.06,3.376,3.376,0,0,1,.825.1c.42.113.653.218.638.308s-.248.15-.69.18a5.237,5.237,0,0,0-.743.12,8.363,8.363,0,0,0-.96.233,19.316,19.316,0,0,0-5.2,2.557c-.615.406-1.193.826-1.733,1.231-1.208,2.325-3.15,4.073-4.831,6.075a19.023,19.023,0,0,1,3.428,5.709c4.959-.54,9.752-3.661,13.637-6.586a27.31,27.31,0,0,0,6.894-7.029c-.18.165-.353.323-.51.473-1.155.99-1.958,1.47-2.071,1.35-.127-.135.473-.863,1.433-1.98.225-.285.51-.578.743-.923.127-.172.255-.345.39-.525.112-.187.232-.375.352-.577a4.173,4.173,0,0,0,.338-.623,5.252,5.252,0,0,0,.292-.66c.083-.225.165-.458.248-.69.067-.263.12-.54.187-.818a12.055,12.055,0,0,0,.188-3.555c-.18-1.043-.353-2.221-.48-3.481-.39-4.35-.075-7.808.247-7.831.376,0,.631,3.5,1.013,7.711.083.788.158,1.545.225,2.265.8-4.185,2.325-9.278.45-13.3a1.239,1.239,0,0,1-.405.068,1.566,1.566,0,0,1-.345.105A23.021,23.021,0,0,1,92.8,81.7a3.034,3.034,0,0,0-1.59.187,8.682,8.682,0,0,1-1.425.525,10.58,10.58,0,0,1-1.418.36,13.954,13.954,0,0,1-5.378.66c-.382-.067-.78-.142-1.185-.21-.383-.09-.78-.187-1.185-.277-.81-.2-1.62-.39-2.476-.548-3.405-.75-6.511-1.155-8.746-1.47-2.28-.218-3.7-.375-3.7-.555.008-.165,1.425-.33,3.728-.338a53.334,53.334,0,0,1,6.489.645,4.091,4.091,0,0,1-.533-.645,10.067,10.067,0,0,1-1.41-4.92c-3.623-.158-7.2-.8-10.832-.87-3.773-.075-7.538.015-11.3-.211-.105.571-.2,1.148-.285,1.733-.57,3.833.615,7.944-.293,11.679.458-.645.878-1.29,1.23-1.905A21.73,21.73,0,0,0,53.688,83.1c.593-1.41.855-2.4,1.043-2.363.15.038.225,1.028-.188,2.648a14.6,14.6,0,0,1-1.013,2.7,19.518,19.518,0,0,1-1.867,2.993,21.059,21.059,0,0,1-2.356,2.587c-2.4,3.624-6.383,6.864-8.588,1.441a13.812,13.812,0,0,1-1.748,1.08c-.315.15-.645.322-.983.465-.352.127-.7.262-1.072.4-.653.233-1.4.518-2.161.766-.27.082-.525.165-.81.24-.142.03-.27.067-.45.09a1.559,1.559,0,0,1-.307.03,1.177,1.177,0,0,1-.368-.09l-.023-.015c-.015-.008-.09-.06-.09-.06a.219.219,0,0,0-.03-.023l-.037-.03-.075-.06a.494.494,0,0,1-.113-.1,1.484,1.484,0,0,1-.255-.457,2.454,2.454,0,0,1-.022-.331c-.045.023-.1.03-.15.053-.2.1-.45.225-.728.345a3.418,3.418,0,0,1-1.035.27,1.937,1.937,0,0,1-.728-.06l-.12-.06-.03-.022-.06-.03-.127-.068a1.435,1.435,0,0,1-.33-.255,1.674,1.674,0,0,1-.255-1.92,2,2,0,0,1,.36-.563c.022-.022.052-.06.082-.09a1.057,1.057,0,0,1-.292-.652,1.071,1.071,0,0,1,.03-.361,1.119,1.119,0,0,1,.1-.307.057.057,0,0,1,.015-.03c.015-.083.03-.165.045-.24.023-.06.045-.105.068-.165a1.146,1.146,0,0,1-.293-.7c-.142-2.363,2.168-3.57,3.811-4.785a89.419,89.419,0,0,0,8.671-6.684c-.15-1.86-.225-3.72-.262-5.573-3.046-.158-6.076-.608-9.137-.638a25.039,25.039,0,0,0-5.761.7,1.111,1.111,0,0,1,.015.525c-1.11,5.506-2.347,11.409-2.37,17.177.09-.517.2-1.035.3-1.56a32.943,32.943,0,0,1,2.686-8.274,11,11,0,0,1,1.492-2.22c.428-.45.713-.66.773-.607.075.052-.083.367-.383.907a22.486,22.486,0,0,0-1.072,2.3,50.854,50.854,0,0,0-2.258,8.146c-.165.818-.323,1.62-.48,2.386-.075.39-.158.772-.233,1.14-.067.315-.1.727-.165,1.072-.105.69-.21,1.343-.3,1.951a24.5,24.5,0,0,0,2.678,8.183c6.976.195,15.355,1.973,21.828-1.162-5.768-.713-10.239-1.433-10.239-1.763.03-.278,3.511-.165,8.281.3-1.927-.848-3.113-1.613-3.03-1.808.158-.33,3.36.855,7.366,2.048.24.067.488.135.72.195,4.3.548,8.619.548,12.932.825,3.33.218,6.563,1.193,9.894,1.215a1.169,1.169,0,0,1,.33.053,23.777,23.777,0,0,1,1.47-2.243,15.915,15.915,0,0,1,3.863-3.683c1.185-.7,1.98-.99,2.055-.84.1.157-.532.712-1.515,1.553a30.989,30.989,0,0,0-2.738,2.91c.225-.15.443-.308.668-.458a22.9,22.9,0,0,1,6.076-3.06,6.8,6.8,0,0,1,2.1-.308c.495.023.75.12.758.2s-.27.165-.728.285a15.831,15.831,0,0,0-1.83.66,38.056,38.056,0,0,0-5.671,3.271c-.27.18-.532.36-.8.532Zm44.7-22.706a13.81,13.81,0,0,1-.645,12.647,1.353,1.353,0,0,1-.06.218c-1.02,2.76-3.728,6.211-6.976,6.2a3.956,3.956,0,0,1-3.225.24c-1.3.322-2.281,1.35-3.638,1.522a10.008,10.008,0,0,1-4.373-.87,6.006,6.006,0,0,1-5.2.5c-1.3,4.763-4.523,8.4-8.776,11.822-4.613,3.713-10.614,7.486-16.69,7.771a.991.991,0,0,1-.48.225c-10.389,2.145-20.8-.1-31.189-1.08a1.141,1.141,0,0,1-.435-.128c-5.109.1-11.852,1.913-15.9-2.2a1.063,1.063,0,0,1-.345-.99c-.053-.15-.188-.316-.188-.481v-.045c0-.015.06-.015.045-.03a4.224,4.224,0,0,1-.772-.555,2.256,2.256,0,0,1-.75-1.042,1.971,1.971,0,0,1-.068-.435l.008-.12.007-.128.015-.09a1.12,1.12,0,0,1,1.388-.953c.045.008.075.023.105.03a1.078,1.078,0,0,1,.03-.435,1.212,1.212,0,0,1,.225-.412l.067-.075.038-.038.075-.075.015-.007.037-.023.075-.045c.038-.022.075-.03.113-.052a2.035,2.035,0,0,1,.42-.225,3.254,3.254,0,0,1,.428-.12l.09-.015h.045l.082-.008.158-.015a1.139,1.139,0,0,1,.165-.007l.225.015c.142.015.307.037.427.06.21.06.413.112.608.165a1.627,1.627,0,0,1,.232.075c.045.007.09.015.143.022a1.059,1.059,0,0,1,1.072-.99c.226-.007.443-.022.661-.037a1.092,1.092,0,0,1,.007-.518,1,1,0,0,1,.233-.42,1.138,1.138,0,0,1,.855-.525c5.01-.585,9.736-.075,14.192,2.4a1.176,1.176,0,0,1,.337.285c3.593,1.208,7.666.683,11.394.585,3.661-.1,7.329-.217,10.989-.382a1.345,1.345,0,0,1,.6-.375c1.372-1.7,3.15-3.2,4.313-5.071-3.751-.225-7.434-1.148-11.222-1.29-3.608-.143-7.193-.315-10.771-.78a1.329,1.329,0,0,1-.263.225c-7.126,4.245-16.42,2.213-24.3,2.04a1.078,1.078,0,0,1-.893.488c-3.608.1-7.194-.57-10.8-.645a50.934,50.934,0,0,1-9-.773,1.041,1.041,0,0,1-.577-1.7c.007-8.8.067-17.612-1.208-26.336a1.123,1.123,0,0,1,.18-.825.9.9,0,0,1,.787-1.125c5.686-.81,10.9-3.623,16.7-3.661a1.967,1.967,0,0,1,.247-.09c3.353-.862,6.376-1.755,9.879-1.65.638.015,1.275.06,1.913.105-.352-1,.2-2.025,1.523-2.618a10.871,10.871,0,0,1,5.708-.653c.015-1.155.023-2.317.03-3.473a1.1,1.1,0,0,1,.15-.562,17.289,17.289,0,0,1-4.988-1.883,1.117,1.117,0,0,1-.848-1.358c.75-3.2.525-6.533,1.155-9.773.728-3.7.413-7.359.518-11.1.1-3.526.45-7.456,2.25-10.464-.832-1.7-.4-3.533-.375-5.536.03-3.585,1.441-6.226,2.851-9.459a.881.881,0,0,1,1.08-.555A19.351,19.351,0,0,1,53.883,6.766C58.841,5.9,65.3,6,70.033,7.869l.045.022h.09c5.948.585,11.889-.09,16.84,3.953,4.148,3.376,6.286,8.019,7.748,13.059.008.03.008.053.015.083a.992.992,0,0,1,.15.66c-.382,4.448-1.47,8.724-1.41,13.232.053,4.4.36,8.8.345,13.194a1.246,1.246,0,0,1-.18,1.8c-2.243,1.68-3.773,3.345-5.956,4.253-.525,2.393-.24,4.875-1.11,7.2A37.463,37.463,0,0,0,84.682,70.8c4.831,1.582,12.542,2.827,13.562,8.5a1,1,0,0,1,1.088.533,10.2,10.2,0,0,1,.69,1.523,7.509,7.509,0,0,1,2.265-1.246c-3-6.106,8.327-10.4,12.535-5.79A10.885,10.885,0,0,1,122.84,80.591Zm-2.3,10.937a10.955,10.955,0,0,0,.51-9.406c-1.05-2.536-3.713-5.461-6.691-5.6-.968,1.86-4.913,1.057-5.551,3.008a2.071,2.071,0,0,1-.457.772c2.61,1.171-.975,3.758-.683,5.379.315.052.39-.113.615-.263.263-.172.5-.277.788-.427a5.459,5.459,0,0,0,.735-.518,3.728,3.728,0,0,1,.585-.413c.075-.037.195-.1.233-.12a.356.356,0,0,1,.12-.06c.037.008.105-.1.165-.15l.172-.195c-.007-.015.038-.1.038-.1l.1-.165a2.417,2.417,0,0,0,.12-1.388c-.15-.84-.435-1.373-.292-1.455.06-.038.195.045.382.232a3.225,3.225,0,0,1,.638,1.013,2.89,2.89,0,0,1,.135,1.928c-.038.09-.068.187-.1.277l-.06.143-.03.067-.015.038-.068.1c-.082.1-.135.187-.217.292.247.045.5.083.757.136l.083.015c.2.06.3.1.42.142l.247.09a2.26,2.26,0,0,0,.1-.39c.037-.233.075-.458.112-.675.06-.375.12-.855.165-1.23-.022-.345-.015-.668-.03-.983-.052-.315-.09-.6-.12-.863s-.105-.48-.127-.667c-.06-.375-.06-.608.022-.638s.225.128.435.465a3.6,3.6,0,0,1,.346.63c.1.263.21.57.33.916.075.36.135.78.195,1.23-.008.42-.015.787-.06,1.312a5.285,5.285,0,0,1-.293,1.568,1.626,1.626,0,0,1-.285.375,1.238,1.238,0,0,0,1.028.075,1.436,1.436,0,0,1,1.462.218,2.042,2.042,0,0,1,.75.93l.008-.038c.045-.172.112-.315.165-.465a4.912,4.912,0,0,0,.51-1.335,5.628,5.628,0,0,0-.465-2.408c-.585-1.4-.99-2.325-.818-2.415.143-.068.788.638,1.621,2.033a5.62,5.62,0,0,1,.825,2.873,3.885,3.885,0,0,1-.5,1.65c-.188.352-.57.787-.4,1.215.12.285.57.578.765.818a17.179,17.179,0,0,0,.51-2.618c.12-1.035.21-1.673.36-1.688s.308.615.39,1.725a27.1,27.1,0,0,1-.307,4.021,2.343,2.343,0,0,1,.187.2A3,3,0,0,1,120.545,91.528Zm-.885,2.033a3.649,3.649,0,0,0-.06-.638c-.008,0-.683-1.448-.683-1.448a5.2,5.2,0,0,0-.99-.945,3.206,3.206,0,0,1-.72-.592c-.683-1.043-1.148-2.926-2.738-2.371a1.191,1.191,0,0,1-1.1-.457c-1.792-2.4-3.908-1.05-5.888-.293a.558.558,0,0,1-.69-.39c-.1-.285-.21-.57-.315-.847a.508.508,0,0,1-.008-.525.48.48,0,0,1,.053-.188,13.935,13.935,0,0,0,1.448-2.82.669.669,0,0,0-.053-.173.3.3,0,0,0-.232-.127,2.939,2.939,0,0,0-1.366.277c-.127.053-.262.12-.382.18l-.143.09-.105.083a.232.232,0,0,0-.045.045,8.7,8.7,0,0,0-.69.757,7.329,7.329,0,0,0-1.065,1.621,2.02,2.02,0,0,0-.2.652.416.416,0,0,0,.128.353c.022.067.135.09.2.142a.66.66,0,0,0,.225.1,2.6,2.6,0,0,0,.45.142c.285.068.435.143.442.233s-.15.172-.427.255a1.478,1.478,0,0,1-.563.067.965.965,0,0,1-.382-.037,1.2,1.2,0,0,1-.443-.158,1.376,1.376,0,0,1-.675-1,2.691,2.691,0,0,1,.15-1.163,6.675,6.675,0,0,1,1.185-2.018c.113-.135.24-.247.353-.367a8.982,8.982,0,0,0-3.488,2.145.5.5,0,0,1-.158.1c.405,3.8-.682,7.891-1.35,11.514a1.035,1.035,0,0,1,.03.263,20.142,20.142,0,0,1-.165,2.723c.03.015.067.03.105.052a3.575,3.575,0,0,0,3.683-.308,1.139,1.139,0,0,1,.277-.127,1.017,1.017,0,0,1,.9-.113,4.222,4.222,0,0,1,1.072.405c.368.241,1.163.878.735,0a1.872,1.872,0,0,1,.1-2.31,1.105,1.105,0,0,1,.4-.277.6.6,0,0,1,.345-.06c.2.022.271.075.271.142,0,.143-.323.233-.451.593a1.578,1.578,0,0,0-.082.735c.06.39.443.57.525.937.06.286-.24.706.113.923.547.323,1.447-.975,1.822-1.29.473-.4.923-.75,1.238-1.043.165-.157.338-.27.473-.412a5,5,0,0,1,.36-.353c.217-.187.367-.262.442-.217s.06.217-.022.487c-.045.128-.1.285-.188.465a4.368,4.368,0,0,1-.367.593c-.083.12-.188.247-.285.367a4.2,4.2,0,0,1,.712-.225,1.04,1.04,0,0,1,.8-.082,2.353,2.353,0,0,0,1.906.045.968.968,0,0,1,.8-.278C116.9,97.544,118.76,95.4,119.66,93.561ZM109.841,77.4c.66-.15,2.873-.563,3.443-1.425-2.76-3.016-11.529-.443-8.551,3.87.33.03.7.053,1.065.075a2.6,2.6,0,0,1-.338-.615,3.256,3.256,0,0,1-.2-1.492,2.254,2.254,0,0,1,.3-.931c.112-.18.217-.277.307-.262s.143.15.173.367a7.909,7.909,0,0,0,.12.8,2.907,2.907,0,0,0,.8,1.56c.023-.127.045-.255.068-.367a9.2,9.2,0,0,0,.187-1.028c.083-.533-.045-.863.09-.99.09-.105.578.165.75.923.015.075.023.172.038.255C108.408,77.621,109.323,77.516,109.841,77.4Zm-14.32,1.943c.383-.84-1.477-.615-1.792-.66a10.447,10.447,0,0,1-4.073-1.448c-.863-.578-1.973-.893-2.776-1.448a6.78,6.78,0,0,1,2.828.12,13.261,13.261,0,0,0,2.678.81,22.386,22.386,0,0,0,2.43.465c.308.015-.3-.75-.33-.78a3.352,3.352,0,0,0-1.44-.48,18.328,18.328,0,0,1-2.61-1.1c-2.266-.863-4.681-1.253-6.961-2.055-.405.937-.893,1.455-1.118,1.38-.158-.053-.18-.375-.12-.833a4.643,4.643,0,0,1-1.215.976c-.743.405-1.215.375-1.29.232-.09-.157.322-.473.757-.945a10.508,10.508,0,0,0,1.545-2.123c.158-.27.293-.54.421-.8a58.59,58.59,0,0,1,1.987-5.933,35.061,35.061,0,0,0,.893-5.986c-.293.037-.6.06-.923.075A18.3,18.3,0,0,1,76.4,57.623c-.067,5.558-.232,11.117-.03,16.675.15,4.126,1.673,6.271,6.1,6.323,2.047.023,5.963.556,7.658-.825a.434.434,0,0,1,.12-.082,1.773,1.773,0,0,0-.172-.09,2.955,2.955,0,0,0-.375-.143c-.3-.112-.616-.232-.923-.36-1.215-.51-2.318-.982-3.121-1.32-.727-.315-1.32-.465-1.3-.653.022-.157.54-.345,1.523-.217a14.3,14.3,0,0,1,3.367,1.02c.308.128.608.255.9.375a3.777,3.777,0,0,1,.48.225,2.458,2.458,0,0,1,.48.345,1.741,1.741,0,0,1,.382.51C92.071,79.406,95.214,80.021,95.521,79.339ZM92.671,25.7a1.216,1.216,0,0,1-.083-.2c-1.365-4.7-3.45-9.834-7.831-12.527-4.605-2.828-9.443-2.326-14.589-2.836a1.438,1.438,0,0,1-.18-.037.835.835,0,0,1-.195.007,8.881,8.881,0,0,0-.848.33c-.51.195-1.163.495-1.778.713a19.128,19.128,0,0,1-6.728.953c-1.725-.06-2.768-.233-2.768-.4s1.065-.315,2.738-.488a27.8,27.8,0,0,0,6.338-1.26c.405-.143.765-.285,1.14-.435a33.579,33.579,0,0,0-12.429-.683,17.632,17.632,0,0,0-12.249,6.976,1.117,1.117,0,0,1-.18.188,19.1,19.1,0,0,0-1.8,6.908c-.06,1.358-.555,3.376.277,4.606.045-.12.083-.233.128-.36l.082-.248.03-.082V26.8l.008-.03.015-.067c.03-.165.067-.338.105-.51a12.5,12.5,0,0,1,.6-2.348,10.64,10.64,0,0,1,.607-1.208c.113-.2.2-.367.285-.532a2.2,2.2,0,0,0,.255-.533,9.062,9.062,0,0,0,.481-2.58,6.83,6.83,0,0,1,.84-2.918,8.48,8.48,0,0,1,1.852-2.041,8.92,8.92,0,0,1,4.216-1.777,13.541,13.541,0,0,1,3.008-.15c.7.06,1.088.135,1.088.225,0,.217-1.583.217-3.916.8a8.96,8.96,0,0,0-3.66,1.808,7.75,7.75,0,0,0-.826.825l-.18.2-.2.27a2.723,2.723,0,0,0-.345.525,6.046,6.046,0,0,0-.622,2.385,10.011,10.011,0,0,1-.563,2.843,10.006,10.006,0,0,1-.675,1.268,9.081,9.081,0,0,0-.563,1.027,13.091,13.091,0,0,0-.667,2.146c-.045.187-.1.367-.143.54l-.052.18-.053.12-.1.232c-.135.315-.255.615-.39.9a14.472,14.472,0,0,1-1.365,2.078c-2.236,4.073-1.373,10.284-1.471,14.575-.075,3.083-.982,6-1.125,9.069a41.362,41.362,0,0,1-.51,5.3,10.112,10.112,0,0,0,5.431,1.531c1.7-.15,3.353-.48,5.048-.668,1.8-.2,4.516-.06,5.213-1.688a4.564,4.564,0,0,0-.817-1.612A22.881,22.881,0,0,1,50.9,54.75c-.5-.8-1.028-1.582-1.441-2.34-.21-.383-.427-.758-.63-1.118-.1-.18-.2-.352-.292-.525-.113-.165-.225-.322-.33-.48a33.382,33.382,0,0,0-2.693-3.2,19.69,19.69,0,0,1-1.83-2.265c-.361-.585-.526-.93-.451-.983s.36.188.841.683c.487.457,1.177,1.117,2.077,1.935a23.755,23.755,0,0,1,3,3.151c.12.165.247.337.375.51.112.18.225.367.337.555.218.36.435.727.66,1.1.436.765.931,1.486,1.411,2.258a18.206,18.206,0,0,0,1.492,2.025c.03-1.132.105-2.122.173-2.91.12-1.418.255-2.25.382-2.25s.241.832.323,2.265c.008.218.023.458.03.705.045-.232.09-.457.135-.69l.09-.525.06-.488a16.453,16.453,0,0,0,.15-1.942c.015-.66.023-1.313.038-1.958l.007-.473.023-.487c.022-.308.037-.615.045-.908a7.478,7.478,0,0,0-.42-3.173,4.488,4.488,0,0,0-.736-1.215c-.315-.39-.615-.765-.9-1.118-.592-.727-1.125-1.38-1.575-1.973-.405-.607-.75-1.14-1.02-1.582-.548-.878-.818-1.388-.75-1.44s.472.36,1.14,1.147c.338.4.743.885,1.2,1.455.495.533,1.058,1.141,1.68,1.808.15.165.308.338.473.51.165.188.33.375.51.57a5.415,5.415,0,0,1,.938,1.418,8.366,8.366,0,0,1,.63,3.616c0,.315-.015.622-.023.937l-.015.458v.48c0,.637-.007,1.29-.007,1.95a18.467,18.467,0,0,1-.135,2.093l-.075.54-.075.5c-.068.345-.143.7-.21,1.05-.038.187-.068.36-.1.54.015-.008.023-.008.03-.015.135-.308.263-.615.383-.93.082-.345.18-.72.307-1.118.135-.42.3-.863.48-1.32.06-.233.12-.458.173-.69a19.514,19.514,0,0,0,.5-5.289c-.03-1.522-.127-2.767-.142-3.623s.007-1.327.082-1.335.2.458.36,1.29.376,2.063.526,3.623c.045.39.075.8.082,1.231a11.358,11.358,0,0,1,.015,1.35c0,.067-.007.142-.007.217.06-.09.12-.18.18-.262.232-.338.465-.645.652-.968a3.373,3.373,0,0,0,.428-.975c.03-.18.075-.323.1-.54l.068-.653a26.982,26.982,0,0,0-.27-8.686c-.465-2.183-1.065-3.465-.878-3.57.1-.06.78.8,1.433,2.46a34.992,34.992,0,0,0-.833-5.6,14.921,14.921,0,0,0-2.655-5.521c-.96-1.222-1.778-1.942-1.635-2.092.06-.068.307.03.712.262a8.31,8.31,0,0,1,1.59,1.23,11.016,11.016,0,0,1,1.838,2.386,13.886,13.886,0,0,1,1.35,3.315c-.21-1.193-.427-2.378-.7-3.555-.247-1.036-.8-2.566-.255-3.623,1.155-2.258,4.238-3.473,6.541-4.224,3.293-1.072,7.246-1.6,10.449.113C79.934,19.8,79.2,21.37,80.354,24.6c.113.052.225.105.338.15a3.882,3.882,0,0,1-.188-.51,4.328,4.328,0,0,1-.15-.975,3.348,3.348,0,0,1,.2-1,4.882,4.882,0,0,1,.968-1.531c.165-.187.322-.375.48-.555l.225-.292.113-.143c.015-.015.045-.052.045-.052l.03-.06a2.067,2.067,0,0,0,.24-1.943,9.732,9.732,0,0,0-.7-1.463c-.2-.36-.285-.585-.218-.637s.278.06.593.322a5.064,5.064,0,0,1,1.148,1.418,2.324,2.324,0,0,1,.24.607,2.053,2.053,0,0,1,.112.728,3.011,3.011,0,0,1-.42,1.575c-.495.908-1.418,1.681-1.673,2.461a2.012,2.012,0,0,0-.12.585,4.312,4.312,0,0,0,.075.592,5.569,5.569,0,0,0,.518,1.268c.09.18.2.353.293.525a13.574,13.574,0,0,1,1.23.773,6.3,6.3,0,0,1,.277-1.793c.39-1.193.9-1.673,1.043-1.62.187.06-.068.795-.165,1.807a8.368,8.368,0,0,0,.007,1.838c.03.248.083.51.128.765a9.469,9.469,0,0,1,1.823,2.131,14.378,14.378,0,0,1,1.98,7.231c.48-1.238.893-2.348,1.163-3.3.562-1.83.675-3.12.877-3.1.135.015.368,1.238-.007,3.3A48.989,48.989,0,0,1,88.5,41.2l-.247.72a32.586,32.586,0,0,1-1.4,4.7,5.176,5.176,0,0,0,.54-.33,9.222,9.222,0,0,0,1.043-.818c.555-.488.825-.81.93-.758.083.045-.037.495-.5,1.14a6.292,6.292,0,0,1-.967,1.073,3.657,3.657,0,0,1-1.56.923,13.893,13.893,0,0,1-3.368,4.785c-2.4,2.086-4.329,2.266-6.541,1.351,0,.382,0,.757-.008,1.132a14.336,14.336,0,0,0,9.437,1.3c2.49-.5,3.975-2.2,5.768-3.735,0-.038-.008-.06-.008-.1.038-4.568-.375-9.128-.352-13.7C91.283,34.362,92.273,30.162,92.671,25.7Zm-6.2,13.291a18.165,18.165,0,0,0-.27-5.348c-.06-.09-.12-.187-.18-.292a21.252,21.252,0,0,1-1.553-3.218,6.261,6.261,0,0,0-.593-.593A24.773,24.773,0,0,0,75,25.039c-6.69-1.741-9.331,4.44-9.766,10.081-.21,2.753-.337,5.873.743,8.469,1.71,4.11,4.845,4.388,8.123,6.488,2.213,1.41,4.621,3.848,7.276.96A15.367,15.367,0,0,0,83.7,47.819,23.249,23.249,0,0,0,86.468,38.99ZM77.444,23.478q.742.259,1.508.54c-.961-2.7-1.771-5.258-5.236-5.858a13.8,13.8,0,0,0-7.554.675c-3.893,1.553-6.173,2.7-5.221,7.816.361,1.943.691,3.893,1.043,5.836a2.3,2.3,0,0,1,.653-.27c-.263-1.973-1.028-3.871-1.095-5.888a1.5,1.5,0,0,1,.022-.263c-.007-.037-.015-.067-.022-.112-.263-3.248,2.925-5.251,5.55-6.354,3.466-1.455,7.261-1.522,10,1.373a1.043,1.043,0,0,1,.293.57,1.3,1.3,0,0,1,.165.54A5.151,5.151,0,0,1,77.444,23.478ZM75.276,22.8a3.88,3.88,0,0,0,.023-.428c-1.973-1.9-4.629-1.853-7.067-.825-1.837.773-4.628,2.063-4.44,4.411a1.211,1.211,0,0,1-.008.285c0,.03.008.06.008.09a14.96,14.96,0,0,0,.472,2.933C66.035,24.626,69.568,21.453,75.276,22.8Zm-1.1,30.229A1.031,1.031,0,0,1,74.2,52.8l-.353-.218c-4.005-2.565-8.431-3.255-10.036-8.393a20.506,20.506,0,0,1-.713-3.211.985.985,0,0,1-1.057-.045,3.481,3.481,0,0,1-1.088-1.207,23.287,23.287,0,0,1-.06,5.385,11.961,11.961,0,0,1-.2,1.366,4.733,4.733,0,0,1-.592,1.3c-.24.39-.5.712-.735,1.02a10.165,10.165,0,0,0-.63.915c-.338.593-.653,1.185-.938,1.755-.09.413-.2.833-.308,1.253-.052.217-.12.443-.187.66.007,0,.007,0,.007-.007.2-.158.39-.316.578-.473.21-.143.405-.278.6-.413a12.127,12.127,0,0,1,1.08-.682,10.3,10.3,0,0,1,1.635-.78c.391-.15.623-.2.661-.135s-.128.247-.45.51-.818.607-1.4,1.072a11.309,11.309,0,0,0-.937.766c-.173.135-.338.277-.518.427-.172.165-.352.338-.54.51-.1.1-.217.21-.323.315.638-.007,1.223.03,1.793.038.728.015,1.418.067,2.071.127,1.3.135,2.445.263,3.405.338s1.7.075,2.265.06.863.007.878.09-.263.225-.788.4a10.429,10.429,0,0,1-2.37.353c-1,.037-2.183-.008-3.473-.075-.638-.03-1.313-.053-1.995-.053-.7.008-1.463-.037-2.138,0a4.239,4.239,0,0,0-.968.158,15.2,15.2,0,0,0,10.119,1.133c2.641-.676,4.981-2.063,7.674-2.543C74.166,54.023,74.173,53.52,74.173,53.025Zm-.06,8.754q.034-2.487.053-4.973c-3.383.757-6.339,2.67-9.9,2.827A18.545,18.545,0,0,1,55.8,58.126a3.892,3.892,0,0,1-2.446,3.443,1.173,1.173,0,0,1,.068.33,23.545,23.545,0,0,1-.09,3.42C60.139,62.521,66.605,59.506,74.113,61.779Zm-.03,2.43v-.1h-.022c-7.254-2.431-13.472.6-19.976,3.308C60.919,66.744,67,62.821,74.083,64.209Zm-.037,4.411c0-.45.007-.9.007-1.35a59.692,59.692,0,0,0-2.94,5.4c.93.09,1.868.158,2.805.195C73.941,71.38,74.038,69.917,74.046,68.62Zm-1.92-2.438c-6.661-.63-12.782,3.39-19.466,3.578-.127.682-.262,1.365-.4,2.04,4.1.218,8.213-.015,12.309.248,1.38.09,2.745.232,4.111.375a.164.164,0,0,0,.015-.03C69.868,70.322,70.843,68.17,72.126,66.182Zm-.255,52.575a17.1,17.1,0,0,0-2.963-4.778,1.172,1.172,0,0,1-.3.052c-4.771.218-9.549.353-14.32.465-3.36.083-6.7.3-9.856-1a1.234,1.234,0,0,1-.555-.45c-3.128-1.635-6.384-1.965-9.834-2.175-.54-.03-1.058-.075-1.606-.068.263.248.233.39.008.51a5.914,5.914,0,0,1-1.433.09c-.24.038-.48.06-.705.113.105.48,1.178.487,1.208.84.06.578-3.646.548-3.938.51-.143-.015-.24-.007-.42-.037-.12-.023-.233-.045-.353-.075a1.913,1.913,0,0,0-.465.022l.1.083a1.245,1.245,0,0,0,.15.127c.172.105.352.21.532.3a5.317,5.317,0,0,0,.623.27,4.1,4.1,0,0,0,.63.135c.952.173,1.778.338,2.475.42,1.395.218,2.265.075,2.318.27.038.1-.39.353-1.17.51-.03.053-.188.075-.45.068a7.08,7.08,0,0,1-.743.052,14.1,14.1,0,0,1-1.635-.067h-.09c-.21-.023-.428-.045-.653-.075l-.225-.023a6.05,6.05,0,0,1-.817-.135,9.563,9.563,0,0,1-1.02-.18c-.293-.082-.556-.135-.886-.255-.33-.135-.562-.262-.81-.36-.037-.015-.082-.03-.12-.045l-.03.053c.008.052-.022,0-.022.022a2.184,2.184,0,0,0,.975.878c.24.127.48.247.735.367l.188.09c.022.008.112.045.172.075s.128.053.2.075c.353.083.683.188.975.263a6.671,6.671,0,0,0,1.906.1c.322-.022.63-.037.922-.052a3.857,3.857,0,0,1,1.283.03c.315.1.622.345.945.472-.188.473-1.74.511-2.228.511-1.253,0-2.52-.345-3.75-.3-.045.435.307.525.577.757a4.38,4.38,0,0,0,2.138.893,20.821,20.821,0,0,0,5.828.247c1.23-.09,2.468-.18,3.7-.33.855-.1,1.7-.255,2.558-.352l.2-.023a11.26,11.26,0,0,1,2.055.128c1.77.2,3.548.42,5.318.645C56.7,119.342,64.369,120.235,71.871,118.757Zm-9-80.082a27.439,27.439,0,0,1,.15-4.073A4.02,4.02,0,0,0,62.869,38.675ZM48.962,79.159c.33-5.731,2.416-11.214,2.213-16.983a.794.794,0,0,1-.135.023,59.5,59.5,0,0,1-7.884.982,1.145,1.145,0,0,1,.075.405c-.015,4.786-.172,9.557.173,14.335a5.7,5.7,0,0,0,.323.9A3.07,3.07,0,0,0,45.4,80.374c.285.1.555.21.773.277.2.075.307.165.307.248s-.12.172-.322.24a2.255,2.255,0,0,1-.945.105,3.041,3.041,0,0,1-2.183-1.185,55.3,55.3,0,0,1-6.661,5.3,30.432,30.432,0,0,0-4.576,3.226c.038-.023.068-.045.1-.068.525-.285,1.013-.518,1.426-.7.832-.323,1.387-.443,1.47-.285.232.435-2.8,1.935-3.151,2.213a9.336,9.336,0,0,1-.99.817,5.182,5.182,0,0,0-.937.555.7.7,0,0,0,.015,1.118,1.2,1.2,0,0,0,.63-.045,14.051,14.051,0,0,0,2.37-1.613c.292-.172.51-.352.743-.5a6.637,6.637,0,0,1,1.3-.743c.585-.352.953-.517,1.02-.427.105.15-.585.855-.69.975a7.529,7.529,0,0,1-1.267,1.072,6.134,6.134,0,0,0-.9.743,7.494,7.494,0,0,1-2.287,1.658,8.321,8.321,0,0,0-.758.412c-.075.045-.232.1-.27.173-.105.24.113.315.3.36a4.386,4.386,0,0,0,2.168-.458,8.716,8.716,0,0,0,1.178-.517c.33-.18.562-.45.892-.645.93-.555,1.748-1.126,2.423-1.613.773-.548,1.35-.983,1.733-1.253a.446.446,0,0,0,.06-.045l.067-.045c.083-.052.15-.1.21-.127.683-.42,1.095-.585,1.14-.5.068.1-.33.51-1,1.148-.322.367-.7.772-1.185,1.267a10.911,10.911,0,0,1-.787.766,9.951,9.951,0,0,1-2.183,1.56,6.187,6.187,0,0,0-.915.48c-.113.075-.465.232-.495.4-.075.39.615.39.855.405a1.573,1.573,0,0,0,.832-.278c.63-.315,1.3-.54,1.951-.84.57-.255,1.02-.622,1.6-.862a19.058,19.058,0,0,0,3.023-1.778l1.245-.908a9.5,9.5,0,0,1,1.68-1.627c.668-.48,1.14-.676,1.26-.548s-.157.57-.63,1.193-1.162,1.44-1.755,2.385a7.754,7.754,0,0,0-.375.683c1.215,2.933,2.685-.218,3.18-.855,1.088-1.4,2.671-2.956,3.046-4.771C49.667,84.327,48.805,81.769,48.962,79.159Zm-8.033-8.311v-1.5a9.554,9.554,0,0,0-3.691.075,4.579,4.579,0,0,0-1.088.338c-.007.007-.045.022-.09.045a1.087,1.087,0,0,1,.345.727C37.913,70.66,39.421,70.78,40.929,70.848Zm-17.163,2.88L22.724,74a1.1,1.1,0,0,1-.683.218c-5.491-.083-10.442,2.55-15.767,3.465.457,3.338.75,6.676.922,10.014,4.936-.173,9.7-2.438,14.612-2.415C22.236,81.372,23.009,77.478,23.766,73.728Zm.668,31.054c-1.058-.022-2.446-7.373-2.581-8.288A42.043,42.043,0,0,1,21.7,86.405c-4.853.015-9.571,2.228-14.447,2.415.217,4.928.225,9.864.225,14.807,3.278.51,6.563.39,9.879.593C19.731,104.355,22.063,104.73,24.434,104.782Z"/><path d="M85.042,33.56a1.924,1.924,0,0,1-.172,1.065,1.189,1.189,0,0,1-.6.5,1.9,1.9,0,0,1-.33.083c.112.21.225.42.33.653a5.55,5.55,0,0,1,.555,2.077v.548c-.038.18-.075.352-.113.532a1.517,1.517,0,0,1-.157.5c-.075.157-.143.307-.21.465l-.03.052-.023.045-.015.023-.06.09a2.166,2.166,0,0,1-.172.232,4.306,4.306,0,0,1-.338.33c-.195.188-.24.24-.285.383-.037.127-.067.247-.1.367a2.459,2.459,0,0,0-.045.3c-.038.18-.045.428-.068.63a7.738,7.738,0,0,1-.292,2.093c-.173.488-.36.713-.435.683-.09-.038-.068-.308-.053-.773a17.842,17.842,0,0,0-.112-2,5.573,5.573,0,0,1-.015-.735,3.442,3.442,0,0,1,.03-.412c.022-.128.037-.248.06-.375a1.506,1.506,0,0,1,.21-.54,3.239,3.239,0,0,1,.315-.405,2.113,2.113,0,0,0,.232-.263c.023-.037.038-.022.075-.105l.053-.09.015-.03.015-.045a3.376,3.376,0,0,0-.2-3.053c-.233-.525-.525-1.043-.8-1.56l-.623-1.193,1.3.285c.4.083.855.33,1.073-.142.322-.705-.773-2.153-1.26-2.536-.495-.412-.983-.675-1.3-.9s-.488-.367-.458-.442.255-.053.63.037a6.417,6.417,0,0,1,1.591.63,2.849,2.849,0,0,1,.5.345c.082.068.172.135.255.2.082.09.157.18.232.27s.165.187.233.292.12.225.18.346a2.651,2.651,0,0,1,.255.765,3.059,3.059,0,0,1,.075.375C85.012,33.267,85.027,33.417,85.042,33.56Z"/><path d="M73.521,47.917c.5.7.99.847.96.982-.008.045-.158.083-.42.03a2.362,2.362,0,0,1-1.013-.585,7.958,7.958,0,0,1-1.785-2.82,1.232,1.232,0,0,1-.233.045,1.384,1.384,0,0,1-.99-.315,3.4,3.4,0,0,1-.915-1.328,13.459,13.459,0,0,1-.8-2.91.123.123,0,0,1-.008-.053.877.877,0,0,1-.345-.052,1.2,1.2,0,0,1-.3-.18,2.061,2.061,0,0,1-.173-.188,2.9,2.9,0,0,1-.427-1.177l-.038-.27a1.481,1.481,0,0,1-.022-.286c.007-.172.007-.337.015-.51a5.4,5.4,0,0,1,.1-.952,18.3,18.3,0,0,1,.862-3.053c.293-.833.511-1.463.661-1.928.135-.48.247-.735.33-.72s.127.285.135.78a11.855,11.855,0,0,1-.3,2.1,29.22,29.22,0,0,0-.57,2.971,5.006,5.006,0,0,0-.046.832c.008.143.008.285.008.428-.015-.015.015.142.022.18l.038.2a2.833,2.833,0,0,0,.09.352l.833-1.02.225,1.4c.052.308.1.615.15.93a15.019,15.019,0,0,0,.682,2.656,2.591,2.591,0,0,0,.525.9c.09.075.128.09.173.09a.541.541,0,0,0,.27-.105l.645-.42.2.682A11.077,11.077,0,0,0,73.521,47.917Z"/><path d="M52.825,50.07c.27,1.387.12,2.257-.03,2.265-.2.015-.367-.8-.832-2.018A17.281,17.281,0,0,0,51,48.254,24.788,24.788,0,0,0,49.487,45.9c-1.192-1.613-2.415-2.985-3.278-4.028-.862-1.028-1.357-1.725-1.23-1.853s.833.345,1.868,1.23a23.715,23.715,0,0,1,3.66,3.908,16.1,16.1,0,0,1,1.538,2.573A10.79,10.79,0,0,1,52.825,50.07Z"/></g><text x="0" y="143" fill="#000000" font-size="5px" font-weight="bold" font-family="'Helvetica Neue', Helvetica, Arial-Unicode, Arial, Sans-serif">Created by Hey Rabbit</text><text x="0" y="148" fill="#000000" font-size="5px" font-weight="bold" font-family="'Helvetica Neue', Helvetica, Arial-Unicode, Arial, Sans-serif">from the Noun Project</text></svg>