<svg xmlns="http://www.w3.org/2000/svg" viewBox="0 0 128 160" x="0px" y="0px"><g><path d="M124,90.45a2.324,2.324,0,0,1-.216,1.194c-.7,1.319-2.28,1.079-3.5,1.07-4.3-.016-8.609-.016-12.913-.025Q94.445,92.64,81.536,92.6c-1.2-.008-2.413-.008-3.616-.008a1.378,1.378,0,0,1-1.045.356.027.027,0,0,0-.024.009c-7,1.625-14.348,1.211-21.48,1.426a96.492,96.492,0,0,1-11.892,0c-3.027-.29-5.905-1.186-8.9-1.708a1.08,1.08,0,0,1-.689-.382c-.008-.008-.016-.008-.025-.016-5.929-4.205-8.906-9.322-8.492-16.694,0-.05.017-.092.017-.133a27.972,27.972,0,0,1-3.757-2.314,1.706,1.706,0,0,1-.174-.166c-.348-.365-4.138.855-4.719.979a38.3,38.3,0,0,1-5.391.838c-2.894.174-6.335.2-6.916-3.235-.887-5.291-.149-10.855-.108-16.18a1.173,1.173,0,0,1,1.095-1.194c.008,0,.016-.008.033-.008.746-.149,1.493-.257,2.248-.34-1.419-4.951-2.654-22.616,4.32-21.637a1.139,1.139,0,0,1,.548.224,1.251,1.251,0,0,1,.68.108c8.7,3.889,17.407,7.721,26.446,10.756a.732.732,0,0,1,.141.066c.365-.19.738-.365,1.112-.539,1.8-.821,4.669-2.388,6.626-1.094A4.349,4.349,0,0,1,49.019,43.3a93.136,93.136,0,0,1,10.093-4.172,2.461,2.461,0,0,1,.87-.066,5.942,5.942,0,0,1,2.356,1.12c3.9-2.09,8.011-5.913,12.613-5.814,3.218.075,4.122,2.455,5.225,5.092.489.63,2.082.365,2.77.5a3.671,3.671,0,0,1,2.289,1.393,5.694,5.694,0,0,1,6,2.546c2.04.862,4.445-1.269,6.5.1a7.9,7.9,0,0,1,3.4,4.081,10.85,10.85,0,0,1,.066,5.133c-.472,2.488-.638,5.034-1.227,7.5a1.384,1.384,0,0,1-.208.448c3.417,2.189,5.308,5.921,8.708,8.185,3.782,2.53,8.526,6.353,13.244,6.378a1.334,1.334,0,0,1,.332.041,1.188,1.188,0,0,1,1.327,1.2c-.025,3.217-.207,6.435-.1,9.661C123.317,87.7,123.947,89.206,124,90.45Zm-2.927-.224a100.623,100.623,0,0,1-.2-12.058c-4.263-.34-7.995-3.06-11.528-5.291-.423-.265-.838-.539-1.26-.813.8,1.85,1.028,3.309.746,3.417-.382.133-1.385-1.75-2.579-4.014-.232-.423-.448-.821-.655-1.194a17.191,17.191,0,0,1-2.132-2.057,23.95,23.95,0,0,0-4.992-4.951c-2.588,3.376-6.1,6.054-8.7,9.446-2.04,2.654-4.229,5.167-7.8,5.217a1.2,1.2,0,0,1-.531-.1,30.342,30.342,0,0,1-4.263-.746,2.762,2.762,0,0,1-1,2.255,33.807,33.807,0,0,0-5.15,4.106,17.443,17.443,0,0,1-3.516,2.828c2.811,2.056,6.493,2.065,9.354,3.823C90.675,90.1,114.485,90.193,121.07,90.226ZM98.479,54.2c.34-1.758,1.1-4.2.066-5.872-1.8-2.894-3.416-1.849-6-1.724a4.936,4.936,0,0,1-2.761-.631,1.519,1.519,0,0,0-.141-.091c-.009-.017-.025-.017-.034-.025a1.068,1.068,0,0,1-.364-.439c-.722-1.269-2.488-2.273-3.873-1.452a1.127,1.127,0,0,1-1.452-.19,1.1,1.1,0,0,1-.389-.465c-.556-1.169-1.576-.9-2.687-1.045A3.606,3.606,0,0,1,78,40.683a1.247,1.247,0,0,1-.2-.514c-.531-1.277-1.045-3.508-2.845-3.309a12.872,12.872,0,0,0-4.9,1.659c-2.38,1.352-4.611,2.935-7.074,4.138a1.225,1.225,0,0,1-1.177-.033.93.93,0,0,1-.564-.174,4.874,4.874,0,0,0-1.551-.879,97.7,97.7,0,0,0-10.25,4.262l-.092.025a4.462,4.462,0,0,1-.132.448c-.987,2.438-2.7,3.541-4.636,4.934,5.564,2.978,11.9,1.85,17.83,3.757,3.823,1.228,7.447,3.168,7.439,7.63A1.16,1.16,0,0,1,68.8,63.813c-.017.016-.025.033-.041.05.091.024.182.058.281.091a4.935,4.935,0,0,1,.83.4,2.955,2.955,0,0,1,1.318,1.716,5.132,5.132,0,0,1,.166,1l.033.473-.016.489a2.3,2.3,0,0,1-.042.514,2.611,2.611,0,0,1-.116.564,1.837,1.837,0,0,1-.3.639,3.161,3.161,0,0,1-.249.323c-.108.083-.224.166-.34.241a1.978,1.978,0,0,1-.589.24,1.88,1.88,0,0,1,.166.506,2.9,2.9,0,0,1-.174,1.443,2.333,2.333,0,0,1-.423.8,20.558,20.558,0,0,1,2.936.232c3.209.531,6.269,1.617,9.528,1.841a1.932,1.932,0,0,1,.316.058c3.673-.132,5.614-4.3,7.671-6.808,2.388-2.911,5.647-4.951,7.663-8.186a.991.991,0,0,1,.116-.149c.008-.074.016-.157.033-.24C98.031,58.124,98.106,56.142,98.479,54.2ZM74.719,76.758a1.828,1.828,0,0,1,.042-.24c-.606-.133-1.211-.257-1.825-.357-3.591-.6-7.182-.166-10.8-.1a.969.969,0,0,1-.274-.017c-.531,2.911-3.226,4.163-6.742,4.536-.473,1.916-1.5,5.656,1.874,6.171a8.771,8.771,0,0,0,4.188-.415,22.355,22.355,0,0,0,5.871-2.712c1.717-1.227,2.853-2.861,4.379-4.271C72.314,78.541,74.636,78.118,74.719,76.758Zm-1.866,14.4a22.419,22.419,0,0,1-3.151-.879,15.263,15.263,0,0,1-4.553-2.745,22.562,22.562,0,0,1-3.3,1.2c-6.692,1.866-10.308-1.792-9.263-8.028-6.245.033-13.808-1.767-16.744-1.908a1.805,1.805,0,0,1-.232-.041,1.329,1.329,0,0,1-.406-.008,37.462,37.462,0,0,1-7.373-2.165c-.066,5.913,2.347,10.035,7.3,13.543a1.893,1.893,0,0,1,.191.166c3.765.655,7.273,1.625,11.146,1.675,3.466.05,6.916-.042,10.374-.116C62.13,91.744,67.579,91.91,72.853,91.155ZM69.66,67.545l-.016-.382a3.032,3.032,0,0,0-.075-.647A1.291,1.291,0,0,0,69,65.695a5.567,5.567,0,0,0-1.161-.547c-.448-.124-.879-.265-1.3-.4a7.832,7.832,0,0,1-1.874,0,24.643,24.643,0,0,1-4.968-1.377c-.837-.29-1.609-.547-2.363-.73a11.557,11.557,0,0,0-2.223-.3,19.808,19.808,0,0,1-4.18-.423A4.443,4.443,0,0,1,48.4,60.28a2.114,2.114,0,0,1-.365-.7c-.05-.174-.058-.282-.008-.323s.157,0,.307.107a7.133,7.133,0,0,0,.588.44,4.725,4.725,0,0,0,2.264.862,30.917,30.917,0,0,0,3.956.009A11.542,11.542,0,0,1,57.7,60.9a20.819,20.819,0,0,1,2.587.755c1.311.464,2.53.912,3.666,1.21a1.924,1.924,0,0,1-.257-.2,1.66,1.66,0,0,1-.3-.331,4.383,4.383,0,0,1-.257-.457,2.118,2.118,0,0,1-.091-.456,1.367,1.367,0,0,1,.074-.58,1.21,1.21,0,0,1,.73-.73,1.672,1.672,0,0,1,.647-.1c.406.024,1.526.29.747.754-.407.249-1.17.133-.954.846.282.921,1.418.738,2.056,1.227a4.588,4.588,0,0,0,.506.324l.175-.025.207-.041c.058-.017.141-.034.191-.05a1.317,1.317,0,0,1-.075-.423c.017-5.98-9.91-6.046-13.908-6.477-4.063-.44-7.82-1.161-11.287-3.442a1.152,1.152,0,0,1-.24-.207c-.257-.008-.531-.008-.8-.017-1.211-.058-2.157-.232-2.862-.282-.613-.083-1.161-.008-1.219-.207-.049-.166.241-.556,1.128-.78,1.451-.364,3.127-.008,4.354-1.036a25.116,25.116,0,0,0,3.317-2.911c1.2-1.485,1.136-4.163-1.368-3.243a20.858,20.858,0,0,0-2.264.929,79.433,79.433,0,0,0-8.65,5.208,1.143,1.143,0,0,1-.5.473,68.465,68.465,0,0,0-9.869,5.54,4.808,4.808,0,0,1,.539.672c.307.547.34.945.2,1.061-.158.124-.506-.108-.97-.439-.423-.274-1.037-.681-1.742-1.087-4.8-.124-9.653-.713-14.413.075-.108,5.117-.606,10.267.074,15.359C10.73,73.325,16,71.534,20.142,70.7c-1.426-.53-2.38-1.144-2.28-1.443.116-.373,1.708-.157,3.524.39,1.825.531,3.268,1.078,3.21,1.476-.017.183-.44.282-1.095.274A31.68,31.68,0,0,0,35.692,76.31a.927.927,0,0,1,.149,0c2.878.133,15.243,2.928,20.849,1.385-.1-.041-.2-.091-.3-.132l-.049-.025-.025-.017a.491.491,0,0,1-.067-.041c-.008-.008-.066-.05-.066-.05l-.116-.091a1.713,1.713,0,0,1-.348-.415,1.221,1.221,0,0,1-.067-1.119,1.716,1.716,0,0,1,.979-.838c.589-.207.987-.108,1.037.066.058.191-.2.432-.515.78-.406.406-.5,1,.183,1.178,1.294.356,2.156-.987,2.148-2.132a.962.962,0,0,1,.016-.224c-.058-.008-.116-.025-.165-.033-.54-.116-1.062-.232-1.584-.348-.622-.1-1.2-.2-1.7-.307a18.6,18.6,0,0,1-1.973-.506c-.233-.05-.465-.1-.68-.149-.9-.125-1.759-.29-2.563-.382-.813-.049-1.567-.132-2.256-.157-.688,0-1.318-.009-1.874-.025-.556,0-1.053.033-1.451.025-.8.008-1.252-.05-1.269-.174s.4-.307,1.178-.523c.389-.1.854-.24,1.418-.34.572-.083,1.227-.166,1.957-.249.73-.058,1.534-.049,2.4-.058.854.025,1.766.141,2.736.232,1.875.307,3.807.7,5.93,1.161,1.037.042,2.148.083,3.325.125,1.327-.025,2.629.058,3.683,0,.141-.008.265-.025.389-.042.017-.008.025-.024.042-.033a5.514,5.514,0,0,1-1.286-.033,8.159,8.159,0,0,1-1.409-.282,2.141,2.141,0,0,1-1.228-.821.888.888,0,0,1-.1-.746.845.845,0,0,1,.24-.39c.191-.133.315-.166.4-.108s.091.2.083.365c.025.075.008.174.05.224.025.066.083.05.116.058a3.461,3.461,0,0,0,.738.166c.4.05.838.1,1.294.149a9.231,9.231,0,0,0,1.211.116,1.64,1.64,0,0,0,.663-.1c.033-.025.058-.058.091-.083a2.452,2.452,0,0,0-.008-.257.925.925,0,0,0-.323-.514c-.067-.05-.15-.108-.233-.158-.439-.083-.879-.166-1.327-.249-1.235-.274-2.438-.547-3.607-.8-.564-.133-1.169-.208-1.733-.315L60.239,69l-.165-.033-.216-.017-.838-.1c-2.214-.274-4.213-.481-5.863-.788-3.3-.63-5.324-1.145-5.291-1.393s2.131-.183,5.474.116c1.675.149,3.657.215,5.863.4.273.016.547.041.829.066l.216.008.257.034.423.066c.58.091,1.161.141,1.766.274s1.228.248,1.858.381c.448.1.9.2,1.36.3-.008-.05-.008-.108-.017-.158a2.39,2.39,0,0,1,.067-1.028,1.665,1.665,0,0,1,.821-.971.975.975,0,0,1,.837-.024c.175.091.249.182.233.282-.025.19-.382.323-.5.563a1.455,1.455,0,0,0-.1.457v.356c-.008.008,0,.033,0,.033l.009.05.016.1a1.509,1.509,0,0,0,.025.19.976.976,0,0,0,.257.456l.05.025c.2.042.4.075.6.116a4.857,4.857,0,0,0,.813.092.842.842,0,0,0,.381-.058c.009-.009.017-.009.034,0,.008-.017.008-.034.016-.05.033,0,.05-.091.075-.158a.878.878,0,0,0,.066-.3,1.432,1.432,0,0,0,.042-.349ZM32.084,48.2c.672-.465,4.18-3.483,4.885-3.235C28.469,41.977,20.225,38.345,12,34.671a1.681,1.681,0,0,1-.174-.1,1.237,1.237,0,0,1-.464.017c-2.936-.415-1.866,16.5-1.111,19.049,3.939-.157,7.886.232,11.842.274.514.008,1.874-1.261,2.355-1.559.871-.523,1.767-1.012,2.671-1.493A48.38,48.38,0,0,0,32.084,48.2Z"/><path d="M92.782,79.935c2.405.9,4.32,1.915,4.171,2.28s-2.214-.05-4.685-.978c-2.58-1.02-4.13-2.447-3.965-2.754C88.494,78.11,90.484,79.047,92.782,79.935Z"/><path d="M96.406,53.363a2.179,2.179,0,0,1-.075.631,3.453,3.453,0,0,1-.3.746,7.984,7.984,0,0,1-1.178,1.567c-.464.506-.97,1.054-1.5,1.643-2.189,2.355-4.2,4.047-4.487,3.789s1.253-2.371,3.442-4.727c.282-.29.547-.572.813-.846.3-.306.564-.547.829-.779a17.189,17.189,0,0,0,1.269-1.2c.141-.174.3-.348.39-.489a2.751,2.751,0,0,0,.248-.39c.117-.282.224-.439.316-.431S96.348,53.057,96.406,53.363Z"/><path d="M83.742,66.823c.083.166-.34.589-1.128,1.128a12.42,12.42,0,0,1-3.408,1.567,8.328,8.328,0,0,1-3.873.083c-.912-.273-1.426-.572-1.393-.754.033-.2.647-.241,1.567-.216a17.033,17.033,0,0,0,3.334-.464C81.4,67.4,83.551,66.433,83.742,66.823Z"/><path d="M78.542,44.15a2.379,2.379,0,0,1-.091.721,2.351,2.351,0,0,1-.821,1.17,3.135,3.135,0,0,1-1.078.514,3.611,3.611,0,0,1-1.061.108,3.314,3.314,0,0,1-.523-.067l-.091-.016a1.054,1.054,0,0,1-.149-.05l-.216-.075a6.172,6.172,0,0,1-2.422-1.667c-.489-.506-.887-.92-1.169-1.2-.34-.274-.506-.481-.448-.606s.315-.157.747-.1a5.022,5.022,0,0,1,.812.3c.282.15.606.324.921.531a6.841,6.841,0,0,0,2.065,1.012l.141.041a.059.059,0,0,1,.033.009l.091.008a1.066,1.066,0,0,0,.249.017c1.692-.042.191-1.667-.265-2.264a3.616,3.616,0,0,1-.49-.846,2.1,2.1,0,0,1-.107-1.112,2.43,2.43,0,0,1,.182-.547l.124-.2a1.1,1.1,0,0,1,.133-.166.779.779,0,0,1,.083-.091,1.1,1.1,0,0,1,.166-.108.7.7,0,0,1,.257-.1.794.794,0,0,1,.315,0,.83.83,0,0,1,.448.232.991.991,0,0,1,.224.34,1.766,1.766,0,0,1,.116.406,6.792,6.792,0,0,1,.066,1.17c.257.257.589.53.962.912a4.3,4.3,0,0,1,.34.4,2.067,2.067,0,0,1,.208.332,2.1,2.1,0,0,1,.116.257l.016.049.042.117a.372.372,0,0,1,.008.074l.033.158A2.1,2.1,0,0,1,78.542,44.15Z"/><path d="M67.687,77.024a1.342,1.342,0,0,1,.539,1.65,3,3,0,0,1-1.078.954,7.522,7.522,0,0,0-1.551.721c-.465.382-.423,1.062-.473,1.609a2.171,2.171,0,0,1-.688,1.65,2.931,2.931,0,0,1-.805.481,4.764,4.764,0,0,1-.746.249,2.656,2.656,0,0,1-.8.083,1.655,1.655,0,0,1-.8-.249,1.307,1.307,0,0,1-.464-.605,1.726,1.726,0,0,1-.05-1.012c.116-.506.29-.721.381-.705s.108.3.158.73a1.493,1.493,0,0,0,.216.647.539.539,0,0,0,.564.207,2.42,2.42,0,0,0,2-2.023,2.432,2.432,0,0,1,1.136-1.684c.241-.124.987-.215.8-.68-.091-.224-.207-.166-.389-.116a2.841,2.841,0,0,1-1.037.257c-.307-.033-.614-.315-.92-.108-.274.183.082.689-.357.457a.6.6,0,0,1-.166-.241.751.751,0,0,1-.033-.249.6.6,0,0,1,.157-.282,1.834,1.834,0,0,1,1-.331,7.561,7.561,0,0,0,1.028-.117c.017-.016.017-.016.017-.024s.091-.133.149-.224c.141-.191.29-.39.456-.589C66.476,76.858,66.915,76.5,67.687,77.024Z"/><path d="M62.246,80.656c.141.315.158.514.083.572s-.257-.041-.514-.232a1.05,1.05,0,0,0-.945-.008c-.232.091-.49.215-.821.365a4.689,4.689,0,0,1-1.17.348,5.835,5.835,0,0,0-2.073.572.694.694,0,0,0-.216.232l-.14.282a.165.165,0,0,1-.017.108.8.8,0,0,0,.191.614,3.915,3.915,0,0,0,1.385,1.028c.97.49,1.658.589,1.683.788.025.183-.788.456-2.023.141a4.057,4.057,0,0,1-2.041-1.136,2.109,2.109,0,0,1-.555-1.617c.033-.166.074-.34.124-.514l.141-.3a1.986,1.986,0,0,1,.639-.755,3.507,3.507,0,0,1,1.484-.572c.448-.083.863-.116,1.236-.149a4.638,4.638,0,0,0,.962-.166,9.521,9.521,0,0,1,.987-.232,1.813,1.813,0,0,1,1.012.108A1.417,1.417,0,0,1,62.246,80.656Z"/><path d="M58.033,90.923c.009.1-.257.191-.746.282-.249.05-.556.091-.9.141a4.863,4.863,0,0,1-1.211.008c-.447-.033-.953-.041-1.476-.124-.522-.125-1.078-.257-1.667-.39-.572-.166-1.119-.381-1.708-.589a8.216,8.216,0,0,1-.954-.414c-.157-.083-.323-.158-.489-.249l-.448-.349a4.794,4.794,0,0,1-.763-.7l-.108.514-.671-.257a4.829,4.829,0,0,1-2.173-1.742,5.461,5.461,0,0,1-.556-.987,4.538,4.538,0,0,1-.323-.895c-.307-1.17-.125-1.792-.009-1.808.166-.042.3.655.755,1.526a5.622,5.622,0,0,0,.423.721,5.744,5.744,0,0,0,.572.763,5.164,5.164,0,0,0,.971.821c.008-.05.016-.1.024-.157l.216-1.468.962,1.011A14.583,14.583,0,0,0,49.3,88.145l.332.265c.124.067.248.125.373.191a5.452,5.452,0,0,0,.8.365c.58.224,1.136.473,1.667.663.514.158,1.012.315,1.476.465.473.132.929.182,1.335.282a6.133,6.133,0,0,0,1.12.182c.331.033.622.066.862.108C57.743,90.741,58.017,90.823,58.033,90.923Z"/><path d="M45.743,89.787c.008.091-.249.182-.738.257A6.567,6.567,0,0,1,42.923,90a11.719,11.719,0,0,1-5.846-2.977L37,87.3l-.182.7-.7-.282a5.8,5.8,0,0,1-2.355-1.9,5.946,5.946,0,0,1-.647-1.07,5.334,5.334,0,0,1-.4-.979c-.39-1.269-.274-1.99-.141-2.023.174-.05.39.7.929,1.692A7.073,7.073,0,0,0,35.883,86.1c.041-.2.074-.406.116-.613l.224-1.294.978.987c.216.224.431.448.655.672a14,14,0,0,0,5.3,3.192C44.69,89.513,45.735,89.555,45.743,89.787Z"/><path d="M45.627,58.372a.809.809,0,1,1-.821-.671A.753.753,0,0,1,45.627,58.372Z"/><path d="M44.657,62.154c.149.116.182.34.066.63a1.619,1.619,0,0,1-.755.8c-.754.381-1.385.265-1.542-.083s.323-.871.879-1.145a2.491,2.491,0,0,1,.738-.29A.8.8,0,0,1,44.657,62.154Z"/><path d="M43.313,66.2c.257.282-.124.954-.879,1.468-.713.365-1.443.382-1.617.033s.274-.92.995-1.277C42.368,66,43.048,65.919,43.313,66.2Z"/><path d="M42.119,70.4c.24.266-.158,1.095-1.2,1.526a2.094,2.094,0,0,1-1.4.05c-.307-.124-.506-.29-.506-.489s.183-.373.481-.506c.357-.091.614-.3.937-.365C41.124,70.331,41.845,70.091,42.119,70.4Z"/></g><text x="0" y="143" fill="#000000" font-size="5px" font-weight="bold" font-family="'Helvetica Neue', Helvetica, Arial-Unicode, Arial, Sans-serif">Created by Hey Rabbit</text><text x="0" y="148" fill="#000000" font-size="5px" font-weight="bold" font-family="'Helvetica Neue', Helvetica, Arial-Unicode, Arial, Sans-serif">from the Noun Project</text></svg>