<svg xmlns="http://www.w3.org/2000/svg" viewBox="0 0 128 160" x="0px" y="0px"><g><path d="M123.754,21.215a.864.864,0,0,1,.246.637c-.019,5.392-5.039,8.748-7.6,12.967-3.2,5.273-4.181,11.624-8.5,16.221a.959.959,0,0,1-.107.511c-1.924,3.74-3.8,7.979-6.591,11.145-2.4,2.712-4.068,5.985-7.309,7.909-1.855,1.1-3.829,1.967-5.109,3.778a8.149,8.149,0,0,1-1.892,2.081c-.12,3.462-1.438,6.906-.656,10.362a1.01,1.01,0,0,1,.019.189c.012.019.031.038.044.057a19.668,19.668,0,0,0,8.016,8.016c.038.026.076.057.107.082a1.3,1.3,0,0,1,.208.076c5.973,3.046,12.8,2.289,17.849,7.247a1,1,0,0,1,.189.258.9.9,0,0,1-.063,1.546c-6.023,3.077-13.352,1.7-19.848,1.7q-5.865,0-11.731-.025a.774.774,0,0,1-1,.36c-.359-.133-.725-.246-1.091-.36-5.3-.012-10.6-.012-15.887.051-9.9.119-19.8.5-29.706.441a138.4,138.4,0,0,1-14.645-.5c-4.61-.511-9.17-1.407-13.787-1.861a1.016,1.016,0,0,1-.63-1.7.844.844,0,0,1-.032-.983A153.572,153.572,0,0,1,13.477,87.93c2.926-3.765,6.023-8.086,9.838-11,7.518-5.74,16.058-.486,23.538,2.7a.9.9,0,0,1,.3.208,56.094,56.094,0,0,0,9.088.177c1.419-3.235,2.529-6.591,3.992-9.8A5.854,5.854,0,0,1,58.969,67.1a1.138,1.138,0,0,1-.006-.259c.025-.4-.947-1.57-1.155-1.974-.378-.731-.719-1.488-1.028-2.258A44.567,44.567,0,0,1,55.2,57.682c-.429-1.6-.808-3.217-1.23-4.825-.215-.8-.467-1.6-.675-2.4a26.162,26.162,0,0,1-.328-6.919c.019-1.274.063-2.548.145-3.816.076-1.122.574-2.73.372-3.809a1.713,1.713,0,0,1-.019-.183c-.069-4.875-1.059-9.933,1.1-14.5a1.042,1.042,0,0,1,.9-.952c3.476-.448,6.925.164,10.407.315a.979.979,0,0,1,.416.114A1.059,1.059,0,0,1,67,22.123a16,16,0,0,0-1.034,4.718c5.222-5.254,12.027-8.458,19.671-6a22.1,22.1,0,0,1,10.652,7.448c1.855,2.384,3.86,5.147,4.655,8.149,2.3-5.153,6.25-9.511,7.423-15.156a1.2,1.2,0,0,1,.114-.284.882.882,0,0,1,.908-.826,95.68,95.68,0,0,1,10.507.3.97.97,0,0,1,.423-.095h2.523A.883.883,0,0,1,123.754,21.215Zm-1.671,1.059h-1.539a.842.842,0,0,1-.536.108,85.912,85.912,0,0,0-9.877-.322c-1.419,6.3-6.212,10.98-8.186,17.035.17-.069.334-.139.485-.208a2.074,2.074,0,0,0,.713-.618,1.968,1.968,0,0,0,.309-.618c.063-.189.139-.3.208-.29s.145.107.208.3a.884.884,0,0,1,.051.372,1.531,1.531,0,0,1-.095.561,2.314,2.314,0,0,1-.87,1.123,5.494,5.494,0,0,1-1.464.662,24.207,24.207,0,0,1-2.611.5,1.893,1.893,0,0,0-.2.031c-3.349,1.47-4.245,6.181-3.519,9.606a.9.9,0,0,1-.246.864.958.958,0,0,1-.209.372c-2.144,2.441-5.449,5.613-4.168,9.17a.839.839,0,0,1,.05.208,1.093,1.093,0,0,0,.5.524c1.1.378,2.756-2.113,1.369-2.624a.835.835,0,0,0-1.148.637c-.145.479-.158.908-.315.927-.127.019-.4-.284-.436-1.022a1.627,1.627,0,0,1,.537-1.261,1.75,1.75,0,0,1,1.721-.284,1.687,1.687,0,0,1,.77.543,1.4,1.4,0,0,1,.315.9c0,.025-.012.051-.012.076.3-.341.592-.688.895-1.047,1.684-2.151,3-4.295,4.1-5.771,1.084-1.5,1.879-2.289,1.993-2.22.132.088-.467,1.072-1.363,2.636a52.477,52.477,0,0,1-3.9,6.017,19.024,19.024,0,0,1-2.82,2.87l-.447.284a4.7,4.7,0,0,1-.486.208,2.806,2.806,0,0,1-.555.082,1.435,1.435,0,0,1-.574-.139,2.226,2.226,0,0,1-.252-.139l-.189-.183a.761.761,0,0,1-.1-.119,1,1,0,0,1-.108.138c-3.368,3.551-6,7.67-8.867,11.611a.8.8,0,0,1,0,.12,2.006,2.006,0,0,0,.075.719c.019.057.045.114.064.171.138.309.365.523.674.454a3.127,3.127,0,0,0,.656-.562c.372-.416.738-.832,1.117-1.337.183-.239.391-.5.611-.775l.026-.032c.1-.132.2-.271.309-.41a11.562,11.562,0,0,1,1.2-1.331c.044-.038.026-.031.108-.1l.082-.063.17-.12c.107-.075.214-.157.321-.233.209-.158.461-.3.675-.435.057-.038.108-.069.164-.1.158-.132.328-.277.486-.4.9-.712,1.7-1.362,2.371-1.9,1.337-1.1,2.183-1.8,2.29-1.678.094.095-.549.965-1.772,2.226a1.216,1.216,0,0,0-.095.095c-.019.025-.038.044-.057.069-.195.24-.435.492-.694.776a8.809,8.809,0,0,1-1.69,1.413c-.347.309-.7.618-1.072.946-.233.208-.473.416-.713.624l-.34.3-.341.359L85.5,72.9l-.176.215c-.082.107-.164.221-.246.328-.177.233-.347.467-.517.7s-.341.429-.511.624a.766.766,0,0,1,.151.133c.164.195.164.22.4.265a.236.236,0,0,0,.056.012,2.085,2.085,0,0,0,.209.007c.151-.007.3-.019.447-.038a.273.273,0,0,0,.07,0c1.248-.694,1.7-1.981,2.7-2.965a16.09,16.09,0,0,1,3.425-2.39,18.661,18.661,0,0,0,4.957-4.036c.688-.789,1.224-1.7,1.911-2.492a13.9,13.9,0,0,0,1.987-2.119c.542-.971,1.041-1.974,1.627-2.945.732-1.211,1.426-2.441,2.1-3.683.309-.568,2.03-2.971,1.86-3.539a.847.847,0,0,1,.24-.883c4.541-4.528,5.1-11.106,8.565-16.227C117.157,30.335,121.786,26.784,122.083,22.274Zm-21.2,82.041c3.2.045,6.534.038,9.549-1.116-4.516-3.809-10.646-3.582-15.919-5.922-.107-.019-.208-.032-.315-.051a53.132,53.132,0,0,1-8.458-2.119c-3.223-1.047-6.118-2.018-8.218-2.611-.524-.17-1.015-.277-1.444-.385s-.8-.208-1.1-.3c-.6-.17-.921-.3-.908-.372s.36-.082.984-.032c.309.026.687.063,1.129.114a11.817,11.817,0,0,1,1.482.233,75.287,75.287,0,0,1,8.395,2.34c2.15.7,4.156,1.306,5.9,1.779a21.129,21.129,0,0,1-7.3-7.846,1.084,1.084,0,0,1-.107-.372.925.925,0,0,1-.145-.328c-.782-3.482.334-6.805.567-10.262a2.828,2.828,0,0,1-1.62-.41,2.353,2.353,0,0,1-2.712.12,3.169,3.169,0,0,1-1.312-2.895c.006-.031.012-.069.019-.1a.738.738,0,0,1,.082-.744,36.493,36.493,0,0,1-13.693-4.068c-.372,1.615-1.791,2.466-3.86,2.29-.012-.007-.031-.007-.044-.013-1.35,2.977-2.4,6.074-3.683,9.082-.107.826-.158,1.558-.177,2.069.013.567.013.965-.138,1s-.385-.259-.593-.833a4.485,4.485,0,0,1-.158-.826h-.057a1.174,1.174,0,0,1-.4.132,45.558,45.558,0,0,1-8.6-.088c.29.158.587.309.889.467a41.577,41.577,0,0,0,5.885,2.56c1.532.511,2.579.681,2.561.845-.019.127-1.06.234-2.75-.119A24.988,24.988,0,0,1,48.43,83.2a59.58,59.58,0,0,1-5.594-3.311c-3.293-1.527-6.692-3.129-10.2-3.633-4.276-.612-7.461,1.179-10.344,4.238A134.332,134.332,0,0,0,6.1,102.02a1.072,1.072,0,0,1,.063.334c4.188.492,8.325,1.331,12.525,1.722.013,0,.032.006.045.006a25.6,25.6,0,0,1,1.867-4c.2-.592.447-1.28.744-2.018A11.479,11.479,0,0,1,22.7,95.587c.548-1.375,1.053-2.611,1.5-3.532.536-1.091.958-1.722,1.091-1.665s-.038.794-.391,1.955c-.347,1.141-.858,2.731-1.539,4.465-.013.038-.032.076-.044.114,5.443-4.661,14.947-3.8,21.343-2.246,6.471,1.565,12.7,3.879,19.078,5.74,5.09,1.488,10.5,2.05,15.534,3.677q4.882.009,9.757.012C93,104.107,96.93,104.265,100.885,104.315ZM97.4,39.026c1.186,1.173,2.031-.227,1.88-1.331-.486-3.564-3.1-6.938-5.513-9.448-2.592-2.687-5.777-5.046-9.511-5.815-7.681-1.57-13.389,1.615-18.34,7.24a1.232,1.232,0,0,1-.139.127,9.617,9.617,0,0,1,.826,1.98c.8-.738,1.665-1.507,1.236-2.649a.446.446,0,0,1,.12-.46c3.053-2.454,7.928-5.79,12.053-5.632,1.886.069,2.365,1.709,4.257,1.709.58,0,.8.378,1.255.6-.031-.013,2.126.145,2.554.2,1.142.157.133,1.141,1.987,1.173a2.162,2.162,0,0,1,1.438.347,1.134,1.134,0,0,1,.435.75c.3,1.653,1.155,1.085,2.031,1.93,1.533,1.47.877,3.6,2.277,5.128C97.246,35.96,96.413,38.048,97.4,39.026Zm-1.64,1.69a8.061,8.061,0,0,0-.025-3.431c-.271-1.255-1.331-2.63-1.362-3.942-.044-2.233-1.646-2.737-2.87-3.954-.479-.48-.359-1.785-1.438-1.722-1.577.094-2.018-1.117-3.544-1.167a10.4,10.4,0,0,1-3.961-.82c-.807-.473-.921-1.362-1.968-1.57-1.968-.4-3.412.46-5.146,1.211-2.063.889-6.333,2.3-6.452,4.925-.051,1.066-1.432,1.823-2.157,2.593.529,3.582-1.476,6.748-2.782,10.608-.019.05-.044.094-.069.145.063,2.825.731,6.521-1.728,8.552.668,3.192.807,6.566,1.848,9.662a43.226,43.226,0,0,1,1.57,4.951,34.323,34.323,0,0,0,14.708,4.5.923.923,0,0,1,.271.069,96.414,96.414,0,0,1,7.941-10.343c-1.148-4.05,2.144-7.594,4.661-10.438C92.648,47.073,93.411,43.113,95.757,40.716ZM60.571,104.17c3.5-.05,7-.069,10.5-.075-2.252-.442-4.5-.883-6.7-1.52-5.626-1.646-11.145-3.671-16.8-5.2-7.026-1.9-18.625-4.332-24.124,2.094a.89.89,0,0,1-.316.253,16.828,16.828,0,0,0-2.428,4.509c3.791.265,7.606.322,11.4.341C41.593,104.624,51.079,104.3,60.571,104.17Zm1.867-61.814c1.293-3.482,3.317-6.528,2.346-10.009-.36-.461-.852-1.262-1.4-2.132a8.936,8.936,0,0,0-1.274-1.6c-.322-.341-.694-.511-.65-.662.013-.07.12-.12.29-.145a1.6,1.6,0,0,1,.763.17A3.854,3.854,0,0,1,63.9,29.117a30.315,30.315,0,0,1,1.021-6.685,56.837,56.837,0,0,0-8.665-.334c-2.025,4.2-.953,9.151-.89,13.629a.9.9,0,0,1-.038.278,1.119,1.119,0,0,1,.007.29,90.86,90.86,0,0,0-.492,12.576c0,.044-.013.088-.013.139,1.312,4.036,1.981,8.268,3.45,12.21-.2-.889-.372-1.741-.467-2.548-.031-.24-.063-.479-.094-.706s-.051-.423-.07-.625c-.044-.416-.088-.807-.126-1.16a5.812,5.812,0,0,1-.025-2.3c.12-.019.366.8.681,2.176.145.7.322,1.532.524,2.472.164.915.441,1.943.712,3.04a18.293,18.293,0,0,1,.448,2.372c.063.391.133.769.221,1.128.2.328.4.656.618.978a.942.942,0,0,1,.151.366,2.1,2.1,0,0,0,.265.176.754.754,0,0,0,.3.12,1.065,1.065,0,0,0,1.066-.46,3.639,3.639,0,0,0,.593-1.2c.025-.113.044-.221.063-.334-.189-.5-.372-.952-.492-1.3-1.224-3.658-1.457-7.5-2.309-11.246a.178.178,0,0,1-.006-.056,2.053,2.053,0,0,1-.826-.366,3.864,3.864,0,0,1-1.072-1.407c-.12-.239-.253-.473-.366-.712s-.2-.48-.3-.713c-.391-.946-.674-1.867-.964-2.731a11.707,11.707,0,0,1-.291-4.989c.177-1.387.373-2.478.505-3.235s.208-1.18.284-1.18.12.436.126,1.211-.088,1.905-.164,3.267a12.11,12.11,0,0,0,.467,4.611c.17.454.334.921.5,1.394a1.785,1.785,0,0,1,1.35-.291,1.825,1.825,0,0,1,.34.082,1.528,1.528,0,0,1,.373.158,1.3,1.3,0,0,1,.567.637,2.032,2.032,0,0,1,.025,1.116c-.126.518-.258.82-.41.82s-.277-.334-.346-.851a1.938,1.938,0,0,0-.164-.681c-.082-.095-.177-.158-.549-.227a1.057,1.057,0,0,0-.662.063c-.076.044-.12.075-.139.151.044.088.069.183.113.278.095.22.19.441.284.668l.341.644a3.058,3.058,0,0,0,.782,1.065.866.866,0,0,0,.542.177.947.947,0,0,1,.208-.246c1.237-1,1.42-2.668,1.375-4.339-.1-1.091-.283-2.088-.41-2.851-.082-.473-.138-.864-.157-1.141a2.731,2.731,0,0,1-.139-.341l-.006-.019-.007-.006a3.37,3.37,0,0,1,.082-1.615,7.435,7.435,0,0,1,.4-1.066c.259-.555.41-.845.473-.826s.025.36-.126.946a4.76,4.76,0,0,0-.177,2.365A3.233,3.233,0,0,0,62.438,42.356Zm.107,27.006c1.652-.176,1.514-1.772,1.041-3.349a3.653,3.653,0,0,1-.4.77l-.328.384a3.955,3.955,0,0,1-.442.322,1.8,1.8,0,0,1-1.179.183,2.032,2.032,0,0,1-.277-.063c.145.719.416,1.482,1.028,1.545A1.213,1.213,0,0,1,62.545,69.362Z"/><path d="M80.513,49.306a2.832,2.832,0,0,1-.271,1.28l-.113.234-.171.271a2.013,2.013,0,0,1-.422.479,1.471,1.471,0,0,1-.625.316,1.334,1.334,0,0,1-.662-.051,2.24,2.24,0,0,1-.807-.511,5.64,5.64,0,0,1-.776-.914c-.157-.234-.227-.379-.176-.435s.208-.013.454.132.574.378.952.618a1.7,1.7,0,0,0,.587.259.428.428,0,0,0,.41-.145,1.49,1.49,0,0,0,.2-.284l.1-.17.1-.24a2.028,2.028,0,0,0,.152-.833,5.3,5.3,0,0,0-.423-1.8,5.789,5.789,0,0,1-.605-1.735,3.414,3.414,0,0,1,.195-1.23c.082-.265.164-.41.24-.4s.132.157.176.435a8.62,8.62,0,0,0,.126,1.078,10.186,10.186,0,0,0,.738,1.413A5.131,5.131,0,0,1,80.513,49.306Z"/><path d="M76.017,83.294c.252.12-.278,1.76-1.426,3.526-1.192,1.766-2.453,2.87-2.674,2.7-.246-.183.675-1.627,1.785-3.286C74.806,84.537,75.739,83.162,76.017,83.294Z"/><path d="M75.909,41.353c.133.063,0,.668-.334,1.6-.183.467-.429,1.009-.719,1.615-.164.29-.341.592-.523.9a7.155,7.155,0,0,1-.618.946c-.234.3-.467.606-.688.9-.221.271-.441.517-.618.757a1.947,1.947,0,0,0-.542,1.217c.018.3.34.549.529.707.208.157.335.277.309.346s-.189.089-.485.032a1.751,1.751,0,0,1-.524-.221,1.24,1.24,0,0,1-.548-.656,1.624,1.624,0,0,1,0-1.04,3.538,3.538,0,0,1,.454-.94c.189-.3.4-.574.624-.871q.3-.407.624-.851a8.429,8.429,0,0,0,.606-.877q.283-.435.549-.832c.321-.549.624-1.034.889-1.451C75.4,41.788,75.777,41.29,75.909,41.353Z"/><path d="M67.975,90.629c.006.07-.139.139-.429.2a2.384,2.384,0,0,1-1.248-.082,3.1,3.1,0,0,1-1.546-1.129,5.778,5.778,0,0,1-.914-2.062,12.453,12.453,0,0,1-.252-3.867c.082-.977.227-1.57.365-1.57s.278.605.385,1.558a30.322,30.322,0,0,0,.536,3.626,6.076,6.076,0,0,0,.688,1.754,2.785,2.785,0,0,0,1.028,1,3.668,3.668,0,0,0,.977.366C67.817,90.478,67.969,90.554,67.975,90.629Z"/></g><text x="0" y="143" fill="#000000" font-size="5px" font-weight="bold" font-family="'Helvetica Neue', Helvetica, Arial-Unicode, Arial, Sans-serif">Created by Hey Rabbit</text><text x="0" y="148" fill="#000000" font-size="5px" font-weight="bold" font-family="'Helvetica Neue', Helvetica, Arial-Unicode, Arial, Sans-serif">from the Noun Project</text></svg>