<svg xmlns="http://www.w3.org/2000/svg" viewBox="0 0 128 160" x="0px" y="0px"><g><path d="M122.2,67.554a23.9,23.9,0,0,1,1.772,11.034.949.949,0,0,1-.22.591.887.887,0,0,1-.4.383,33.44,33.44,0,0,1-9.57,3.073c-2.325.39-4.506,1.433-6.812,1.753,1.106,4.581,2.482,9.821-.157,14.019-2.086,3.324-6.642,4.549-10.3,3.657a36.375,36.375,0,0,1-7.458-3.117c-2.457-1.219-5.084-1.809-7.333-3.431-.164-.119-.327-.251-.491-.377a.911.911,0,0,1-.37.446c-1.848,1.182-3.626.886-5.737.755-2.4-.151-4.788-.39-7.157-.755-6.007-.911-11.952-2.331-18-2.947-5.322-.546-11.034.283-16.155-1.5a25.2,25.2,0,0,0-9.161-1.659,31.6,31.6,0,0,1-6.887-.4,1.16,1.16,0,0,1-.22-.075.859.859,0,0,1-.239-.1,2.727,2.727,0,0,1-1.288-1.885,17.847,17.847,0,0,1-2.777.961,1.062,1.062,0,0,1-.239.025,8.806,8.806,0,0,1-8.69-1.841.843.843,0,0,1-.245-.892,1.147,1.147,0,0,1-.032-.163C3.5,79.876,8.688,75.025,13.281,73.58c5.524-1.734,11.405-1.313,16.979-2.733A11.756,11.756,0,0,1,27.57,58.5a2.549,2.549,0,0,1-1.2-.88,3.214,3.214,0,0,1-.559-2.256c-3.406-1.414-.082-6.837,1.6-8.678,2.507-2.739,8.081-3.493,9.677.453a2.377,2.377,0,0,1,1.458,1.376,14.149,14.149,0,0,1,2.318-.39,15.174,15.174,0,0,1,2.778.013c.559-1.8,1.414-3.538,1.8-5.379.358-1.678.025-3.33.647-4.951a.788.788,0,0,1,.07-.132A84.973,84.973,0,0,0,44.681,27.7a.083.083,0,0,1-.007-.044.937.937,0,0,1,.585-1.269c3.751-1.181,7.71-.547,11.562-.509a.861.861,0,0,1,.8.49.727.727,0,0,1,.138.139c5.969.037,11.92-.352,17.883-.447C79.322,26,83.331,25,86.831,26.484a.043.043,0,0,0,.025.013,30.885,30.885,0,0,1,12.473.283.862.862,0,0,1,.629,1.15.937.937,0,0,1,.106.641,38.8,38.8,0,0,1-3.248,9.94.923.923,0,0,1,.063.333,62.3,62.3,0,0,0,1.25,10.576,52.432,52.432,0,0,1,.453,7.879c1.338-.125,2.683-.232,4.021-.245a21.265,21.265,0,0,1,11.279,3.01C117.024,61.874,120.618,64.111,122.2,67.554Zm-.095,10.519c.1-4.059-.144-8.7-3.066-11.813a25.016,25.016,0,0,0-9.677-6.353c-3.581-1.162-7.119-1.03-10.82-.7-3.4.307-6.673.188-10.073.213-.031,0-.056-.006-.088-.006a10.765,10.765,0,0,1-.967,2.96c-.817,1.589-2.074,2.959-2.79,4.587-.937,2.1-1.772,5.215-4.386,5.7a.926.926,0,0,1-.66-.107c-.107.314-.233.622-.365.924a8.244,8.244,0,0,1-.446.879,3.777,3.777,0,0,1-.559.729.53.53,0,0,1,.025.151,23.5,23.5,0,0,0,.666,3.613c.566.214,1.144.421,1.735.641.483.176,1.03.308,1.558.478l.4.119.2.057.1.031.013.006.05.007q.387.075.792.15c4.229.88,8.527.5,11.549,1.728.365.139.717.258,1.037.4.308.163.6.32.88.465s.515.282.747.414c.214.139.4.277.579.4.678.5,1.024.836.961.968s-.54.044-1.345-.233c-.195-.069-.414-.15-.653-.232s-.5-.151-.773-.233l-.867-.282c-.314-.088-.654-.145-1-.227-2.7-.773-6.843-.15-11.55-1.093l-.879-.17-.051-.012-.094-.025-.1-.032-.2-.063-.4-.125c-.534-.17-1.05-.308-1.571-.509-.792-.314-1.559-.629-2.269-.924l-.1-.044c-.189-.082-.377-.163-.559-.239-.742-.339-1.446-.578-2.112-.823a16.881,16.881,0,0,0-5.919-.911c-2.5.239-4.951.855-7.44,1.213-2.752.4-5.51.76-8.244,1.319-1.225.245-3.186.208-4.248,1.138a18.612,18.612,0,0,0,3.456.5c1.829.044,3.664.05,5.486.2,2.771.22,5.794.685,8.514-.107-.3-.214-.433-.434-.377-.553.12-.283.987-.088,1.873,0a5.914,5.914,0,0,0,1.037-.05c.308-.1.565-.189.666-.069.081.113.05.358-.2.659a1.986,1.986,0,0,1-1.257.509A71.808,71.808,0,0,1,78.939,90.42c2.375,1.942,4.141,4.223,7.151,5.26a37.136,37.136,0,0,1,4.794,2.086c4.122,2.111,10.374,4.725,13.962.126,2.753-3.526,1.439-8.477.4-12.612-.018-.05-.043-.1-.069-.157a9.831,9.831,0,0,0-.685-1.206c-.238-.377-.59-.855-.892-1.3a39.679,39.679,0,0,0-3.28-4.411c-.232-.245-.446-.477-.628-.685s-.377-.383-.509-.54c-.277-.3-.4-.515-.346-.6s.3-.031.679.132a4.862,4.862,0,0,1,.672.339c.252.164.534.358.848.578a15.388,15.388,0,0,1,2.809,2.973,7.161,7.161,0,0,0,1.879,1.394c.157.07.308.132.459.195.176.038.345.076.509.12a5.014,5.014,0,0,0,.911.081,9.553,9.553,0,0,0,1.608-.163c1.735-.465,3.475-1.093,5.166-1.4A29.345,29.345,0,0,0,122.107,78.073Zm-26.7-20.485c.434-.031.861-.069,1.288-.113A62.563,62.563,0,0,0,95.88,47.8a49.122,49.122,0,0,1-.748-5.806c-2.451,4.851-5.115,9.627-6.5,14.911,0,.032.007.057.007.082-.013.189-.019.371-.032.553C90.884,57.532,93.121,57.764,95.408,57.588Zm-8.1-2.9c2.89-9.061,9.174-16.746,10.858-26.221a28.389,28.389,0,0,0-10.532-.189c-.867,9.319-5.391,17.607-10.072,25.543a4.178,4.178,0,0,1,.817-.188c.433-.025.71.05.747.188s-.188.333-.546.534a10.166,10.166,0,0,1-1.376.748,4.286,4.286,0,0,1-1.163.333c-2.67.968-5.536,1.489-7.408,3.865a13.24,13.24,0,0,1-1.483,2.048c-.541.446-1.646.446-1.533,1.433.163,1.4,3.474-.56,3.977-.9a6.992,6.992,0,0,1,1.628-1.018,2.123,2.123,0,0,0,1.1-.634c.107-.164.063-.7.289-.711.453-.031.3,1.025.271,1.232a17.99,17.99,0,0,1-.849,3.28,27.753,27.753,0,0,0-1.307,4.5,6.651,6.651,0,0,0,.113,2.532c.069.208.12.421.2.635.132.346,1.156,3.475,1.829,2.187.22-.415-.321-1.05-.365-1.5a11.876,11.876,0,0,1-.308-2.645c.025-.132.038-.277.069-.4l.1-.352a4.924,4.924,0,0,1,.239-.635l.063-.151.031-.069.013-.037c.006-.007.094-.264.094-.264.069-.183.132-.365.2-.541.125-.358.251-.7.364-1.018.5-1.294.83-2.343,1.131-3.053s.5-1.1.6-1.075.1.471-.012,1.244a27.429,27.429,0,0,1-.647,3.224c-.088.333-.176.678-.271,1.043-.05.182-.094.37-.144.559l-.082.283-.107.32a3.247,3.247,0,0,0-.157.534l-.069.264a7.775,7.775,0,0,0,.3,2.979c.076.559.183,1.935.855,2.149,1.031.326.836-1.3.848-1.873-.006-.1-.037-.345-.044-.415-.025-.163-.044-.333-.069-.5A12.4,12.4,0,0,1,75.5,68.1a10.252,10.252,0,0,1,1.005-3,9.318,9.318,0,0,1,1.156-1.735c.314-.364.534-.546.635-.49.528.258-2.13,3.9-1.226,8.866l.063.459c.025.251.038.327.051.541a4.172,4.172,0,0,1-.07.835l.019.063.007.038a.31.31,0,0,0,.025.05,1.464,1.464,0,0,0,.088.207,2.715,2.715,0,0,0,.2-.333c.113-.22.226-.471.333-.729a15.972,15.972,0,0,0,.553-1.684,5.2,5.2,0,0,0,.151-.829c.044-.32.081-.635.138-.943a16.34,16.34,0,0,1,.383-1.778,13.261,13.261,0,0,1,1.106-2.871c.842-1.584,1.615-2.3,1.791-2.206.207.113-.258,1.112-.754,2.639a21.8,21.8,0,0,0-.717,2.771c-.106.528-.194,1.087-.27,1.678-.044.289-.069.591-.107.892-.006.063-.012.138-.025.214,2.03-.679,2.369-4.141,3.463-5.687,1.8-2.526,3.141-4.9,3.254-8.087-.018-.113-.031-.232-.043-.352-.258-1.822-.66-3.449-.352-3.531C86.523,53.058,86.951,53.655,87.309,54.685ZM75.64,53.372c4.631-7.836,9.319-16.061,10.129-25.3-3.449-1.4-8.891-.182-12.536-.069-5.1.163-10.192.415-15.294.39.126,4.574,1.093,9.186,1.32,13.767a33.883,33.883,0,0,0,3.952,14.427.322.322,0,0,1,.025.076,7.829,7.829,0,0,1,2.011,4.04,17.238,17.238,0,0,1,3.437-4.116c2.049-1.571,4.493-2.1,6.855-2.972A1.409,1.409,0,0,1,75.64,53.372Zm3.978,40.743-.227-.069a111.5,111.5,0,0,0-13.277-3.255c-5.624-1.03-10.783-1.659-14.509-2.161s-6.013-.861-6.013-1.006,2.337-.05,6.095.264,8.941.817,14.616,1.86a83.471,83.471,0,0,1,12.353,3.2,43.291,43.291,0,0,0-4.373-3.707,79.443,79.443,0,0,0-7.365-4.581c-2.865.8-5.919.3-8.847.126-2.18-.126-4.43.013-6.592-.226a20.305,20.305,0,0,1-4.461-.893A7.9,7.9,0,0,0,45.7,83.1c-.711-.113-1.439.012-2.149-.038-1.081-.088-2.162-.245-3.243-.358-1.671-.17-3.739-.138-5.322-.792-1.263-.521-2.438-1.2-3.695-1.728-2.959,1.477-6.277,2.08-9.2,3.595.232-.019.471-.038.71-.051.2-.012.408-.031.609-.044l.622.019a21.048,21.048,0,0,1,2.225.157c.716.076,1.395.17,2.036.277s1.25.2,1.822.3,1.093.182,1.571.239.911.144,1.294.188.729.069,1.006.107c.546.069.848.145.848.22s-.308.138-.855.195c-.276.025-.616.05-1,.069s-.848-.013-1.345-.031-1.049-.051-1.627-.114l-1.835-.2c-.647-.075-1.32-.15-2.011-.207-.7-.088-1.414-.107-2.143-.132l-.59-.019c-.2.013-.384.019-.578.032-.377.025-.754.044-1.125.062-.729.095-1.42.239-2.08.34l-.075.012c-.572.327-1.15.648-1.728.949a1.369,1.369,0,0,1,0,.157.963.963,0,0,0,.408.962h.032c2.89.571,5.718.176,8.621.333a22.728,22.728,0,0,1,6.447,1.388c5.083,1.766,10.223,1.113,15.483,1.653,5.07.515,10.066,1.508,15.086,2.388,2.948.515,5.913,1.024,8.9,1.269C74.855,94.454,77.682,95.127,79.618,94.115Zm-2.841-16.13a23.173,23.173,0,0,1-.421-2.7,2.609,2.609,0,0,1-.6.534,1.666,1.666,0,0,1-1.37.17c-.107-.038-.207-.082-.3-.126a2.273,2.273,0,0,1-.239-.163,1.612,1.612,0,0,1-.264-.233,1.726,1.726,0,0,1-.195.088.966.966,0,0,1-.44.095,1.1,1.1,0,0,1-.4-.032,2.437,2.437,0,0,1-1-.515,6.5,6.5,0,0,1-.666-.629c-.194-.226-.377-.452-.54-.684-.082-.114-.17-.252-.251-.39l-.1-.17-.025-.044-.032-.056-.006-.019-.044-.1c-.107-.263-.22-.521-.327-.779s-.157-.534-.232-.8a7.9,7.9,0,0,1-.05-3.136,21.676,21.676,0,0,1,1.709-4.668c.113-.239.214-.465.308-.685-2.086,1.451-4.2,2.865-6.868,1.74-.013,0-.019-.012-.032-.012-.05.044-.1.094-.15.138a.988.988,0,0,1-.453.226.812.812,0,0,0-.006.164.169.169,0,0,1,.006.044c0-.013.013-.019.057.025.025.025.132.081.2.125a3.314,3.314,0,0,1,.283.189c.081.069.125.094.245.195l.219.207c.3.277.591.572.886.886a14.212,14.212,0,0,1,2.514,3.575c.49,1.1.471,1.766.358,1.816-.151.063-.44-.622-1.012-1.445A28.609,28.609,0,0,0,64.9,67.586c-.213-.233-.421-.446-.628-.654a19.852,19.852,0,0,1,1.64,10.048,21.6,21.6,0,0,1,3.148-.327C71.725,76.609,74.214,77.394,76.777,77.985Zm-12.812-.641c.892-5.492-1.433-10.726-4.505-15.169a.8.8,0,0,1-.126-.722c.057-2.576-2-6.177-4.694-6.988a1.167,1.167,0,0,0-.2.032c-.767.157-1.125.572-1.144,1.181a4.139,4.139,0,0,0,.491,1.741c.282.565.628,1.1.942,1.64a5.553,5.553,0,0,1-2.249-.088c-.2-.069-.4-.138-.61-.214l-.157-.05-.2-.076c-.113-.056-.226-.113-.327-.169-.421-.226-.81-.484-1.225-.735-1.521-.937-1.426-.038-2.7.553a1.588,1.588,0,0,1-.615.138,1.157,1.157,0,0,1-.233-.013h-.056a.4.4,0,0,1-.095-.019l-.125-.037a3.255,3.255,0,0,1-1.653-1.062c-.383-.421-.591-.911-1.156-.924a1.535,1.535,0,0,0-1.194.748,2.361,2.361,0,0,1-.119.3,2.141,2.141,0,0,1-.113.208l-.057.094c-.013.031.006.006-.044.075l-.044.063-.189.233a2.966,2.966,0,0,1-1.03.628,3.254,3.254,0,0,0-.616.314.317.317,0,0,1-.006.075,1.467,1.467,0,0,1-.038.3,1.312,1.312,0,0,1-.088.22,1.182,1.182,0,0,1-.188.213c-.069.057-.139.113-.214.164a1.277,1.277,0,0,1-.22.125c-.163.1-.17.082-.3.164l-.088.063c-.013.012-.019.018-.026.018a1.04,1.04,0,0,1-.113.082,1.116,1.116,0,0,1-.339.113c0,.038.006.076.006.132a1.2,1.2,0,0,1-.019.182l-.012.051a.584.584,0,0,1-.038.1.774.774,0,0,1-.113.17c-.126.126-.251.251-.377.358l-.364.308-.34.283c-.088.081-.138.138-.2.2.006.062.006.226.032.383a1.48,1.48,0,0,1-.176.936,1.853,1.853,0,0,1-.993.754c-.17.063-.339.12-.49.17a4.721,4.721,0,0,1,.176,1.282,3.234,3.234,0,0,1-.591,1.589l-.019.032a2.83,2.83,0,0,1-.276.27,1.289,1.289,0,0,1-.283.182c-.031.032-.075.051-.151.264a2.45,2.45,0,0,0-.138.9c.012.672-.409,1.753-.063,2.369.377.672,2,1.15,2.689,1.426a1.007,1.007,0,0,1,.5.421c.025.019.05.031.082.057,3.537,2.921,7.923,6.5,12.762,6.4.018-.007.031,0,.05,0a9.859,9.859,0,0,1,1-.195c3-.453,5.969-1.043,8.979-1.471C61.263,77.91,62.614,77.614,63.965,77.344Zm-1.521-14c2.256-.66.5-4.342-.634-5.454a.969.969,0,0,1-.239-.371c-2.325-4.656-3.877-8.9-4.141-14.15-.258-5.2-1.351-10.425-1.382-15.615-3.13-.1-6.328-.509-9.382.207.861,3.94.943,8.049,1.7,12.027.81,4.279,1.583,8.533,3.776,12.36a1.508,1.508,0,0,1,.063.151c.019.019.044.037.063.056,4.719-1.206,9.03,4.55,8.954,8.86C61.646,62.043,62.055,62.684,62.444,63.344Zm-9.155-4.92c-.069-.245-.144-.49-.22-.723a4.228,4.228,0,0,1-.71-1.765,5.155,5.155,0,0,1-.44-.855,4.022,4.022,0,0,1-.22-.546.8.8,0,0,1-.389-.315c-.006-.012-.019-.012-.025-.018a23.007,23.007,0,0,0-3.569-2.759c.138.157.27.32.395.471.076.088.145.176.22.264.057.094.113.182.17.27.107.17.207.333.3.491a6.478,6.478,0,0,1,.421.81c.2.459.276.729.213.767s-.264-.164-.572-.553c-.15-.189-.32-.434-.552-.691-.107-.126-.227-.271-.352-.415-.057-.076-.12-.151-.183-.233-.075-.063-.15-.138-.22-.207a7.662,7.662,0,0,0-1.036-.917c-.2-.145-.434-.346-.61-.465-.22-.151-.446-.289-.685-.428A8.531,8.531,0,0,0,43.92,50c-.169-.025-.333-.05-.5-.069.389.17.772.346,1.131.534a8.7,8.7,0,0,1,2.381,1.722,5.041,5.041,0,0,1,1.087,1.652c.157.434.182.679.126.71s-.22-.176-.478-.534a7.321,7.321,0,0,0-1.225-1.307,9.976,9.976,0,0,0-2.306-1.388c-.113-.051-.239-.1-.352-.151a.578.578,0,0,0,.069.056,5.126,5.126,0,0,1,1.169,1.628c.151.433.157.685.1.716-.075.032-.219-.188-.477-.54A7.568,7.568,0,0,0,43.367,51.8a10.045,10.045,0,0,0-2.343-1.257,9.365,9.365,0,0,0-1.188-.351c-.415.094-.83.2-1.232.32a7.536,7.536,0,0,1,.943.277,5.645,5.645,0,0,1,.917.37c.27.138.509.258.71.377.2.145.352.27.478.377.245.214.358.352.32.4s-.213.007-.509-.106c-.144-.057-.314-.132-.515-.22-.207-.069-.452-.145-.716-.227a6.141,6.141,0,0,0-.886-.226,9.814,9.814,0,0,0-1.062-.2,7.127,7.127,0,0,0-1.175-.113l-.415-.018c-.182.081-.358.175-.534.263a7.935,7.935,0,0,1,3.054,1.408,5.278,5.278,0,0,1,1.068,1.093c.2.3.251.49.2.541s-.232-.057-.509-.264c-.27-.182-.66-.459-1.175-.742a9.012,9.012,0,0,0-3.877-1.137c.032.025.057.05.094.075l.252.233a6.2,6.2,0,0,1,1.194,1.854c.483,1.118.609,1.847.49,1.9-.145.063-.528-.578-1.15-1.545a7.374,7.374,0,0,0-1.207-1.5l-.194-.157a.472.472,0,0,1-.076-.063l-.132-.075c-.081-.057-.188-.12-.207-.1-.013-.006-.019-.013-.032-.013.082,1.188.044,2.193.12,2.941.082.968.226,1.559.088,1.615-.107.044-.484-.477-.761-1.495a14.968,14.968,0,0,1-.377-2.35.365.365,0,0,1-.044.05l-.219.251c-.1.151-.214.277-.3.44a2.79,2.79,0,0,0-.358.968,6.674,6.674,0,0,0,.025,1.916c.157,1.163.144,1.936-.006,1.948s-.377-.66-.729-1.8a6.815,6.815,0,0,1-.277-1.571A16.247,16.247,0,0,0,29.9,57.915c-.006.019-.019.038-.025.057,0,.182.013.377.025.584a10.364,10.364,0,0,0,.9,3.645,2.423,2.423,0,0,0,.685.791c.213.157.389.239.364.321-.019.056-.176.125-.5.075a2.07,2.07,0,0,1-1.163-.754,5.165,5.165,0,0,1-.892-1.74,9.03,9.03,0,0,1-.245-.949,10.558,10.558,0,0,0-.452,1.96,1.762,1.762,0,0,0,.043.3c.051.194.095.389.145.584a3.977,3.977,0,0,0,.189.452c.081.157.157.321.251.472a10.084,10.084,0,0,0,.565.873,10.805,10.805,0,0,0,1.157,1.338,5.867,5.867,0,0,0,.911.729c.22.157.408.233.377.315-.019.056-.17.132-.5.081a3.239,3.239,0,0,1-1.25-.54,7.051,7.051,0,0,1-1.458-1.32c-.113-.132-.22-.27-.333-.414a7.338,7.338,0,0,0,.327,1.112,11.184,11.184,0,0,0,3.456,4.656,2.912,2.912,0,0,0,.829.157,12.446,12.446,0,0,0-.082-1.577,3.049,3.049,0,0,1,.138-1.2,1.179,1.179,0,0,1,.447-.66A1.285,1.285,0,0,0,34,67.121a1.259,1.259,0,0,0,.126-.132,2.364,2.364,0,0,0,.4-1.156,5.137,5.137,0,0,0-.3-1.408l-.113-.371.351-.176c.8-.4,1.395-.345,1.326-1.426a1.352,1.352,0,0,1,.126-.584l.031-.032.025-.019a5.459,5.459,0,0,1,.4-.427l.364-.314.346-.3.188-.188v-.019a1.719,1.719,0,0,1-.012-.207.7.7,0,0,1,.169-.5.887.887,0,0,1,.377-.264,1.675,1.675,0,0,1,.289-.069l.032-.006c.006,0,.025-.019.025-.019l.088-.063c.251-.188.465-.2.628-.477.138-.245.082-.515.321-.717a3.739,3.739,0,0,1,.949-.527,1.854,1.854,0,0,0,.672-.384c.031-.037.056-.075.088-.113l.012-.006a.059.059,0,0,0,.013-.019c.006-.006.006-.019.013-.019l.05-.094c.031-.057.088-.145.1-.176l.044-.113c.007-.05.019-.082.038-.176a.865.865,0,0,1,.057-.189.655.655,0,0,1,.132-.219,1.643,1.643,0,0,1,.49-.384l.107-.069.081-.038.025-.006.051-.025.106-.038.158-.044c.213-.056.339-.063.464-.088.352-.069.742-.609,1.119-.452.188.082.4.49.54.647.258.283.49.591.748.867a2.3,2.3,0,0,0,1.131.786l.076.025s.025.006.025.012H46.5c.056,0,.17.026.176.013a.587.587,0,0,0,.182-.044A1.32,1.32,0,0,0,47.3,57a4.013,4.013,0,0,1,.609-.66,1.331,1.331,0,0,1,1.188-.157,10.071,10.071,0,0,1,1.351.8c.4.27.785.534,1.15.754.094.057.182.107.27.151l.113.05.157.063c.2.076.4.157.6.233A4.892,4.892,0,0,0,53.289,58.424ZM48.966,50.01a40.237,40.237,0,0,1-1.8-6.4c-.484,1.653-1.131,3.236-1.653,4.876A12.685,12.685,0,0,1,48.966,50.01Zm-9.689,30.7c2.287.239,4.687.861,6.924.415-3.883-1.137-7.377-3.934-10.393-6.428a1.067,1.067,0,0,1-.163-.176c-.3-.409-1.559-.748-2.036-1.024a7.993,7.993,0,0,0-1.741-1.106c-.993-.252-2.1.521-3.054.691-1.288.232-2.588.389-3.883.521-2.538.264-5.1.434-7.6.911a16.8,16.8,0,0,0-7.069,2.633c-2.193,1.665-4.6,5.034-4.336,7.905a6.955,6.955,0,0,0,6.661,1.106,1.011,1.011,0,0,1,.389-.069c3.444-.9,6.259-3.085,9.451-4.575a51,51,0,0,1,5.021-1.8,24.64,24.64,0,0,0,2.494-.961,3.74,3.74,0,0,1,.886-.434,4.894,4.894,0,0,1,1.961.434c.685.283,1.376.572,2.073.836A17.312,17.312,0,0,0,39.277,80.712Zm-2.8-31.493c-.188-.032-.377-.063-.578-.095l-.779-.075c-.44-.025-.861-.05-1.3-.057-.219-.012-.414-.018-.609-.012s-.4.006-.584.012a17.168,17.168,0,0,0-2.024.183,4.816,4.816,0,0,0-1.256.351c-.239.088-.39.283-.453.233-.044-.031-.1-.226.2-.559a3.243,3.243,0,0,1,1.332-.748,9.888,9.888,0,0,1,2.13-.434c.208-.025.415-.044.629-.05s.452-.019.659-.019c.252,0,.516.007.792.013a6.98,6.98,0,0,0-1.1-.233c-.854-.094-1.4-.106-1.413-.245-.013-.107.49-.326,1.426-.414a5.006,5.006,0,0,1,1.445.113c-1.4-1.816-4.907-.71-6.246.835-.879,1.025-4.185,5.342-1.52,5.781a1.338,1.338,0,0,1,.169.051,4.27,4.27,0,0,1,.264-.736A5.8,5.8,0,0,1,29.977,50.6c.779-.434,1.282-.509,1.357-.4.182.3-1.722,1.275-2.714,3.368a4.79,4.79,0,0,0-.434,1.52,3.558,3.558,0,0,0,.019,1.257.926.926,0,0,0,.151.39,15.945,15.945,0,0,1,1.6-2.457A16.521,16.521,0,0,1,36.48,49.219Z"/><path d="M108.189,60.052c.025.138-.93.421-2.52.684a53.107,53.107,0,0,1-6.22.447c-2.419.062-4.594.132-6.152.213-1.577.113-2.576.17-2.595.019s.917-.459,2.482-.76a43.928,43.928,0,0,1,6.24-.528c2.412-.057,4.593-.1,6.176-.138C107.178,59.92,108.164,59.9,108.189,60.052Z"/><path d="M102.616,96.5c.119,0,.289.4.081,1.055a2.348,2.348,0,0,1-.672.981,3.289,3.289,0,0,1-1.269.653A3.383,3.383,0,0,1,98.3,98.9c-.6-.345-.742-.685-.673-.8.076-.132.465.025.937.1a4.6,4.6,0,0,0,1.929-.051,3.448,3.448,0,0,0,.936-.395,2.743,2.743,0,0,0,.6-.553C102.327,96.83,102.452,96.484,102.616,96.5Z"/><path d="M57.116,56.621c.635.54.917,1.011.8,1.112S57.4,57.6,56.7,57.249a7.476,7.476,0,0,0-1.131-.49,2.088,2.088,0,0,0,.138.333c.22.5.415.622.955.873.138.07.252.132.358.189.139.082.252.176.371.258a1.771,1.771,0,0,1,.308.345,1.3,1.3,0,0,1,.17.415,1.861,1.861,0,0,1-.164,1.074c-.094.214-.176.327-.251.315s-.126-.139-.157-.371a2.9,2.9,0,0,0-.151-.8c-.094-.208-.358-.334-.88-.522a3.181,3.181,0,0,1-.854-.427,2.347,2.347,0,0,1-.673-.905,4.945,4.945,0,0,1-.188-.484,1.51,1.51,0,0,1-.076-.653.8.8,0,0,1,.271-.509.814.814,0,0,1,.5-.183,1.416,1.416,0,0,1,.578.113A5,5,0,0,1,57.116,56.621Z"/><path d="M56.833,72.33a1.572,1.572,0,0,1,.076,1.175,2.813,2.813,0,0,1-.547,1.049c-.233.308-.5.572-.716.83a6.582,6.582,0,0,1-.918,1.156,2.921,2.921,0,0,1-.358.283,1.865,1.865,0,0,1-.528.213l-.182.007-.05-.026c-.013,0-.032.026-.032.026l-.037.012-.07.006-.144-.006a1.778,1.778,0,0,1-.509-.144,6.635,6.635,0,0,1-1.672-1.383c-1.382-1.018-2.551-1.967-3.468-2.57-.892-.635-1.395-1.068-1.332-1.175s.685.132,1.665.616a27.6,27.6,0,0,1,3.776,2.319l.013.012.025.019c.383.358.98,1.357,1.552,1.389.685.037,1.062-.874,1.464-1.351l.025-.025a5.087,5.087,0,0,0,1.245-1.509c.188-.54.113-.716-.308-.892a10.457,10.457,0,0,0-1.012-.283c-.251-.069-.383-.138-.377-.194s.144-.1.4-.132a3.886,3.886,0,0,1,1.163.025A1.263,1.263,0,0,1,56.833,72.33Z"/><path d="M33.332,76.326c.446.283.6.515.553.654s-.4.113-.8.05a1.132,1.132,0,0,0-.151-.025.325.325,0,0,1-.1.019.149.149,0,0,1-.051.006l-.1.019c-.069.019-.145.031-.22.05l-.057.013-.025.006c0-.013-.05.019-.05.019-.05.019-.094.044-.176.081a2.322,2.322,0,0,1-.264.12,1.683,1.683,0,0,1-.345.094,2.325,2.325,0,0,1-1.182-.138,1.75,1.75,0,0,1-.823-.566c-.188-.207-.289-.609-.22-.7.038-.138.1-.22.17-.233s.151.051.239.164a.423.423,0,0,0,.062.088.436.436,0,0,1,.082.044c.025.012.044.025.069.037a.865.865,0,0,1,.107.051,1.909,1.909,0,0,0,.591.176,2.166,2.166,0,0,0,.773.025c.106-.007.1-.038.15-.044.013,0,.126-.051.2-.076a2.394,2.394,0,0,1,1.094-.106,2.686,2.686,0,0,1,.289.062A1.341,1.341,0,0,1,33.332,76.326Z"/><path d="M23.36,79.06c.082.263-2.142,1.332-5.133,2.123-2.954.761-5.392,1.144-5.474.861s2.269-1.131,5.2-1.885C20.853,79.393,23.266,78.764,23.36,79.06Z"/></g><text x="0" y="143" fill="#000000" font-size="5px" font-weight="bold" font-family="'Helvetica Neue', Helvetica, Arial-Unicode, Arial, Sans-serif">Created by Hey Rabbit</text><text x="0" y="148" fill="#000000" font-size="5px" font-weight="bold" font-family="'Helvetica Neue', Helvetica, Arial-Unicode, Arial, Sans-serif">from the Noun Project</text></svg>