<svg xmlns="http://www.w3.org/2000/svg" viewBox="0 0 128 160" x="0px" y="0px"><g><path d="M118.437,84.722a1.242,1.242,0,0,1-.848,1.482c-2.644.821-5.231.706-7.9.76.939,5.232-.08,11.05-4.194,14.747a9.019,9.019,0,0,1-4.265,2.109,33.96,33.96,0,0,0,.238,5.577c.459.25.91.509,1.361.783a27.563,27.563,0,0,1,6.227,4.8c1.514,1.67,2.093,4.112,3.317,5.983.708,1.08-.582,2.087-1.541,1.683-4.376-.027-8.737.639-13.114.756-4.191.11-8.374.212-12.565.282-8.9.146-17.8.2-26.695-.052-8.43-.24-16.973-.552-25.4-.131-7.061.341-14.267,1.142-21.189-.7a1.2,1.2,0,0,1-.434-2.08c.6-5.206,6.318-9.619,9.448-13.365a1.055,1.055,0,0,1,.613-.386,12.55,12.55,0,0,1,3.531-1.892,9.752,9.752,0,0,1-2.933-.937c-6.067-3.067-7.27-10.813-5.243-16.824A48.344,48.344,0,0,1,10.289,85.6a1.134,1.134,0,0,1-.314-.153A1.1,1.1,0,0,1,9,84.288a8.281,8.281,0,0,1,1.107-4.23,1.583,1.583,0,0,1,.121-.169c.424-6.835.623-13.734,1.821-20.487a59.773,59.773,0,0,1,2.982-11.266c1.243-3.2,3.252-5.994,3.537-9.508,0-.04.016-.064.016-.1a.942.942,0,0,1,.339-1.152,95.991,95.991,0,0,1,23.11-13.862,1.276,1.276,0,0,1,.427-.1,15.334,15.334,0,0,0,5.518-6.339,1.155,1.155,0,0,1,.815-1.353,9.911,9.911,0,0,1,2.837-.313c.016,0,.024.008.04.008q.1-.712.243-1.426a38.656,38.656,0,0,1-1.906-5.974c-.41-1.684-1.528-4.264,1.228-4.021,9.575.837,19.392.28,29.015.755a1.176,1.176,0,0,1,1.08.79,1.042,1.042,0,0,1,.088.943,52.409,52.409,0,0,1-3.988,9.025,1.1,1.1,0,0,1,.056.524c-.033.386-.073.765-.106,1.152.016,0,.024-.008.04-.008h1.749c.492,0,1.08.251,1.16.775a11.141,11.141,0,0,0,3.043,5.394,1.294,1.294,0,0,1,.258.419A165.222,165.222,0,0,1,106.5,36.3a1.223,1.223,0,0,1,.507.726,1.089,1.089,0,0,1,.451.669c1.888,7.69,5.534,14.689,7.173,22.476.924,4.409,1.96,8.819,2.594,13.284C117.757,77.186,117.77,81.014,118.437,84.722Zm-2.531-.59c-.553-3.821-.591-7.7-1.257-11.527-.682-3.95-1.542-7.867-2.353-11.793-1.606-7.8-5.285-14.786-7.173-22.476a.119.119,0,0,1-.008-.056A166.323,166.323,0,0,0,82.178,25.746a1.161,1.161,0,0,1-.411-.307c-.761,3.828-2.182,8.309-5.585,10.112a.753.753,0,0,1-1.313-.445c-.152-2.74-2.607-6.143-5.108-3.2A27.923,27.923,0,0,0,66.808,35.7a10.4,10.4,0,0,0-1.033,2.449,24.366,24.366,0,0,1-.318,5.352c.241,0,.491.008.733.017a2.641,2.641,0,0,0,.468-.484c.694-.966.993-1.756,1.178-1.683.121.04.168.854-.429,2.143a.316.316,0,0,1-.048.089c.556.041,1.1.089,1.6.154,5.553.673,13.417,4.765,13.267,11.189a1.666,1.666,0,0,1-.024.209c1.891,3.814,4.459,7.644,5.028,11.941.626,4.8-1.078,9.018-1.936,13.6,3.531-1.037,5.794,1.753,7.783,4.495a27.077,27.077,0,0,1,.407-4.932c.194-1.153.444-2.257.7-3.328.129-.532.259-1.056.388-1.58s.267-1.039.34-1.507c.436-1.894.341-3.892.745-5.859.073-.459.154-.91.227-1.354a8.9,8.9,0,0,0,.17-1.289,17.175,17.175,0,0,0,.067-2.483,30.279,30.279,0,0,0-.731-4.6c-.168-.734-.337-1.443-.49-2.136-.056-.226-.112-.452-.16-.678a2.571,2.571,0,0,1-.089-.459l.307-.338a3.05,3.05,0,0,0,.363-.451,2.726,2.726,0,0,0,.218-.363,9.481,9.481,0,0,0,.824-3.36,25.006,25.006,0,0,0,.083-3.176c-.142-3.965-.583-6.722-.743-8.479-.192-1.766-.184-2.547-.063-2.563.113,0,.322.733.716,2.458a58.545,58.545,0,0,1,1.291,8.529c.04.58.056,1.192.055,1.829.323-.749.686-1.539,1.09-2.361.936-1.885,1.776-3.6,2.4-4.842.59-1.265,1.009-2.046,1.2-1.982.169.065.079.935-.292,2.3a34.474,34.474,0,0,1-2.075,5.125c-.945,1.917-1.816,3.609-2.454,4.842-.04.072-.073.145-.105.209a8.94,8.94,0,0,1-.662,2.112,5.475,5.475,0,0,1-.291.507c-.089.137-.25.371-.258.371-.032.032-.049.056-.024.08l.088.355c.169.685.346,1.4.53,2.136a33.386,33.386,0,0,1,.771,4.208c.138-.443.283-.878.444-1.321a61.576,61.576,0,0,1,3.294-7.405c.969-1.829,1.663-2.908,1.832-2.828s-.219,1.306-.954,3.224-1.816,4.544-2.89,7.469a65.571,65.571,0,0,0-2.109,7.123c-.332,1.709-.228,3.675-.689,5.8-.1.556-.219,1.064-.348,1.571s-.251,1.032-.38,1.556c-.251,1.055-.485,2.127-.663,3.223a23.652,23.652,0,0,0-.287,6.117,89.9,89.9,0,0,1,10-1.75C108.5,84.513,112.343,84.951,115.906,84.132Zm-12.762,16.28c4.088-2.778,5.011-8.339,4.192-12.909-4.215.238-8.133,1.541-12.18,2.715a1.211,1.211,0,0,1-.435.048c.337.79.418,1.435.176,1.572-.323.193-1.112-.573-1.756-1.694a4.513,4.513,0,0,1-.772-1.967c-1.224-1.79-2.359-3.814-4.156-4.831-1.531-.863-2.869-.308-4.095.779-.766.685-3.161,2.722-2.13,3.932a.447.447,0,0,1,.04.064,1.066,1.066,0,0,1,.4.275l.072-.025c1.58-.45,2.91-.908,3.87-1.23.975-.418,1.628-.66,1.725-.49.1.153-.355.668-1.234,1.312a24.179,24.179,0,0,1-3.427,1.546c-.919.41-1.645,1.135-2.548,1.545-.725.33-1.483.6-2.225.885-1.806.692-3.62,1.368-5.394,2.148-1.451.628-7.062,2.752-5.742,5.219.016.032.024.064.04.1a.364.364,0,0,0,.274.072,5.868,5.868,0,0,0,1.339-.482l.274-.1c.048-.024.1-.048.137-.072a11.449,11.449,0,0,1,1.709-.74c.54-.169,1.072-.322,1.572-.475,1-.289,1.919-.522,2.652-.764a10.209,10.209,0,0,1,2.37-.538c.516-.137.992-.265,1.419-.4,1.6-.466,2.572-1.03,2.685-.852.088.137-.654.966-2.339,1.755a23.355,23.355,0,0,1-2.927,1.086c-.548.169-1.12.346-1.717.539s-1.2.41-1.83.619c-.951.314-1.878.611-2.749.869-.072.04-.145.072-.217.112a14.99,14.99,0,0,1-2.871,1.264c-.266.273-2.37,1.1-1.137,1.82.282.162,1.443-.458,1.8-.555.524-.136,1.064-.241,1.58-.345.266-.064.532-.121.806-.177s.565-.112.855-.176c1.394-.282,2.7-.49,3.893-.667a3.767,3.767,0,0,0,.411-.088c.476-.137.919-.257,1.322-.37.371-.1.71-.185,1.008-.249.089-.024.186-.056.274-.08,1.806-.555,2.926-.627,2.983-.466.064.194-1.032.612-2.645,1.369-.427.185-.887.386-1.4.587a14.543,14.543,0,0,1-1.717.531c-.056.008-.121.024-.177.032-.21.08-.427.153-.645.233a20.744,20.744,0,0,1-3.442.707c-.6.072-1.161.176-1.7.273a9.777,9.777,0,0,0-1.459.426,7.428,7.428,0,0,1-1.572.531c-.041.749-.968,1.353-.171,2.127.612.6,1.66-.047,2.346-.224.266-.088.532-.177.806-.273.556-.169,1.112-.386,1.693-.62,2.3-.925,4.394-1.882,6.022-2.381a10.106,10.106,0,0,1,1.935-.474c.467-.072.733-.064.766.025s-.186.257-.605.475-1.016.507-1.75.869c-1.467.7-3.483,1.8-5.869,2.752-.105.04-.2.081-.307.121,2.306-.313,4.643-1.069,6.731-1.422a21.622,21.622,0,0,0,6.224-2.171.933.933,0,0,1,.621-.322c1.032-.548,2.064-1.143,3.112-1.747a1.019,1.019,0,0,1,.565-.33c.185-.234.4-.475.645-.733,1.024-1.079,2.088-1.449,2.322-1.175s-.4,1.088-1.178,1.933C94.543,101.389,99.467,102.916,103.144,100.412Zm6.1,19.831a13.132,13.132,0,0,0-2.665-4.4,34.975,34.975,0,0,0-7.194-4.922c-4.35-2.268-9.121-3.384-13.714-5.039-.106,1.861,0,3.691-.923,5.415a42.776,42.776,0,0,1-3.55,5.116.748.748,0,0,1-1.144.144c-3.037-2.42-4.9-7.137-9.264-6.938-1.26,4.158-4.229,7.557-5.409,11.723q6.626.066,13.251.01a14.916,14.916,0,0,0,3.112-1.513,32.129,32.129,0,0,0,3.008-2.263c.911-.741,1.734-1.425,2.452-1.981,1.427-1.111,2.378-1.691,2.5-1.554s-.613.991-1.863,2.272c-.629.644-1.379,1.4-2.267,2.215a22.615,22.615,0,0,1-3.1,2.456c-.186.12-.371.225-.565.33l4.812-.069C94.215,121.1,101.775,120.294,109.247,120.243ZM98.915,108.122c-.1-1.338-.1-2.676-.1-4.014-3.2.1-6.593-.642-9.631-.676-.419.25-.839.475-1.258.7C91.639,105.417,95.362,106.507,98.915,108.122ZM84.6,73.978a17.121,17.121,0,0,0,.438-4.271c-.206-4.78-2.556-8.659-4.641-12.787-.089.041-.185.081-.274.113C78.3,59.24,82.075,67.27,82.654,69.044c.1.306.185.629.281.951-.345-1.83-.924-3.49-1.221-4.772-.37-1.443-.418-2.354-.248-2.41.185-.056.571.79,1.159,2.1A22.432,22.432,0,0,1,84.4,70.44,31.321,31.321,0,0,1,84.6,73.978Zm-1.518,37.364a12.7,12.7,0,0,0,1.132-5.423,50.087,50.087,0,0,1-8.827,2.653c-.435.1-.863.193-1.3.282,2.506,1.307,4.172,4.129,6.379,6.146A26.2,26.2,0,0,0,83.083,111.342Zm-.7-29.024c1.375-6.954-1.619-12.945-3.364-19.442-.418-1.564-1.045-3.854-.592-5.578A15.468,15.468,0,0,1,73.4,55.771c-3.836-1.575-6.027-2.173-10.13-1.595-2.41.344-5.038.56-6.762-.344a5.62,5.62,0,0,1-.517,1.572c-.315.636-1.258,1.038-1.847,1.336-2,1.014-3.483,1.98-4.073,4.43-1.043,4.311-.748,8.9-3.08,12.66a1.613,1.613,0,0,1,.008.282c-.026,1.959-.608,4.344.479,6.1.024.048-.008.088.008.129a6.433,6.433,0,0,1,2.678,7.586c-.25.757,8.339,4.624,9.185,5.165A9.707,9.707,0,0,1,62.879,96.6a7.721,7.721,0,0,1,.74,2.467c.048.315.209,1.161.5,1.339.58.355.492-.2.976-.588C63.2,93.177,75.658,90.873,79.77,88.974,78.66,86.724,80.29,84.05,82.379,82.318Zm-2.528-26.9c0-.041.008-.081.008-.113a1.363,1.363,0,0,1-.048-.379c.125-5.61-7.747-8.654-12.422-8.939-3.683-.221-9.808-.249-11.246,3.957.136.548.249,1.08.337,1.6l.17-.225.217-.347a16.081,16.081,0,0,1,.969-1.3,6.773,6.773,0,0,1,2.193-1.731,4.586,4.586,0,0,1,1.8-.434c.411.008.645.049.661.13.048.2-.911.354-2.024,1.078a7.478,7.478,0,0,0-1.7,1.691c-.274.379-.525.79-.807,1.257l-.21.355c-.1.137-.185.274-.29.411.1.04.193.08.29.113a3.757,3.757,0,0,0,1.612.089,5.918,5.918,0,0,0,1.548-.506,9.34,9.34,0,0,0,2.354-1.651c1.218-1.152,1.646-2.143,1.848-2.078.161.024.031,1.257-1.139,2.723a8.991,8.991,0,0,1-1.2,1.225c1.04-.08,2.233-.152,3.506-.207l.742-.024a2.6,2.6,0,0,0,.6-.056,4.177,4.177,0,0,0,1.089-.394,5.386,5.386,0,0,0,1.6-1.272,3.841,3.841,0,0,0,.686-1.185c.121-.314.161-.564.266-.556.089.008.225.17.265.589a2.979,2.979,0,0,1-.42,1.684A4.958,4.958,0,0,1,69.665,52.5c.476-.008.968-.008,1.483-.007a4.685,4.685,0,0,0,3.282-.957c.806-.564,1.378-.91,1.507-.765s-.178.693-.871,1.491A4.456,4.456,0,0,1,73.5,53.442a4.572,4.572,0,0,1-1.475.385c2.538,1.211,5.213,2.6,7.277,1.972A2.437,2.437,0,0,1,79.851,55.413ZM76.143,33.858C79,31.781,80.016,27.252,80.6,23.827a13.068,13.068,0,0,1-2.358-4.233h-.822a.425.425,0,0,1-.258-.1c-.317,2.837-.923,5.569-3.061,7.8A26.629,26.629,0,0,1,72.02,29.2C74.034,29.3,75.621,31.456,76.143,33.858ZM64.723,21.244c8.221-.2,11.475-7.4,13.905-14.135-8.8-.337-17.739.052-26.5-.64C53.63,13.233,56.413,21.448,64.723,21.244Zm8.929,2.513a13.79,13.79,0,0,0,1.139-4.585,12.507,12.507,0,0,1-11.214,4.441,12.934,12.934,0,0,1-9.78-6.036,31.989,31.989,0,0,1-.575,3.482,8.191,8.191,0,0,0,4.865,4.057,9.719,9.719,0,0,1,4.294,2.341,15.631,15.631,0,0,1,3.084,4.878,22.545,22.545,0,0,1,4.016-4.075C71.014,26.963,72.78,25.618,73.652,23.757ZM69.31,109.5a10.085,10.085,0,0,1-4.787-1.019,1.144,1.144,0,0,1-.467-.42,8.575,8.575,0,0,1-4.787-.213c.376,2.862,2.349,5.1,3.637,7.628a23.21,23.21,0,0,1,1.609,3.91C65.864,115.989,68.171,113.016,69.31,109.5ZM64.2,38.274q-.06-.677-.144-1.33a1.261,1.261,0,0,1-.177-.9c0-.008.008-.016.008-.032-.008-.072-.016-.153-.024-.225-.032-.162-.056-.339-.1-.492-.5-2.153-1.64-5.659-4.743-5.283-2.749.337-4.186,2.77-5.573,4.768a.729.729,0,0,1-.992.257c-3.3-2.251-7.621-5.454-8.609-9.654-.161.113-.322.225-.484.33a1.161,1.161,0,0,1-.8.169,91.721,91.721,0,0,0-21.61,12.936c-.032.323-.064.645-.121.951,1.683,2.42,3.18,4.774,4.42,6.967.652,1.169,1.255,2.29,1.738,3.371.25.54.515,1.04.716,1.548s.387,1,.572,1.467a20.534,20.534,0,0,1,.82,2.555c.1.379.2.734.289,1.056.048.339.1.645.129.919a4.644,4.644,0,0,1,.111,1.7c-.225.032-.57-2.33-2.156-5.9-.209-.444-.418-.911-.635-1.4s-.507-.976-.773-1.492c-.515-1.032-1.151-2.1-1.827-3.241C23.149,45.523,21.893,43.6,20.5,41.6a27.915,27.915,0,0,0-.051,3.07,42.535,42.535,0,0,0,1.67,10.214,76.545,76.545,0,0,0,2.8,8.061c1.834,4.523,3.081,7.3,2.9,7.385-.153.073-1.7-2.54-3.783-7.006a63.656,63.656,0,0,1-3.122-8.1,40.706,40.706,0,0,1-1.8-10.173c-.242.532-.484,1.056-.742,1.588a44.189,44.189,0,0,0-3.45,10.515c-1.512,7.624-1.808,15.361-2.289,23.1a1.235,1.235,0,0,1-.315.758,1.86,1.86,0,0,1-.121.257,5.391,5.391,0,0,0-.719,2.152,33.719,33.719,0,0,0,6.495,1.6,1.309,1.309,0,0,1,.226-.161c3.443-2,8.593-1.96,12.292-.587a9.309,9.309,0,0,1,2.54-1.481c-.191-3.99-.406-7.706-.452-11.123A86.267,86.267,0,0,1,33,61.214c.089-.781.219-1.531.324-2.264s.2-1.443.364-2.168c.17-.709.348-1.338.437-1.91a1.564,1.564,0,0,0,.024-.266,1.907,1.907,0,0,0-.072-.427,3.676,3.676,0,0,0-.708-1.371c-.089-.1-.169-.21-.274-.331l-.338-.362c-.226-.226-.46-.42-.693-.646-.556-.435-1.128-.9-1.708-1.363-.145-.129-.274-.25-.411-.379l-.193-.194-.1-.089L29.61,49.4l-.024-.024-.056-.065-.016-.008c-.226-.306-.451-.6-.669-.895-.4-.588-.773-1.177-1.087-1.742-.644-1.12-1.167-2.136-1.666-2.935-.958-1.58-1.836-2.459-1.683-2.612.105-.113,1.185.46,2.465,2.065a30.5,30.5,0,0,1,1.949,2.83c.338.541.708,1.073,1.1,1.621q.314.387.628.8l.741.693c.274.218.54.428.8.646.153.121.3.242.451.363a4.752,4.752,0,0,1-.233-.726c-.04-.274-.08-.532-.12-.79a12.57,12.57,0,0,1-.168-1.483,47.061,47.061,0,0,1-.013-4.763c.041-1.306.082-2.338.067-3.144.025-.806-.023-1.378-.015-1.765s.041-.564.1-.572.129.153.234.524a10.521,10.521,0,0,1,.337,1.773c.112.815.176,1.871.223,3.176s.054,2.87.263,4.659a10.6,10.6,0,0,0,.2,1.378c.048.234.089.468.137.71a5.892,5.892,0,0,0,.241.661,10.08,10.08,0,0,0,.716,1.387c.145.266.29.524.443.79.137.29.266.621.394.935a4.637,4.637,0,0,1,.208,2.184c-.1.718-.283,1.387-.42,2.031-.13.629-.2,1.338-.308,2.055-.089.726-.211,1.467-.284,2.233a89.3,89.3,0,0,0-.313,10.26c.054,3.248.269,6.794.459,10.631a23.16,23.16,0,0,1,2.918-.49,6.416,6.416,0,0,1,3.557-2.617c-.2-2.337.109-5.5,2.213-6.22-1.86-3.636-.058-9.938.783-13.2,1.261-4.923,3.78-11.063,9.736-10.761,1.2-3.36,4.469-4.8,7.991-5.281.008-.032.016-.056.024-.089a5.576,5.576,0,0,0,.089-.653,5.862,5.862,0,0,0-.674-2.926c-.419-.887-.918-1.669-1.321-2.346-.837-1.355-1.215-2.306-1.054-2.4s.806.63,1.837,1.839a14.741,14.741,0,0,1,1.65,2.331,7.512,7.512,0,0,1,.7,1.628,5.783,5.783,0,0,1,.216,1.959,2.587,2.587,0,0,1-.056.5c.064,0,.129-.008.193-.008A34.944,34.944,0,0,1,64.2,38.274Zm-.241,66.067a5.473,5.473,0,0,0-.024-.895,3.691,3.691,0,0,0-1.916-1.928c-.057.025-.1.057-.162.081a1.318,1.318,0,0,1-.306.056,1.045,1.045,0,0,1-.274,0,2.94,2.94,0,0,1-.927-.218,8.605,8.605,0,0,1-1.571-.832c-.5-.3-1.007-.7-1.434-.912-2.183-1.081-4.109-2.163-5.519-2.849-.4-.209-.733-.395-1.031-.565-.266-.121-.532-.234-.782-.339-.62-.218-1.192-.428-1.716-.613-.532-.154-1.015-.3-1.434-.421s-.83-.177-1.136-.266c-.621-.146-.959-.275-.959-.364s.371-.145,1.015-.16a10.2,10.2,0,0,1,1.177.033c.459.065.991.146,1.572.243.58.129,1.184.307,1.853.485.653.218,1.338.476,2.055.751,1.41.6,2.932,1.332,4.463,2.163.774.412,1.523.815,2.248,1.2a7.54,7.54,0,0,0,1.966.855,2.053,2.053,0,0,0,.355.033s.064-.016.113-.024a.457.457,0,0,1,.048-.065c-.111-3.28-3.615-4.919-6.194-6.2a44.684,44.684,0,0,1-5.414-2.89,10.427,10.427,0,0,0-2.094-1.347,14.289,14.289,0,0,1-2.579-.985c-.008,0-.266-.17-.266-.17l-.249-.145c-.194-.089-.387-.186-.572-.274a8.685,8.685,0,0,1-2.023-1.2,4.367,4.367,0,0,1-.668-.677,3.266,3.266,0,0,1-.354-.686c-.064-.362-.056-.58.032-.612s.242.113.452.411c.128.121.273.226.418.363a6.63,6.63,0,0,0,.669.412,13.667,13.667,0,0,0,1.966.839c.193.081.4.162.612.243l.347.177.322.178a9.68,9.68,0,0,0,1.16.621c.1.041.17.049.258.089a.373.373,0,0,1,.137.024l.21-.016a.98.98,0,0,1,.056-.185c2.019-4.923-5.3-9.176-8.266-4.584a1.176,1.176,0,0,1-.871.556,1.252,1.252,0,0,1-.846.45c-2.289.249-4.571.634-6.265,2.325a1.143,1.143,0,0,1-.733.346,5.139,5.139,0,0,1-1.508.918,5.531,5.531,0,0,1-2.176.377c-.557-.041-.887-.2-.911-.379-.024-.194.307-.379.79-.58.46-.193,1.105-.426,1.8-.684.105-.04.194-.08.29-.121-.387.161-1.974-.468-2.466-.533a15.014,15.014,0,0,0-2.828-.107c-1.282.08-3.289.223-4.225,1.206-1.919,2.021-1.487,6.487-.965,8.946.658,3.047,2.534,5.8,5.709,6.532,4.844,1.116,9.222-1.452,12.223-5.085A10.592,10.592,0,0,1,34.8,95.712c-.58-.686-.814-1.194-.693-1.331.137-.145.637.154,1.354.63,5.2,3.478,11.385,5.424,17.21,7.734,1.588.63,5.713,2.825,8.646,3.214-1.047-.509-2.256-1-3.44-1.6-.693-.348-1.362-.687-2.006-1.009-.379-.194-.6-.331-.919-.477-.3-.145-.6-.274-.9-.395-1.209-.5-2.353-.929-3.272-1.421a6.546,6.546,0,0,1-2-1.468,2.117,2.117,0,0,1-.387-.573c-.056-.137-.072-.226-.04-.258.073-.08.338.17.781.436a10.843,10.843,0,0,0,2.047.993c.91.347,2.047.67,3.328,1.114.314.122.645.243.983.388.322.129.717.347.991.468.645.315,1.321.646,2.006.985,1.378.694,2.7,1.235,3.884,1.937C63.2,105.573,63.913,105.405,63.962,104.341Zm-3.945,16.931c1.16.017,2.321.026,3.481.042-.867-4.852-5.039-8.482-5.664-13.294a16.938,16.938,0,0,0-9.256,4.684.717.717,0,0,1-1.024,0c-1.771-2.25-2.728-5.773-3.242-8.812a37.323,37.323,0,0,1-10.02,2.29c-3.49.441-8.568.365-11.431,2.748a1,1,0,0,1-.314.194c-1.621,1.933-3.388,3.729-5,5.67-1.339,1.611-3.388,3.778-3.7,5.994,7.156,1.537,14.483.276,21.729.209,1.314-.015,2.62-.006,3.925,0-.564-.1-1.144-.2-1.74-.332a24.094,24.094,0,0,1-3.949-1.252,16.606,16.606,0,0,1-2.981-1.63c-1.611-1.13-2.328-2.041-2.239-2.17.121-.177,1.12.517,2.732,1.348a23.91,23.91,0,0,0,2.948,1.284,33.03,33.03,0,0,0,3.788,1.091c2.756.6,5.327.946,7.18,1.31.7.138,1.3.275,1.773.4C51.344,121.1,55.68,121.188,60.017,121.272ZM54.294,31.223c1.735-1.861,3.444-2.827,5.684-2.454a14.616,14.616,0,0,0-3.4-1.607c-2.8-1.017-4.157-2.727-5.662-5.235a1.118,1.118,0,0,1-.161-.774A1.381,1.381,0,0,1,50.8,20.8a23.251,23.251,0,0,0,.558-2.966,8.037,8.037,0,0,0-1.1.056V17.9a17.173,17.173,0,0,1-5.1,6.541c.312,2.249,2.156,4.668,3.751,6.1.242.242,3.455,3.242,3.923,2.6A22.879,22.879,0,0,1,54.294,31.223ZM52.7,55.748c2.064-.772,2.556-1.86,2.509-3.11-.032-.048-.056-.1-.089-.153l-.08-.064.04-.024a4.167,4.167,0,0,1-.354-1.024,1.078,1.078,0,0,1-.435.04c-5.658-.536-7.258,6.321-8.172,10.633-.534,2.522-2.158,8.227-.024,10.5,2.114-3.892,1.151-8.575,2.878-12.717a6.934,6.934,0,0,1,1.873-3.069A7.814,7.814,0,0,1,52.7,55.748Zm3.542,51.029c-.693-.282-1.338-.557-1.9-.783-2.949-1.171-5.866-2.253-8.75-3.424a30.537,30.537,0,0,0,1.278,4.724,16.7,16.7,0,0,0,1.3,3.669A21.854,21.854,0,0,1,56.239,106.777ZM44.559,75.239c-1.274-.05-1.163,2.28-1,3.7a7.944,7.944,0,0,1,1.055.146A19.71,19.71,0,0,1,44.559,75.239ZM43.4,101.666c-1.756-.743-3.5-1.542-5.237-2.43a18.437,18.437,0,0,1-5.613,4.445C36.334,103.313,40.186,103.082,43.4,101.666Z"/><path d="M106.205,58.4c.185.048.023,1.483-.382,3.78-.243,1.144-.606,2.5-1.01,4.005-.469,1.474-.978,3.1-1.616,4.77a47.78,47.78,0,0,1-1.978,4.657c-.734,1.4-1.444,2.562-2,3.569-1.138,2-1.59,3.344-1.8,3.3-.161-.024-.015-1.539.938-3.715.452-1.087,1.1-2.336,1.735-3.69.654-1.37,1.179-2.941,1.833-4.593.63-1.651,1.171-3.239,1.7-4.673.453-1.451.905-2.74,1.268-3.844C105.535,59.719,106.019,58.357,106.205,58.4Z"/><path d="M90.318,59.265a24.378,24.378,0,0,1-.012,5.094,37.552,37.552,0,0,1-.744,4.029c-.542,2.248-.905,3.626-1.1,3.6-.177-.016-.144-1.483.156-3.772.122-1.16.332-2.45.438-4a28.94,28.94,0,0,0-.093-4.828c-.344-3.458-.89-6.6-1.13-8.915-.264-2.322-.231-3.748-.062-3.78.2-.024.507,1.394,1.013,3.627A79.614,79.614,0,0,1,90.318,59.265Z"/><path d="M60.206,82.536a1.723,1.723,0,0,1-.088-1.241,3.339,3.339,0,0,1,.428-.9c.145-.217.29-.427.427-.636a6.576,6.576,0,0,0,.315-.628,4.371,4.371,0,0,0,.25-.645,3.675,3.675,0,0,0,.2-.645c.251-.854.389-1.676.526-2.377.267-1.41.574-2.256.759-2.232s.217.919.2,2.346a15.4,15.4,0,0,1-.26,2.554,7.065,7.065,0,0,1-.186.75,5.605,5.605,0,0,1-.266.765,5.7,5.7,0,0,1-.363.782c-.057.113-.162.258-.242.387l-.218.314c-.8,1.3.37,1,1.216.815.1-.024.2-.041.3-.065.129-.024.258-.048.379-.072a1.558,1.558,0,0,1,.492.073c.193.081.387.145.548.218.29.129.548.355.789.355h.065c.387,0,.814.033,1.322.009.25,0,.516.025.781.025.258-.024.516-.04.79-.048a2.4,2.4,0,0,0,.363-.072,2.585,2.585,0,0,0,.29-.089,2.336,2.336,0,0,0,.508-.3.976.976,0,0,0,.4-.709c-.008-.54-.4-.992-.257-1.137.056-.072.2-.056.443.049a1.566,1.566,0,0,1,.749.871,1.673,1.673,0,0,1,.048.919,2.284,2.284,0,0,1-.493.894,2.947,2.947,0,0,1-.838.62,3.3,3.3,0,0,1-.524.2,2.712,2.712,0,0,1-.508.1c-.331.016-.661.032-.976.032-.306-.016-.58-.057-.854-.089a8.615,8.615,0,0,1-1.434-.3,3.549,3.549,0,0,1-.862-.379c-.041-.008-.065-.016-.105-.024-.161-.041-.339-.081-.516-.122l-.064-.016c-.1.04-.129.048-.25.089-.194.064-.395.128-.6.193a4.4,4.4,0,0,1-.725.209,1.723,1.723,0,0,1-.468.048,1.59,1.59,0,0,1-.556-.073,1.55,1.55,0,0,1-.636-.4.819.819,0,0,1-.129-.169l-.057-.073-.032-.04-.008-.024C60.19,82.52,60.2,82.528,60.206,82.536Z"/><path d="M42.748,37.2c.363.04.182,5.15-.548,11.436a55.375,55.375,0,0,1-1.585,7.971c-.582,2-1.026,3.207-1.212,3.158s-.063-1.346.269-3.369c.412-2.006.7-4.835,1.182-7.93C41.576,42.223,42.37,37.154,42.748,37.2Z"/><path d="M27.879,80.667c1.619,1.428,2.166,2.7,2.037,2.766-.185.129-.975-.871-2.634-2.009a35.453,35.453,0,0,1-2.989-2.162,19.318,19.318,0,0,1-3.044-3.436,21.137,21.137,0,0,1-3.444-7.506c-.129-.516-.169-1.007-.233-1.419-.024-.435-.048-.806-.039-1.1.048-.588.113-.91.21-.918s.2.314.322.878c.072.274.16.613.257,1,.129.379.233.822.41,1.3a28.384,28.384,0,0,0,3.622,6.982,24.815,24.815,0,0,0,2.786,3.291C26.075,79.247,27.09,79.941,27.879,80.667Z"/></g><text x="0" y="143" fill="#000000" font-size="5px" font-weight="bold" font-family="'Helvetica Neue', Helvetica, Arial-Unicode, Arial, Sans-serif">Created by Hey Rabbit</text><text x="0" y="148" fill="#000000" font-size="5px" font-weight="bold" font-family="'Helvetica Neue', Helvetica, Arial-Unicode, Arial, Sans-serif">from the Noun Project</text></svg>