<svg xmlns="http://www.w3.org/2000/svg" viewBox="0 0 128 160" x="0px" y="0px"><g><path d="M35.449,53.894c0-.381,10.688-2.013,11.84-2.288-.325-1.018-.071-1.71-.693-2.664a8.252,8.252,0,0,1-1.08-2.034c-.255-.756-.417-1.533-.657-2.247a6.708,6.708,0,0,0-.4-.975c-.071-.155-.2-.324-.29-.487l-.3-.487a13.11,13.11,0,0,1-1.039-2.021c-.042-.113-.078-.219-.12-.325-.48-.5-1.123-1.116-1.865-1.759a23.127,23.127,0,0,0-2.239-1.7c-.29-.2-.53-.353-.7-.466-.2-.106-.3-.212-.282-.29s.148-.134.367-.163a2.943,2.943,0,0,1,.975.149A8.115,8.115,0,0,1,41.623,37.7c.085.078.163.155.247.233-.084-.261-.169-.516-.254-.756-.657-1.928-1.384-3.044-1.222-3.15.071-.043.311.183.692.635a5.954,5.954,0,0,1,.622.905,11.482,11.482,0,0,1,.685,1.292c.459.968.89,2.162,1.448,3.391a12.6,12.6,0,0,0,1.011,1.823c.1.162.2.325.31.487s.212.311.311.509A7.755,7.755,0,0,1,46,44.287c.268.812.417,1.575.636,2.253.007.029.021.057.028.085-.049-.72-.078-1.455-.106-2.2-.028-.833-.085-1.632-.177-2.395l-.014-.141a.154.154,0,0,1-.007-.056l-.014-.057-.056-.29c-.043-.19-.078-.381-.12-.565-.071-.374-.149-.741-.219-1.1-.347-1.4-.672-2.628-1-3.694-.607-2.12-.953-3.455-.791-3.511s.77,1.172,1.59,3.242a35.265,35.265,0,0,1,1.271,3.73c.085.36.17.721.262,1.095.042.184.084.375.127.565l.07.29.015.071c.021.091.014.07.021.106l.014.155a24.075,24.075,0,0,1,.219,2.508,31.185,31.185,0,0,0,.346,4.627c.042.184.078.36.12.53l.057.261.056.2c.106.318.226.643.318.982a2.864,2.864,0,0,1,.113,1.116c1.095.346,2.218.615,3.356.862a4.7,4.7,0,0,0,.388-1.844c.043-.671.036-1.307.057-1.837.014-1.066.148-1.766.318-1.766s.317.643.522,1.7a13.191,13.191,0,0,1,.2,1.914,5.539,5.539,0,0,1-.3,2.077l.042.021c1.455.311,2.9.629,4.288,1.074,2.027-1.589,1.6-4.662.65-6.753-.014-.036-.021-.071-.035-.106a1,1,0,0,1-.234-.332c-1.469-3.412-4.033-7.637-3.08-11.515a8.56,8.56,0,0,1,5.821-6.436,15.012,15.012,0,0,1,4.352-.395c-.537-1.71-3.313-2.48-5.009-3.222a11.818,11.818,0,0,1-3.256,4.105,6.9,6.9,0,0,1-1.886,1.017c.042,2.854-1.4,5.856-4.027,5.122l.169.127c.234.169.474.346.714.522a5.143,5.143,0,0,1,2.133,3.038,7.9,7.9,0,0,1,.029,2.939c-.262,1.582-.537,2.515-.693,2.515s-.19-1.025-.148-2.586a8.619,8.619,0,0,0-.254-2.585A4.286,4.286,0,0,0,51.118,37.4c-.241-.183-.488-.36-.721-.537l-.353-.268-.339-.318c-.212-.191-.4-.388-.572-.579a6.828,6.828,0,0,1-.77-.459,9.916,9.916,0,0,1-1.689-1.562c-.593-.685-1.052-1.4-1.639-2.14s-1.137-1.484-1.6-2.19c-.219-.367-.431-.713-.608-1.053-.162-.353-.311-.678-.431-.989-.092-.325-.176-.621-.233-.876a3.38,3.38,0,0,1-.056-.649c0-.361.035-.566.113-.58s.2.156.339.481c.084.162.134.381.254.593s.233.438.36.692c.156.255.325.53.509.834.2.282.424.593.657.918.5.643,1.06,1.35,1.646,2.091.3.389.586.792.848,1.18-.106-.24-.191-.459-.262-.664-.395-.749-.742-1.512-1.052-2.2a15.039,15.039,0,0,1-1.562-6.33C41.44,23.892,38.946,25,36.4,26.054c-4.62,1.929-5.984,5.129-6.146,9.572a1.106,1.106,0,0,1,.212.417c.756,2.981,2.218,5.5,2.783,8.59C33.824,47.763,34.714,50.8,35.449,53.894Zm80.8,54.593c1.929,2.317-.685,5.178-2.557,6.464a1.14,1.14,0,0,1-.466.177c-.021,0-.036.014-.057.014a101.766,101.766,0,0,1-11.691,2.324c-4.027.417-8.039.049-12.073.007a1.491,1.491,0,0,1-.268-.028c-1.519,1.405-3.745,1.646-6.153,1.356-1.548-.184-3.116-.459-4.677-.791a1.069,1.069,0,0,1-.254.395c-1.109,1.109-2.2,2.24-3.384,3.264a8.96,8.96,0,0,1-3.617,2.3,1,1,0,0,1-.933-.24c-3.828-1.1-3.348-4.691-1.773-7.517-4.888,2.876-14.107,1.138-17-3.638a1.093,1.093,0,0,1-.481-.395c-4.38-6.612-3.108-14.475-2.649-21.956a32.4,32.4,0,0,1-4.309-1.13,1.059,1.059,0,0,1-.728-1.124c-.466-.014-.932-.035-1.391-.07-.092,4.238-.1,8.936-1.886,12.814-1.208,2.614-1.7,6.379-4.585,7.708-6.923,3.178-16.5-2.805-21.2-7.418a1.236,1.236,0,0,1-.219-.311,1.385,1.385,0,0,1-.12-.162.939.939,0,0,1-.77-.156,4.848,4.848,0,0,1-1.943-1.752,5.436,5.436,0,0,1-.325-2.748c.219-1.949.714-3.857,2.331-5.121,1.131-.883,2.657-1.738,4.126-1.229,1.5.515,1.681,2.091,1.5,3.468,1,.247,1.978.572,3,.735-.021-4.09-1.342-8.025-1.943-12.059a51.977,51.977,0,0,1-.212-8.625,1.1,1.1,0,0,1-.395-.5c-2.593-6.337,2.2-12.08,4.7-17.59.015-.028.029-.049.043-.078a8.788,8.788,0,0,1,1.787-5.623,1.119,1.119,0,0,1,.007-.4c.77-3.927,1.434-7.876,2.451-11.747-.007-.057-.014-.106-.021-.163-.042-4.019.445-7.841,3.561-10.674,1.688-1.533,4.125-2.218,6.2-3.024s4.076-1.822,6.111-2.748c-1.011-1.978-2.063-4.605-.325-6.167-1.081-12.171,17.823-14.4,19.5-2.267.48,3.475-1.024,7.389-1.957,10.681-.084.29-.176.579-.275.869,2.465,1.264,6.174,2.176,6.386,5.355,3.857.572,7.545,2.345,6.958,6.054a1.184,1.184,0,0,1-.1.3,19.8,19.8,0,0,1,.926,5.864c0,.042-.007.077-.007.113a12.653,12.653,0,0,1,.529,7.1c5.2,1.717,9.707,5.3,15.2,6.076a.681.681,0,0,1,.169-.036c3.158-.346,7.891-.141,7.58,4,.014.021.036.035.05.056,2.451,3.25-.325,6.054-3.61,7.015-4.387,1.293-6.464-1.4-9.671-3.8-.092-.021-.184-.035-.269-.063,1.237,2.056,1.583,4.592,2.176,6.9.622,2.409,1.265,4.832,1.646,7.29.346,2.246.332,4.493,1.342,6.584a1.911,1.911,0,0,1,.085.247,1.088,1.088,0,0,1-.1,1.159,30.374,30.374,0,0,1,3.405,8.138h.022c4.605-.558,9.3-1.569,13.937-1.71,2.24-.063,5.207-.169,6.57,2.049,3.412,5.573.954,10.843-3.694,14.263C112.577,106.679,114.915,106.891,116.25,108.487Zm-1.971,3a.986.986,0,0,0,.12-.586c.007-.014-.007-.028-.021-.035a1.445,1.445,0,0,1-.367.2,4.111,4.111,0,0,1-.862.247,8.654,8.654,0,0,1-2.861-.085c-.65-.12-1.13-.2-1.137-.374s.388-.368,1.144-.467c.721-.113,1.71-.084,2.642-.247a4.108,4.108,0,0,0,.643-.162,1.1,1.1,0,0,0,.247-.106,2.212,2.212,0,0,0,.2-.142,1.655,1.655,0,0,0,.233-.219,2.163,2.163,0,0,0-.572-.275,24.506,24.506,0,0,0-5.037-.678,1.322,1.322,0,0,1-.346-.092c-.028,0-.057.007-.092.007a3.386,3.386,0,0,0-2.381.381.778.778,0,0,1-.409.149c-2.056.883-4.288,1.391-6.224,2.515a1.174,1.174,0,0,1-.134.31c-1.554,2.416-3.836,2.579-6.478,2.381a1.153,1.153,0,0,1-.466-.134,4.592,4.592,0,0,1-1.484.883.568.568,0,0,1-.035.148c-.035.1-.071.184-.106.276a74.367,74.367,0,0,0,9.8.085,94.291,94.291,0,0,0,11.3-2.141,7.117,7.117,0,0,1-.834-.155c-.706-.177-1.13-.325-1.137-.5s.473-.311,1.208-.339a12.865,12.865,0,0,0,2.607-.233,1.848,1.848,0,0,0,.529-.254l.05-.043.028-.014.007-.007.043-.042C114.159,111.659,114.223,111.574,114.279,111.489Zm-.7-11.945c.77-3.017-.7-7.227-4.239-7.206-4.994.028-10.059,1.017-15.032,1.653.247.678.508,1.357.812,2.014.078.12.148.233.233.36a2,2,0,0,1,.332-.424,3.425,3.425,0,0,1,1.455-.763c.841-.212,1.321-.2,1.357-.1s-.41.339-1.116.707a3.234,3.234,0,0,0-1.039.77,1.075,1.075,0,0,0-.24.784c.812-.241,1.709-.587,2.727-.9a19.809,19.809,0,0,1,5.814-.693c1.49.043,2.387.233,2.387.389,0,.176-.925.282-2.366.452-.445.049-.947.106-1.484.184,1.625.063,3.059.247,4.189.388,1.724.24,2.784.4,2.784.565s-1.088.3-2.84.276c-1.745,0-4.133-.177-6.711-.021a14.09,14.09,0,0,0-3.928.762c.064.092.127.191.191.283a13.711,13.711,0,0,1,2.84,9.883c1.568-.657,3.228-1.109,4.789-1.8a1.655,1.655,0,0,1,.255-.078c.007,0,.007-.007.014-.007a3.993,3.993,0,0,1,2.133-.693,1.153,1.153,0,0,1,.247-.19C109.483,104.884,112.881,102.292,113.58,99.544ZM97.219,110.062c2.049-4.648-1.83-8.8-3.85-12.616-2.232-4.2-2.126-8.88-5.143-12.815a34.724,34.724,0,0,1-3.32,1.236,7.565,7.565,0,0,1-1.187,4.225c.028.056.057.106.085.169a15.917,15.917,0,0,0,3.412,5.779,11.15,11.15,0,0,1,2.769,3.85.924.924,0,0,1,.028.614,13.129,13.129,0,0,1-.9,3.179c2.091,2.466,4.309,5.9,3.992,8.449.1.007.2.014.289.014.014-.106.036-.19.05-.275l.063-.332c.036-.184.043-.445.071-.657a10.242,10.242,0,0,0,.092-1.258,6.007,6.007,0,0,0,0-1.066c-.029-.325-.021-.622-.057-.89s-.085-.509-.106-.707c-.042-.388-.028-.614.05-.643s.219.163.395.509c.092.177.191.4.3.65a8.144,8.144,0,0,1,.247.954,5.1,5.1,0,0,1,.156,1.179,8.554,8.554,0,0,1,.014,1.343c-.014.247-.007.452-.043.741-.007.085-.021.177-.035.262.085-.014.184-.029.276-.05l.183-.042.036-.007.091-.036a1.7,1.7,0,0,0,.347-.12.8.8,0,0,1,.155-.106,1.19,1.19,0,0,1,.163-.169c.049-.064.077-.149.12-.219a2.674,2.674,0,0,0,.155-1.138,11.161,11.161,0,0,0-.424-2.253c-.374-1.3-.65-2.126-.494-2.2s.685.622,1.285,1.914a8.481,8.481,0,0,1,.728,2.452A.341.341,0,0,1,97.219,110.062Zm.042-48.545a2.051,2.051,0,0,0-.473-1.964.892.892,0,0,1-.191-.685,2.459,2.459,0,0,0-1.893-.516A15.938,15.938,0,0,1,97.261,61.517Zm-1.709,1.554a4.439,4.439,0,0,0,1.052-.65c-.847-1.328-2.945-4.783-4.238-3.546C93.779,59.821,94.831,61.835,95.552,63.071Zm-1.773-5.355a2.6,2.6,0,0,1,2.684-.12c-.48-1.688-4.224-1.187-5.475-1.045a.976.976,0,0,1-.416-.043,1.105,1.105,0,0,1-.3,0c-5.546-.777-10.039-4.38-15.273-6.089a.288.288,0,0,1-.043-.021,4.694,4.694,0,0,1-2.38,2.387,7.888,7.888,0,0,1,.127,3.038l-.021.085a14.442,14.442,0,0,0,6.2,2.776,53.3,53.3,0,0,1,7.1.989c.007,0,.007.007.014.007a.958.958,0,0,1,.417.191c.819.607,1.639,1.49,2.515,2.26-.5-1.462-.622-3.108.791-3.242a1.063,1.063,0,0,1,.332.021.49.49,0,0,1,.367-.537,2.4,2.4,0,0,1,.954.05A1.74,1.74,0,0,1,93.779,57.716Zm-.361,5.934a8.739,8.739,0,0,0,1.11-.226,22.458,22.458,0,0,0-1.456-2.26,4.811,4.811,0,0,0-1.872-1.71c.036.162.085.318.135.48.247.325.452.671.614.933A25.454,25.454,0,0,1,93.418,63.65Zm-2.168-.078a4.34,4.34,0,0,0,.734.121,17.405,17.405,0,0,1-1.6-3.229,3.375,3.375,0,0,0-.261-.282c-.749-.7-.4.861-.3,1.222a5.726,5.726,0,0,0,.848,1.942A3.888,3.888,0,0,0,91.25,63.572ZM89.844,113c3.532-1.222-2-7.905-3.1-8.929a25.633,25.633,0,0,0-8.774-5.334c-6.471-2.409-12.935-5-19.49-7.17a1.37,1.37,0,0,1-.34-.184c-2.38-.2-4.747-.374-7.1-.685A12.553,12.553,0,0,0,52.4,96.273c1.42,2.282,4.168,1.441,6.379,2.253.064.029.12.057.177.085.544-.014,1.158-.007,1.822.028.3.036.594.071.876.114.558-.078,1.117-.142,1.689-.191a24.106,24.106,0,0,1,11.43,1.37,21.554,21.554,0,0,1,6.1,4.133,29.066,29.066,0,0,1,3.208,3.567c.946,1.208,1.5,2.685,2.627,3.744-.176-.692-.3-1.307-.395-1.829-.113-.572-.2-1.039-.262-1.364s-.113-.529-.035-.565.24.057.452.36a6.323,6.323,0,0,1,.657,1.336c.219.572.438,1.257.7,1.985a10.907,10.907,0,0,0,.452,1.081c.042.091.092.176.141.261.092.056.191.113.29.162a6.922,6.922,0,0,0,.042-1.137,13.034,13.034,0,0,0-.2-1.858c-.176-1.067-.374-1.7-.233-1.78s.615.48,1.017,1.561a9.028,9.028,0,0,1,.495,1.985,6.686,6.686,0,0,1,.042,1.258ZM87.9,100.434c0-.021.007-.036.007-.05-.7-1.8-2.529-3.073-3.7-4.556-.89-1.123-1.35-2.352-2.819-1.547-.367.2-2.9,1.879-3.264,1.271-.169-.282.926-1.236,2.452-2.147a3.617,3.617,0,0,1-.262-.452c-1.716.9-3.723,1.568-5.658,2.345.085.028.162.057.247.092,1.413.494,2.84,1,4.239,1.547A9.935,9.935,0,0,1,81.8,95.63c.9-.247,1.462-.219,1.511-.085.057.17-.473.431-1.243.862-.452.269-1.038.629-1.66,1.053.8.346,1.6.734,2.381,1.123a19.864,19.864,0,0,1,3.85,2.564c.254.212.551.488.876.806A4.625,4.625,0,0,0,87.9,100.434Zm.071-17.965c-1.123-3.037-1.088-6.428-1.837-9.579-.777-3.292-1.194-8.675-3.666-11.175a1.1,1.1,0,0,1-.283-.523,25.749,25.749,0,0,1-5.362-.784,17.189,17.189,0,0,1-3.786-1.766c.042.077.085.148.12.219a7.318,7.318,0,0,1,.5,1.518,6.77,6.77,0,0,1,.021,2.664,6.868,6.868,0,0,1-.558,1.66c-.184.36-.325.551-.4.53s-.092-.262-.042-.665c.07-.4.113-.96.162-1.624a7.19,7.19,0,0,0-1.5-4.79,5.227,5.227,0,0,1-.523.438c1.448,2.692,1.01,5.058-1.893,6.379-3.08,1.4-5.963.184-8.28-1.893h-.028a1.753,1.753,0,0,1-.191.014,4.548,4.548,0,0,1,.389.247l.275.226c.156.149.191.212.3.325a3.472,3.472,0,0,1,.417.594c.226.381.4.741.551,1.052a6.868,6.868,0,0,0,.8,1.321c.283.262.48.417.431.5-.035.063-.268.063-.657-.092a3.944,3.944,0,0,1-1.307-1.293,6.129,6.129,0,0,0-1.476-1.752,3.993,3.993,0,0,0-1.159-.445c-.459-.106-.946-.155-1.512-.233-.536-.078-1.066-.148-1.575-.226s-.975-.1-1.441-.155c-.911-.12-1.759-.156-2.465-.248q-.668-.063-1.166-.127c-1.279,2.021-2.918,4.239-3.377,6.584A46.347,46.347,0,0,0,47.02,76.5a88.03,88.03,0,0,1-1.5,10.872c4.281,1.3,8.7,1.554,13.153,1.936a1.067,1.067,0,0,1,.693.325l.176.063c.007-.1.021-.191.021-.3.008-.36.015-.734.022-1.116.014-.77.551-1.384.635-2.133s.064-1.484.219-2.268a5.5,5.5,0,0,0,.078-.671,4.639,4.639,0,0,0,.035-.706c-.007-.241.015-.488-.014-.714s-.035-.473-.056-.706c-.036-.255-.078-.5-.113-.749-.028-.2-.1-.431-.141-.643-.078-.219-.142-.431-.219-.65a24.838,24.838,0,0,1-.982-2.684c-.071-.24.049-.848-.036-.982,0-.007-.049-.092-.049-.092,0-.127-.021-.247-.014-.374a1.677,1.677,0,0,1,.113-.453,1.411,1.411,0,0,1,.169-.275c.382-.36.368-.3.5-.756a1.936,1.936,0,0,0,.021-.494,4.878,4.878,0,0,0-.092-.975,15.877,15.877,0,0,0-.89-2.953c-.254-.685-.431-1.081-.346-1.123.063-.036.36.261.763.911a11.134,11.134,0,0,1,1.3,2.988,5.916,5.916,0,0,1,.183,1.109,2.263,2.263,0,0,1,.007.622l-.035.325-.021.169-.007.085v.021a.725.725,0,0,0-.028.085c-.007,0-.015.028-.015.028l-.056.12c0,.015-.028.043-.071.1-.388.509-.614.311-.551.9h.029l.021.021.035.162a3.466,3.466,0,0,0,.134.6c.036.12.085.254.135.381a4.537,4.537,0,0,1,.275-.53,7.468,7.468,0,0,1,1.279-1.42c.388-.346.7-.593.932-.763s.4-.254.459-.2.029.226-.092.494a7.32,7.32,0,0,1-.678,1.039,12.481,12.481,0,0,0-.946,1.405c-.05.127-.135.262-.17.389a2.206,2.206,0,0,0-.071.374l-.007.142.015.063a1.274,1.274,0,0,0,.028.177,3.3,3.3,0,0,0,.148.473c.085.233.184.487.269.77a9.592,9.592,0,0,1,.452,3.567,3.237,3.237,0,0,1-.3,1.371c-.007.12-.014.247-.028.36a7.23,7.23,0,0,1-.558,1.971c-.05.141-.113.276-.163.424a9.638,9.638,0,0,0-.282,2.536,1.977,1.977,0,0,0,2.077,1.724l.812-.078c.586-.056,1.017-.763,1.49-1.561.467-.714.862-1.434,1.223-2.126a25.7,25.7,0,0,0,1.54-3.8c.671-2.2.713-3.652.89-3.652.07.007.12.367.155,1.017a12.965,12.965,0,0,1-.311,2.819,20.787,20.787,0,0,1-1.349,4.062,23.2,23.2,0,0,1-1.208,2.274,9.276,9.276,0,0,1-.756,1.194,2.736,2.736,0,0,1-.459.452,14.263,14.263,0,0,0,1.851.841c.12.049.247.106.367.162l2.162.827a1.743,1.743,0,0,0,.247-.353,8.529,8.529,0,0,0,.53-1.173c.162-.41.3-.812.48-1.25.17-.4.332-.777.488-1.152s.318-.742.466-1.095c.127-.36.254-.7.374-1.031a17.422,17.422,0,0,0,.636-1.858c.163-.579.339-1.095.459-1.554.1-.459.191-.862.269-1.18.169-.643.3-1,.367-1s.085.374.05,1.053c-.022.339-.05.755-.092,1.243-.071.48-.191,1.017-.311,1.625a14.5,14.5,0,0,1-.509,1.964c-.106.353-.219.72-.332,1.094-.134.361-.275.735-.417,1.117s-.3.784-.452,1.186c-.141.361-.268.792-.424,1.223a9.427,9.427,0,0,1-.579,1.349c-.042.07-.085.141-.134.219.459.176.925.346,1.385.516,4.1-1.922,9.925-2.487,10.872-7.22-.008-.212-.008-.417-.015-.629l-.007-.473c-.007-.156-.042-.311-.063-.466l-.127-.891c-.078-.289-.149-.579-.212-.868-.135-.573-.325-1.166-.481-1.731a13.446,13.446,0,0,1-.431-3.532c-.021-2.183-.1-4.133-.2-5.772-.142-1.625-.248-2.939-.4-3.864-.12-.918-.141-1.434-.064-1.448s.262.466.516,1.356a26.705,26.705,0,0,1,.784,3.871c.205,1.653.375,3.631.459,5.821a12.5,12.5,0,0,0,.453,3.243l.275.932c.064-.551.106-1.088.127-1.6.1-1.922.1-3.695.163-5.15.106-2.925.247-4.7.4-4.7s.3,1.78.4,4.7c.035,1.469.127,3.193.092,5.185-.007.925-.092,1.886-.191,2.868A38.644,38.644,0,0,0,87.972,82.469Zm.374,32.553c-2.444-1.307-4.528-2.939-5.34-5.715H83c-5.157-5.751-10.646-9.4-18.664-8.711-3.518.3-7.234.827-9.148,4.2a20.569,20.569,0,0,0-2.233,6.309c2.176,4.027,10.59,5.778,14.524,3.172a12.01,12.01,0,0,1-5.46-1.879,2.613,2.613,0,0,1-1.095-1.865c0-.495.127-.728.191-.735.1-.014.134.275.268.692a2.5,2.5,0,0,0,1.13,1.222,14.152,14.152,0,0,0,5.023,1.371c-.247-.233-.473-.473-.685-.707a13.5,13.5,0,0,1-1.456-2.126c-.7-1.264-.989-2.084-.861-2.162s.664.615,1.518,1.724a13.182,13.182,0,0,0,3.886,3.645l.318.177c3.341,1.031,6.739,1.745,10.151,2.522C82.9,116.724,86.926,117.861,88.346,115.022Zm-14.058,4.111c.573-.544,1.138-1.095,1.689-1.653-1.7-.424-3.391-.9-5.037-1.406-.021.028-.028.057-.05.085-1.109,1.547-2.719,4.274-.7,5.326a2.055,2.055,0,0,1-.021-.409,4.137,4.137,0,0,1,.466-1.689c.424-.862.883-1.264,1.017-1.172s-.042.614-.226,1.455a5.232,5.232,0,0,0-.162,1.392,1,1,0,0,0,.141.508,8.451,8.451,0,0,0,1.54-1.173c.156-.289.3-.565.424-.812.4-.791.65-1.293.812-1.257C74.3,118.349,74.338,118.653,74.288,119.133Zm-2.825-68.2c1.978-.48,2.486-3.708,2.253-6.294a2.24,2.24,0,0,1-.734.608,4.527,4.527,0,0,1-.862.318c-.135.035-.269.063-.4.084l-.226.043-.177.014a1.526,1.526,0,0,1-.508-.043,1.038,1.038,0,0,1-.424-.254,1.263,1.263,0,0,1-.346-.579,2.113,2.113,0,0,1-.1-.417c-.028-.226-.014-.367.063-.4.283-.141.862.883,1.357.827.24-.021,1.907-.579,1.935-.855.015-.148-.727-.812-.854-.975-.29-.367-.622-.727-.848-1.081a2.014,2.014,0,0,1-.382-1.01c.008-.261.1-.367.177-.381s.155.127.283.282a4.99,4.99,0,0,0,.558.558c.254.219.579.467.939.813-.042-.1-.092-.2-.141-.3a1,1,0,0,1-.057-.89,19.536,19.536,0,0,0-1-5.658c-1.879.487-3.857-.128-5.8.063-2.127.205-1.307,1.738-1.54,3.221-.219,1.42-1.385,2.374-1.738,3.752a.519.519,0,0,1-.883.212.762.762,0,0,1-.092-.064c-.5-.53-1.406-1.462-2.247-1.166a1.7,1.7,0,0,0-.918,1.364,3.882,3.882,0,0,0-.049.692c.339.791.685,1.561,1.01,2.3a1.049,1.049,0,0,0,.1.092,2.284,2.284,0,0,0,.777.311,1.156,1.156,0,0,0,1.081-.311,2.185,2.185,0,0,1,.183-.177c.057-.056.106-.141.163-.191.1-.106.2-.155.275-.134s.134.113.17.255a.979.979,0,0,1,.028.268,2.618,2.618,0,0,1-.085.4,1.649,1.649,0,0,1-.692.84.153.153,0,0,0-.035.021,8.83,8.83,0,0,0,4.867,4.069c1.639.5,3.122.085,4.7-.148A.977.977,0,0,1,71.463,50.934ZM69.35,57.045c1.71-1.144,1.35-2.762,1.018-4.542a1.238,1.238,0,0,1-.014-.318,7.566,7.566,0,0,1-4.854-.3A10.542,10.542,0,0,1,60.633,47.4c-.049-.014-.106-.028-.162-.049.967,2.635,1.052,5.623-.7,7.763a13.393,13.393,0,0,1,1.95,1.1,3.963,3.963,0,0,1,.537-.3c2.317-1.032,4.662.452,6.817,1.4A1.133,1.133,0,0,1,69.35,57.045Zm-4.867-22.26c2.416-1.222,5.3.438,7.743-.628-.135-1.915-4.43-3.052-5.722-3.25-2.07-.318-4.55-.332-6.394.827-3.977,2.5-3.461,6.294-2.112,9.932a2.271,2.271,0,0,1,1.611-1.37,3.1,3.1,0,0,1,2.557,1,8.878,8.878,0,0,1,.685-1.222,4.725,4.725,0,0,0,.7-3.038C63.551,36.2,63.628,35.216,64.483,34.785ZM66.991,63.36c2.239-.572,3.137-1.589,1.978-3.715-.021-.043-.028-.085-.049-.12-.2-.092-.417-.184-.629-.276a1.109,1.109,0,0,1,.049.163c.318,1.511-.784,3.15-2.183,4.062A3.912,3.912,0,0,0,66.991,63.36Zm-.671-1.426c.473-.559,1.229-1.611.961-2.4a4.916,4.916,0,0,0-.573-.82,8.093,8.093,0,0,1-.028.827,1.283,1.283,0,0,1-.791,1.059c-.042.014-.085.014-.127.029a1.885,1.885,0,0,1-1.2.367c-.918-.078-1.844-.756-2.769-.643a3.421,3.421,0,0,0,.113.685,1.2,1.2,0,0,1,.028.346,8.633,8.633,0,0,0,2.444,1.731A3.3,3.3,0,0,0,66.32,61.934ZM65.3,59.616c.7-.819-1.222-1.6-1.809-1.843a2.037,2.037,0,0,0-1.589,1.511,4.01,4.01,0,0,1,1.42.29C63.932,59.8,64.78,60.231,65.3,59.616ZM61.177,14.045a7.267,7.267,0,0,0-.77-4.027C56.176,3.1,45.318,5.723,45.756,14a18.732,18.732,0,0,1,1.165-1.808,1,1,0,0,0,.1-.17.9.9,0,0,1-.424-.409.963.963,0,0,1-.084-.573,2.32,2.32,0,0,1,.593-1.087,6.671,6.671,0,0,1,1.272-1.117c.756-.536,1.391-.7,1.434-.536.035.134-.332.459-.933,1.123a11.106,11.106,0,0,0-.961,1.165,3.086,3.086,0,0,0-.24.424h.12l.806-.035-.212.735a5.64,5.64,0,0,1-.184.579,4.681,4.681,0,0,1-.268.523,22.077,22.077,0,0,0-1.286,1.857,3.508,3.508,0,0,0-.247,1.618c0,.043.007.078.007.12a11.685,11.685,0,0,1,.628,3.179c1.046-.918,2.261-1.759,2.5-3.108.255-1.427.643-3.115,2.049-3.857.742.939.494,2.239,1.328,3.115a3.812,3.812,0,0,0,2.5,1.1,5.506,5.506,0,0,0,5.093-2.585A.5.5,0,0,1,61.177,14.045ZM58.111,24.74a31.3,31.3,0,0,0,2.96-9.4c-2.543,3.5-8.611,3.532-9.946-.756-.714.989-.537,2.719-1.258,3.744-.664.939-1.716,1.448-2.458,2.3a2.125,2.125,0,0,0-.134,2.274,14.04,14.04,0,0,0,1.066,2.268,8.084,8.084,0,0,0,3.391,3.3A3.755,3.755,0,0,0,56.2,27.432a1.556,1.556,0,0,1-.685-.226,2.921,2.921,0,0,1-.961-1.081c-.353-.678-.41-1.145-.269-1.222s.474.247.947.713a3.267,3.267,0,0,0,.812.629.348.348,0,0,0,.276.035.683.683,0,0,0,.247-.254,3.715,3.715,0,0,0,.417-1.18A11.51,11.51,0,0,0,57.15,23.7c.064-.657.092-1.109.255-1.152s.431.353.586,1.1a4.8,4.8,0,0,1,.085,1.152C58.09,24.782,58.1,24.761,58.111,24.74Zm1.646,36.275a5.088,5.088,0,0,1,.481-3.242c-3.836-2.381-8.7-2.409-12.886-3.914-.035-.014-.056-.028-.092-.042-2.161.487-4.393.657-6.59.975a12.855,12.855,0,0,0,2.423,3.97c1.85,1.639,4.563,1.631,6.88,1.78A85.382,85.382,0,0,0,59.757,61.015ZM54.537,102.1a9.51,9.51,0,0,1,2.4-1.872c-2.445-.487-4.953-.2-6.372-2.889a11.64,11.64,0,0,1-.643-1.477c-.283,4.373-.29,8.746,1.42,12.73A14.831,14.831,0,0,1,54.537,102.1ZM53.9,30.907c-4.062.5-7.58-4.062-8.887-8.131a16.656,16.656,0,0,0,2.6,8.089c.734,1.321,1.547,2.967,2.981,3.687C53.364,35.951,53.873,32.483,53.9,30.907ZM45.282,69.838a22.218,22.218,0,0,1,3.179-7.24,18.2,18.2,0,0,1-3.108-.467c-3.822-.982-4.888-4-6.9-6.944-1.6.36-3.249.594-4.853.841-1.024-3.5-1.709-7.248-2.395-10.83A30.006,30.006,0,0,0,29.593,40.1c-.664,2.9-1.187,5.821-1.752,8.738a.025.025,0,0,1,.007.015,17.646,17.646,0,0,1,1.639-1.187c.784-.5,1.321-.756,1.427-.629s-.24.608-.9,1.279-1.611,1.518-2.551,2.5a12.842,12.842,0,0,0-.939,1.095c-.707.9-.219,2.077-.311,3.052-.106,1.173-1.137,2.324-1.681,3.327-.841,1.569-1.745,3.095-2.494,4.7a19.858,19.858,0,0,0-1.307,3.836c-.261,1.123-.749,2.119-.431,3.313.855-.2,1.865-1.448,2.543-2.048,2.72-2.388,2.43-6.026,3.935-9.134.657-1.364,1.159-2.155,1.307-2.1.163.064-.078.982-.53,2.409-.381,1.463-.847,2.9-1.13,4.373-.5,2.572-.212,4.931-.382,7.524-.1,1.6-.176,3.214-.226,4.817-.021.594-.48,4.564-.084,4.825a17.156,17.156,0,0,0,3.475,1.7,5.257,5.257,0,0,1-.3-1.032c-.325-1.186-.721-2.43-.982-3.546a13.6,13.6,0,0,1-.4-3.08c.014-1.837.487-2.8.615-2.8.2.014.028,1.137.226,2.741a18.976,18.976,0,0,0,.614,2.861c.318,1.08.714,2.218,1.081,3.553a5.847,5.847,0,0,0,.219.819,1.136,1.136,0,0,0,.424.452c.184.128.5.3.742.453.24.113.48.226.713.339.841.36,1.653.643,2.367.9a30.569,30.569,0,0,0,9.035,1.7.3.3,0,0,1,.078.007c.381-1.992.833-3.984,1.038-5.99A37.96,37.96,0,0,0,43.4,75.631c-.9-2.331-1.9-4.387-2.585-5.9-.707-1.511-1.095-2.479-.947-2.557s.784.735,1.689,2.148a36.462,36.462,0,0,1,2.959,5.891c.128.354.248.7.361,1.053.028-1.243.049-2.48.12-3.716l-.148-.36c-.092-.247-.191-.5-.29-.749-.106-.275-.191-.544-.269-.8q-.222-.816-.466-1.675A44.8,44.8,0,0,0,41.9,63.184c-.608-1.385-1.138-2.275-.975-2.367.12-.07.855.565,1.724,1.985a23.954,23.954,0,0,1,2.324,5.843C45.085,69.047,45.191,69.45,45.282,69.838ZM46,19.816a9.262,9.262,0,0,0-.954-3.913C44.251,16.524,45.353,18.651,46,19.816Zm-7.34,78.131a54.331,54.331,0,0,0,1.01-10.314,52.409,52.409,0,0,1-7.17-1.879c-2.861-.918-5.807-1.617-8.272-3.391a1.065,1.065,0,0,1-.438-.678.984.984,0,0,1-.177-.593c.014-3.9.142-7.785.445-11.67-.8.989-1.589,1.985-2.387,2.974-.014,4.062-.113,8.314.8,12.419a36.431,36.431,0,0,1,1.314,10.052,1.038,1.038,0,0,1-.212.594.764.764,0,0,0,.042.077,7.419,7.419,0,0,0,.445.686,12.855,12.855,0,0,0,2.353,2.013c.7.53,1.045.939.961,1.081s-.615-.029-1.385-.354a7.363,7.363,0,0,1-2.621-1.737,8.953,8.953,0,0,0,.375,1.285,31.186,31.186,0,0,0,1.5,3.116c.41.812.622,1.356.488,1.455s-.587-.276-1.194-.989a11.135,11.135,0,0,1-1.9-3.158,7.537,7.537,0,0,1-.388-1.448,4.377,4.377,0,0,1-.332.53c-.127.176-.247.332-.346.452-.212.24-.361.353-.431.318s-.064-.226.014-.537c.042-.148.1-.332.177-.544a4.426,4.426,0,0,0,.219-.7c.091-.332.183-.721.268-1.145-1.6-.233-3.108-.876-4.712-1.038a8.342,8.342,0,0,0-1.342,4.818,26.707,26.707,0,0,0,9.381,6c2.487.94,7.241,2.43,9.7.671C36.466,105.153,38.254,99.819,38.663,97.947ZM16.637,92.663c.1-.579.162-1.335-.615-1.13A4.235,4.235,0,0,0,13.9,92.9a5.428,5.428,0,0,0-1.06,3.313,3.03,3.03,0,0,0,.127,1.512,2.168,2.168,0,0,0,.749.6,9.345,9.345,0,0,1,1.83-4.96,1.236,1.236,0,0,1,.191-.2A.926.926,0,0,1,16.637,92.663Z"/><path d="M37.152,68.736c2.126,3.511,3.518,6.514,3.242,6.676s-2.155-2.578-4.26-6.047c-2.1-3.426-3.92-6.231-3.631-6.428C32.758,62.76,34.976,65.2,37.152,68.736Z"/></g><text x="0" y="143" fill="#000000" font-size="5px" font-weight="bold" font-family="'Helvetica Neue', Helvetica, Arial-Unicode, Arial, Sans-serif">Created by Hey Rabbit</text><text x="0" y="148" fill="#000000" font-size="5px" font-weight="bold" font-family="'Helvetica Neue', Helvetica, Arial-Unicode, Arial, Sans-serif">from the Noun Project</text></svg>