<svg xmlns="http://www.w3.org/2000/svg" viewBox="0 0 128 160" x="0px" y="0px"><g><path d="M123.937,66.291a5.451,5.451,0,0,1,.062.882l-.062.007c.014,7.2-.444,14.374-.464,21.582a1.057,1.057,0,0,1-1.025,1.025l-.765.082a.968.968,0,0,1-.506-.076c-8.553.144-16.909,1.586-25.51,1.422-6.955-.13-15.044.929-21.74-1.3a.947.947,0,0,1-.437-.28.786.786,0,0,1-.191-.15,6.734,6.734,0,0,1-1.046-1.633,4.152,4.152,0,0,1-1.195.458c-.451,2.562-5.1,1.981-6.976,1.831-3.04-.246-10.419-.492-12.543-3.778-2.938,1.318-7.01.3-10.064-.007-3.416-.342-7.283-.881-10.1-3.02-4.393-3.327-9.265-11.04-6.826-16.684-.041-.034-.088-.068-.129-.109-6.108,1.25-12.059,3.245-18.337,3.4a.918.918,0,0,1-.977-.813c-.007-.014-.021-.021-.028-.034-2.029-4.059-.656-9.886-.136-14.184a.682.682,0,0,1,.041-.177.98.98,0,0,1,.71-1.039c3.56-1.086,7.194-1.257,10.877-1.633,2.507-.259,4.987-.9,7.494-1.168-2.4-.171-4.816-.034-7.2-.383a59.728,59.728,0,0,1-8.9-1.9,1.076,1.076,0,0,1-.458-.287,1.071,1.071,0,0,1-.464-.758c-.41-3.1,2.268-5.616,4-7.871a11.128,11.128,0,0,1,6.948-4.673,1.022,1.022,0,0,1,.724.116c2.986.274,5.6,1.469,8.4,2.453,3.532,1.244,7.194,2.07,10.72,3.355a.072.072,0,0,1,.034.013c2.521-.123,9.168.485,10.125,3.45a7.625,7.625,0,0,1,.874.1c.834-.6,1.818-.847,2.672-1.442.915-.649,1.448-1.653,2.411-2.254a1.1,1.1,0,0,1,.445-.15,1.216,1.216,0,0,1,.245-.041,3.87,3.87,0,0,1,3.546,1.687c.376-.143.745-.294,1.134-.4a1.05,1.05,0,0,1,.526,0,1.137,1.137,0,0,1,.479,0,3.141,3.141,0,0,1,1.332.717,3.207,3.207,0,0,1,.451-.143.083.083,0,0,1,.041-.007,1.062,1.062,0,0,1,1.291.417c-.007-.014-.014-.021-.014-.028a.149.149,0,0,1,.048.035l.062-.021c2.8-.792,5.54.041,6.415,3.088.629,2.193.116,4.243.376,6.45a8.532,8.532,0,0,0,2.78,4.83c1.093-2.808,3.006-5.63,6.2-6.033,2.125-.259,3.846.444,5.9.861,2.138.43,3.614-.67,5.472-1.107a.928.928,0,0,1,.67-.6,8.774,8.774,0,0,0,1.264-.335,5.405,5.405,0,0,1,3.867-2.473.033.033,0,0,1,.027-.014,1.392,1.392,0,0,1,.246-.095,1.417,1.417,0,0,1,.294-.069,1.421,1.421,0,0,0,.164-.013c2.3-2.829,6.552-3.471,10.022-3.232,5.3.362,9.394,3.239,13.842,5.848a2.37,2.37,0,0,1,2.582,2.426c.267,3.1.055,6.3.185,9.421C123.9,63.319,123.931,64.809,123.937,66.291Zm-2.5,21.186c.068-6.36.506-12.721.5-19.095,0-.362,0-1.647-.014-3.341a17.492,17.492,0,0,0-.854-1.6c-.444-.725-.895-1.456-1.332-2.118s-.834-1.333-1.278-1.934c-.847-1.236-1.612-2.35-2.254-3.286-1.257-1.9-1.9-3.163-1.729-3.293.191-.137,1.162.9,2.644,2.617.752.847,1.612,1.892,2.542,3.088.485.587.915,1.27,1.4,1.947.28.4.547.806.813,1.223-.1-4.557-.348-9.708-.963-9.647a.864.864,0,0,1-.649-.164c-.041-.02-.082-.034-.123-.055-3.785-2.22-7.659-5.274-12.195-5.581-3.061-.212-7.5-.151-9.374,2.732a.844.844,0,0,0-.068.089c-.021.192-.048.362-.068.506a.985.985,0,0,0-.021.464,8.174,8.174,0,0,0,.212,1.148,11.015,11.015,0,0,0,.307,1.08c.11.348.239.683.356,1A28.512,28.512,0,0,1,100.34,56.4c.171.772.177,1.209.075,1.243s-.328-.348-.67-1.045c-.348-.67-.881-1.64-1.51-2.9-.15-.314-.321-.642-.464-1.011a10.562,10.562,0,0,1-.437-1.155,9.006,9.006,0,0,1-.328-1.325,1.923,1.923,0,0,1-.034-.636,3.162,3.162,0,0,0-.95.192c-.157.136-.321.273-.478.41l-.192.157-.157.109c-.1.075-.218.157-.294.219a2.714,2.714,0,0,0-.772.847c-.252.444.123,1.469.451,2.377.315.95.629,1.866.923,2.74.553,1.749,1,3.361,1.393,4.673.356,1.339.711,2.385.909,3.136s.267,1.2.164,1.237-.362-.308-.745-.991a24.806,24.806,0,0,1-1.407-3.006c-.54-1.3-1.093-2.835-1.715-4.55q-.481-1.291-1-2.685c-.123-.328-.253-.677-.369-1.039.922,10.276,9.182,18.741,9.305,29.05a.949.949,0,0,0,.1.068l.116.1.02.021a.893.893,0,0,1,.082.041l.287.184c.39.232.786.492,1.182.724.806.444,1.592.882,2.35,1.305.39.212.772.458,1.148.711.335.225.656.423.977.669a19.121,19.121,0,0,1-.464-1.947l-.137-.676c-.034-.171-.082-.472-.123-.7a12.5,12.5,0,0,1-.2-1.442c-.034-.464-.068-.922-.1-1.38-.02-.43-.047-.854-.068-1.271-.055-.437-.109-.867-.157-1.291-.041-.348-.171-.792-.246-1.182a48.185,48.185,0,0,0-2.726-8.321c-1.968-4.619-3.484-7.386-3.259-7.515.164-.089,2.022,2.459,4.3,7.043a42.824,42.824,0,0,1,3.143,8.458c.089.438.219.8.287,1.305.062.424.123.854.191,1.292q.1,1.322.2,2.7a11.17,11.17,0,0,0,.2,1.285c.041.225.061.389.122.669l.151.7a11.644,11.644,0,0,0,.7,2.541l.082.13.041.062.021.034.1.089.089.082.055.027a2.67,2.67,0,0,0,.273.15,3.735,3.735,0,0,0,.369.171c.3.137.615.26.957.4a14.081,14.081,0,0,0,.765-3.785c.123-1.373.294-2.8.355-4.174a10.31,10.31,0,0,0-1.079-4.072c-.246-.6-.492-1.168-.69-1.79q-.267-.85-.513-1.64c-.164-.512-.239-1.066-.355-1.551a13.212,13.212,0,0,1-.246-1.393,21.651,21.651,0,0,1-.157-2.241c.034-1.23.095-1.893.2-1.893.287,0,.2,2.719,1.571,6.737.2.5.4,1.045.608,1.6.192.506.472,1.073.745,1.654a17.972,17.972,0,0,1,.8,1.919,8.233,8.233,0,0,1,.28,1.121,23.772,23.772,0,0,1,.1,3.443c-.014.772-.034,1.571-.089,2.391a14.944,14.944,0,0,1-.792,4.188l.9-.082.055-.075c.178-.246.355-.492.54-.745a6.2,6.2,0,0,0,.458-.8,3.958,3.958,0,0,0,.355-.827c.055-.143.109-.273.157-.423l.109-.519.089-.424.021-.1.013-.055c0-.014.021-.191.021-.191.027-.28.054-.554.082-.827s.054-.547.082-.813c.007-.273.02-.54.034-.806.075-1.066.061-2.1.075-3.081-.055-1.961-.15-3.744-.328-5.227-.314-2.951-.717-4.817-.478-4.871.191-.048.977,1.66,1.6,4.693a34.435,34.435,0,0,1,.363,12.038l-.11.52c-.054.184-.13.375-.2.567a5.688,5.688,0,0,1-.465,1.079c-.129.219-.252.444-.382.663.369,0,.738-.021,1.1-.048.8-.068,1.585-.184,2.336-.294.192-.027.383-.054.567-.075l.137-.02.109-.014.069-.007a2.3,2.3,0,0,1,.375.014C121.341,87.471,121.389,87.471,121.437,87.477Zm-12.783,1.217c-.109-.069-.218-.144-.328-.212-.355-.226-.669-.451-1-.683-.28-.219-.663-.4-1-.615-.349-.212-.7-.424-1.094-.622-.792-.424-1.612-.868-2.452-1.319-.417-.246-.793-.5-1.182-.737l-.294-.185-.068-.048-.075-.048-.035-.027-.143-.116c-.2-.157-.389-.314-.574-.465-.355-.307-.683-.642-.977-.922s-.54-.553-.861-.82c-.136-.123-.266-.232-.389-.348-.157-.11-.314-.219-.465-.321-.3-.219-.615-.424-.908-.622-.6-.4-1.169-.786-1.674-1.161a10.05,10.05,0,0,1-2.187-2.153c-.368-.6-.485-.983-.389-1.065s.437.143.977.574a21.473,21.473,0,0,0,2.35,1.475l1.756.936c.328.178.656.349,1,.56.171.1.342.2.52.308l.034.02.095.076.055.041.123.1.239.185c.041.034.089.075.137.109-.677-5.233-3.724-9.715-5.589-14.627-1.551-4.1-3.265-8.438-3.6-12.851-1.005.4-1.859,1.127-2.972,1.2A11.8,11.8,0,0,1,83.7,53.8c-4.687-1.284-7.522.574-8.97,5.015.3.157.587.308.867.437.185.035.39.062.595.1.819.15,1.509.376,2.138.519a6.623,6.623,0,0,0,1.633.239,3.562,3.562,0,0,0,1.052-.143c.266-.082.437-.144.485-.075s-.014.225-.232.444a2.435,2.435,0,0,1-1.216.587,7.7,7.7,0,0,1-3.088-.232c-.055,0-.11-.007-.171-.007-.1-.013-.219-.041-.321-.054a9.448,9.448,0,0,1-2.549-.383,9.884,9.884,0,0,1-2.282-1.578A9.2,9.2,0,0,1,68.5,53.939c-.007.055-.014.1-.021.157a17.222,17.222,0,0,1-1.735,5.288c-.717,1.216-1.3,1.859-1.421,1.79-.157-.082.184-.895.7-2.166a29.444,29.444,0,0,0,1.318-5.089c.417-2.952.567-5.562.759-6.8-.39-1.777-1.387-2.965-3.915-2.289a1.2,1.2,0,0,1-.54.171,1.872,1.872,0,0,1-1.346-.431c-.15.048-.287.11-.43.171a.761.761,0,0,1-.478.021.865.865,0,0,1-.807-.287,2.8,2.8,0,0,0-.266-.308c-.014-.013-.13-.1-.143-.116a.714.714,0,0,1-.171-.1c-.062-.014-.116-.034-.171-.048-.649.178-1.25.478-1.893.669a.945.945,0,0,1-1.2-.628.9.9,0,0,1-.123-.26,1.677,1.677,0,0,0-1.735-1.018c-.868.6-1.374,1.613-2.31,2.173A13.3,13.3,0,0,0,49.9,46.3a1.542,1.542,0,0,1-1.168.26,3.832,3.832,0,0,0-.909-.123c-.02.047-.041.1-.068.157,2.405,3.163-2.938,4.967-5.842,5.875a77.892,77.892,0,0,1,7.072,5.063,35.874,35.874,0,0,1,5.144,4.277,1.152,1.152,0,0,1,.157.191c1.3,1.551,3.027,4.4.526,5.308-.061.069-.123.137-.2.219a4.308,4.308,0,0,0-1.045,1.995,6.986,6.986,0,0,0-.185,1.564v.479c.021.116.041.239.062.362s.082.225.109.348c.068.089.109.2.185.28a1.884,1.884,0,0,0,1.421.526,3.581,3.581,0,0,0,.553-.006,4.422,4.422,0,0,1,.437-.069,5.242,5.242,0,0,0,.964-.348,5.009,5.009,0,0,0,1.6-1.23c.089-.13.185-.266.274-.4l.034-.048.02-.021c.007-.006.055-.1.055-.1l.116-.253c.171-.335.308-.642.5-.984.089-.157.177-.321.266-.478l.13-.239.034-.061.014-.028.055-.075.075-.1c.2-.259.444-.512.676-.751.082-.1.171-.205.253-.3a2.512,2.512,0,0,0,.171-.273l.041-.068c.006,0,.02-.028.02-.028l.014-.034L61.52,67a.678.678,0,0,0,.028-.178.66.66,0,0,0-.2-.41c-.047-.068-.15-.17-.184-.218-.082-.075-.157-.151-.232-.219a1.058,1.058,0,0,0-.724-.273c-.533.027-.9.1-.93-.007-.027-.082.2-.335.827-.567a1.588,1.588,0,0,1,1.339.184c.089.062.185.123.28.185.13.1.2.157.315.259a1.535,1.535,0,0,1,.553,1.524l-.041.219-.014.047a.408.408,0,0,1-.034.089l-.055.123a3.889,3.889,0,0,1-.239.513c-.1.136-.2.28-.307.43-.144.178-.294.369-.451.581.314-.424,3.566,1.134,3.956,1.373,1,.6,1.332,2.009,2.329,2.562.923.512,1.982.43,2.938,1.168a10.563,10.563,0,0,1,3.512,6.279,12.094,12.094,0,0,1,.2,1.414c.068-.184.123-.362.191-.553a14.262,14.262,0,0,1,2.1-4.045c.192-.232.369-.437.533-.615.171-.143.328-.266.458-.362.267-.191.437-.266.5-.218s-.007.239-.164.519c-.082.143-.191.307-.314.5-.1.2-.212.41-.342.649a28.082,28.082,0,0,0-1.681,3.962c-.293.813-.574,1.585-.833,2.289a8.3,8.3,0,0,0-.519,1.783,6.1,6.1,0,0,0,.1,1.606,4.243,4.243,0,0,0,.328.423c3.5,1.1,7.146.984,10.781.984,4.284,0,8.574.137,12.865.219A88.844,88.844,0,0,0,108.654,88.694ZM71.42,85.927c2.658-1.415.389-6.921-.765-8.534-2.31-3.217-7.543-2.787-10.966-1.892a8.655,8.655,0,0,0-6.2,5.24,4.336,4.336,0,0,1,1.954-1.353,7.282,7.282,0,0,1,2.125-.321,13.053,13.053,0,0,1,3.443.506c1.886.54,2.944,1.107,2.9,1.243-.055.164-1.216-.13-3.075-.444a15.165,15.165,0,0,0-3.231-.239,6.649,6.649,0,0,0-1.783.321,3.3,3.3,0,0,0-1.456,1.032l-.252.355a4,4,0,0,0-.212.451,1.957,1.957,0,0,0-.157.786,1.877,1.877,0,0,0,.669,1.346,5.654,5.654,0,0,0,1.346.929l.15.075.192.075c.129.055.252.1.369.15a5.229,5.229,0,0,0,.7.26c.854.287,1.626.478,2.132.663s.786.314.772.389-.328.089-.861.048a17.948,17.948,0,0,1-2.3-.328A7.289,7.289,0,0,1,53.7,85.216C55.522,87.457,60.373,87.8,62.914,88c.362.034,6.217.669,6.128-.349a.923.923,0,0,1,.007-.2,12.683,12.683,0,0,1-2.1-.273c-.594-.1-1.1-.3-1.667-.444a16.6,16.6,0,0,0-1.667-.369c-.3-.041-.595-.089-.895-.137l-.957-.123c-.649-.075-1.291-.184-1.954-.28a11.669,11.669,0,0,1-2.111-.553,5.644,5.644,0,0,1-1.072-.513,2.1,2.1,0,0,1-1.141-1.53,2.6,2.6,0,0,1,.02-.567l.069-.253.013-.034.041-.109a.277.277,0,0,0,.014-.041l.055-.1.116-.184a1.681,1.681,0,0,1,.744-.588,3.21,3.21,0,0,1,.417-.1,3.614,3.614,0,0,1,.369-.02,4.651,4.651,0,0,1,.6.055l.513.075c.348.054.7.109,1.038.164a17.382,17.382,0,0,1,1.954.423l.465.116.232.055c.13.034.171.055.266.082.322.1.615.212.9.321a29.535,29.535,0,0,0,3.232,1.066,3.711,3.711,0,0,0,2.555-.014l.061-.034c.048-.041.089-.068.117-.089.054-.054.095-.1.123-.136.027-.075.041-.014.013-.11a1.924,1.924,0,0,0-.738-.539,12.488,12.488,0,0,0-1.708-.649c-.97-.308-1.523-.458-1.523-.561s.6-.15,1.653-.013a9.85,9.85,0,0,1,1.913.451,3.853,3.853,0,0,1,.581.266,1.834,1.834,0,0,1,.608.513,1.013,1.013,0,0,1,.2.526,1.062,1.062,0,0,1-.116.587,1.947,1.947,0,0,1-.28.39c-.055.054-.1.1-.158.15l-.04.041-.021.014a.416.416,0,0,1-.061.047.85.85,0,0,0-.082.048,1.693,1.693,0,0,1-.328.2,4.333,4.333,0,0,1-.472.171,4.093,4.093,0,0,1-.861.109,7.956,7.956,0,0,1-1.7-.15,27.336,27.336,0,0,1-3.429-.977c-.287-.1-.581-.2-.861-.28-.062-.014-.164-.055-.185-.055l-.232-.047-.471-.11a18.621,18.621,0,0,0-1.9-.369c-.314-.041-.635-.089-.956-.136s-.711-.11-.929-.11l-.151.007a.45.45,0,0,1-.082.021.248.248,0,0,0-.054.061.125.125,0,0,1-.021.034c-.007.014-.068.212-.068.212a.024.024,0,0,0,.027-.02.091.091,0,0,1,.014.041,1.192,1.192,0,0,0,.444.416,4.268,4.268,0,0,0,.8.383,10.036,10.036,0,0,0,1.818.5c.662.1,1.311.232,1.94.314l.936.143c.314.062.628.117.943.178a16.641,16.641,0,0,1,1.81.465c.56.164,1.107.4,1.585.5a10.506,10.506,0,0,0,2.822.4A4.348,4.348,0,0,0,71.42,85.927ZM50.883,84.41c-1.373-8.178,7.522-11.717,14.4-11.259-1.073-1.223-3.027-1.66-4.6-1.934a.9.9,0,0,1-.157-.048c-.007.021-.021.041-.028.062l-.109.253-.061.13-.035.068-.006.014-.021.034-.048.068c-.123.178-.239.362-.362.547a6.191,6.191,0,0,1-2.1,1.667,6.254,6.254,0,0,1-1.3.45c-.239.035-.485.069-.724.089a3.617,3.617,0,0,1-.608,0l-.144-.007h-.068l-.1-.006-.041-.007-.335-.062c-.116-.027-.225-.041-.334-.075l-.328-.13a2.453,2.453,0,0,1-.841-.539c-1.257,1.7-4.058,1.885-5.916.9-2.774,2.576-6.887.465-9.695-1.25-3.5-2.145-7.6-3.327-11.061-5.5-1.7,4.885,3.491,12.681,7.686,14.607a25.4,25.4,0,0,0,9.367,1.961C45.636,84.56,48.71,85.564,50.883,84.41ZM53.8,65.69c.554-.519-.362-1.38-.71-1.783a22.866,22.866,0,0,0-3.211-3.081A86.318,86.318,0,0,0,39.6,53.461a1.092,1.092,0,0,1-.321-.28l-.143-.062c-1.531-.676-2.952-1.229-2.856-1.551.075-.266,1.353-.266,2.965.356a.515.515,0,0,1,.048-.089,3.128,3.128,0,0,1,.615-.69,1.044,1.044,0,0,1,.5-.355,35.4,35.4,0,0,0,3.915-1.271,4.836,4.836,0,0,0,1.8-1.121c.205-.246.109-.451-.062-.649a23.4,23.4,0,0,0-4.188-.314c-2.377.116-3.621,1.086-5.534,2.3a26.012,26.012,0,0,1-8.54,3.04.182.182,0,0,0-.061.007.948.948,0,0,1-.492.082c-3.594-.28-7.119.929-10.692,1.25a54.325,54.325,0,0,0-9.647,1.373c-.232,1.9-.465,3.792-.574,5.705-.123,2.063-.458,4.714.424,6.675,5.93-.274,11.573-2.193,17.367-3.348a.986.986,0,0,1,.491.014,1,1,0,0,1,.848.246c3.231,2.828,7.515,3.477,11.088,5.711,2.261,1.414,6.593,4.762,9.093,2.6-.013-.006-.02-.006-.027-.013-.15-.055-.307-.11-.465-.164-.211-.082-.416-.164-.621-.246s-.417-.212-.622-.321c-.41-.219-.745-.451-1.079-.67-.308-.218-.595-.43-.868-.622a8.428,8.428,0,0,1-1.483-.888,4.279,4.279,0,0,1-.567-.526c-.184-.136-.293-.232-.273-.3.007-.014.021-.021.034-.035a1.34,1.34,0,0,1-.171-.314c-.088-.321-.1-.512-.034-.553s.226.095.431.348c.116.123.266.2.4.328a6.9,6.9,0,0,0,.621.369c.062.034.13.068.192.1.143.061.294.123.457.2.055.02.11.055.171.082.3.123.643.253,1,.4.177.068.369.15.56.239.1.048.184.075.307.144l.274.157c.362.2.738.417,1.12.635.328.185.656.39.963.554.349.123.684.259,1.012.389a1.028,1.028,0,0,1,.69.266c.006.007.013.007.02.014.075.027.15.062.219.089a14.26,14.26,0,0,0,1.359.444,2.2,2.2,0,0,0,2.029-.676,1.018,1.018,0,0,1,.308-.328A1.242,1.242,0,0,0,51.1,70.93a6.915,6.915,0,0,0-1.49-.717c-.321-.027-.642-.075-.963-.13-.635-.095-1.237-.232-1.817-.348-.294-.055-.581-.116-.868-.171a7.861,7.861,0,0,1-.82-.232,8.652,8.652,0,0,1-2.651-1.517c-.287-.212-1.393-1.838-1.585-1.852a7.267,7.267,0,0,1,2.385.964,19.383,19.383,0,0,0,2.3.963c.458.157.936.328,1.435.506l.191.075.048.013c.014.007.1.035.1.035,1.093.328,4.632,1.421,5.185-.11.123-.334.574-.97.191-1.223a5.665,5.665,0,0,0-.71-.334,6.563,6.563,0,0,1-1-.465c-.375-.13-.765-.266-1.161-.41-.308-.116-.615-.225-.916-.341-.28-.13-.56-.267-.833-.39-.547-.273-1.073-.5-1.571-.786a26.023,26.023,0,0,1-2.617-1.448,4.6,4.6,0,0,1-1.5-1.476c-.26-.505-.178-.765-.123-.785.082-.041.2.252.485.519a6.063,6.063,0,0,0,1.558,1.038c.512.267,1.12.526,1.8.82.014,0,.021.007.028.007.58.171,1.257.4,2.049.663a12.471,12.471,0,0,1,1.2.457c.2.089.41.178.615.267l.314.143c.184.1.239.13.362.2q.4.246.779.472c.178.068.369.136.546.2C52.434,65.683,53.418,66.052,53.8,65.69ZM45.957,45.625c1.025-2.125-6.894-2.685-8.171-2.61a1.05,1.05,0,0,1-.478-.089.026.026,0,0,0-.021-.007c-3.177-1.155-6.49-1.865-9.674-2.985-3.054-1.073-6.012-2.583-9.3-2.788a.9.9,0,0,1-.233-.034c-2.514.608-4.085,2.05-5.656,4.14-1.237,1.653-3.191,3.4-3.348,5.548-.048.662,8.943,1.462,9.817,1.537,1.681.143,3.369.266,5.042.458a5.426,5.426,0,0,1,2.248.9c.472.335.724.861,1.326.991a7.905,7.905,0,0,0,2.7-.546,18.728,18.728,0,0,0,2.774-.875l-.28-.041a2.7,2.7,0,0,1-.328-.061l-.335-.13-.164-.069-.082-.034-.041-.02-.027-.007c-.007-.007-.062-.041-.062-.041l-.239-.178a3.889,3.889,0,0,1-.526-.471,10.972,10.972,0,0,1-1.53-2.234c-.219.335-.41.656-.581.881-.287.39-.492.574-.581.519s-.041-.321.082-.751a6.44,6.44,0,0,1,.786-1.852l.369-.567.417.629a20.56,20.56,0,0,0,1.872,2.576,2.277,2.277,0,0,0,1.633.8,6.132,6.132,0,0,0,1.714-.171l.11-.02a22.647,22.647,0,0,1,3.491-2.118c2.166-.957,4.933-.54,7.255-.226C45.943,45.659,45.95,45.645,45.957,45.625Z"/><path d="M80.944,68.348c.3.143-.287,1.7-.991,3.477-.717,1.852-1.585,3.273-1.872,3.143s.075-1.7.8-3.566C79.652,69.468,80.677,68.218,80.944,68.348Z"/><path d="M58.808,67.337a2.794,2.794,0,0,1,0,.423,2.163,2.163,0,0,1-.219.8c-.259.5-.615.819-.662.97-.035-.055-.11.369-.089.376a1.928,1.928,0,0,0,.013.478,2.356,2.356,0,0,1,0,.389,1.2,1.2,0,0,1-.122.328.845.845,0,0,1-.219.219,1.374,1.374,0,0,1-.683.232,2.468,2.468,0,0,1-1.059-.055,1.608,1.608,0,0,1-.813-.464.874.874,0,0,1-.2-.745c.116-.4.293-.458.355-.444.082.021.034.246.1.465s.239.348.71.389c.492.041.84.239,1.011-.321.116-.4-.02-.834.082-1.223s.451-.622.608-.963c.137-.315.007-1.2-.382-.649-.1.143-.212.273-.308.4l-.123.143-.089.075-.17.151a3.723,3.723,0,0,1-.349.287c-.977.731-1.735.765-1.769.642-.075-.164.546-.492,1.209-1.237.082-.082.178-.2.273-.314l.151-.178.075-.088a.316.316,0,0,1,.027-.048c.061-.11.143-.26.253-.424a1.715,1.715,0,0,1,.512-.546c.854-.527,1.455-.274,1.742.45A2.8,2.8,0,0,1,58.808,67.337Z"/><path d="M57.715,46.69a2.311,2.311,0,0,1-.041.294l-.048.13a.912.912,0,0,1-.041.109l-.02.028-.035.054-.068.1a.985.985,0,0,1-.164.177,1.284,1.284,0,0,1-.389.239,1.623,1.623,0,0,1-.738.11,1.815,1.815,0,0,1-1.032-.431,1.086,1.086,0,0,1-.389-.69c0-.191.075-.252.143-.287.56-.225,1.162.574,1.729.2-.062-.17-.164-.334-.239-.505-.137-.321-.253-.574-.342-.834a2.854,2.854,0,0,1-.082-.4,1.74,1.74,0,0,1,.041-.3c.041-.158.1-.246.178-.253s.17.054.259.171a1.029,1.029,0,0,1,.137.191,2.662,2.662,0,0,1,.184.212,6.073,6.073,0,0,1,.533.676,2.025,2.025,0,0,1,.321.519A1.081,1.081,0,0,1,57.715,46.69Z"/></g><text x="0" y="143" fill="#000000" font-size="5px" font-weight="bold" font-family="'Helvetica Neue', Helvetica, Arial-Unicode, Arial, Sans-serif">Created by Hey Rabbit</text><text x="0" y="148" fill="#000000" font-size="5px" font-weight="bold" font-family="'Helvetica Neue', Helvetica, Arial-Unicode, Arial, Sans-serif">from the Noun Project</text></svg>